<?xml version="1.0" encoding="utf-8"?>
<!-- Generator: Adobe Illustrator 27.5.0, SVG Export Plug-In . SVG Version: 6.00 Build 0)  -->
<svg version="1.1" xmlns="http://www.w3.org/2000/svg" xmlns:xlink="http://www.w3.org/1999/xlink" x="0px" y="0px"
	 viewBox="0 0 3710 3710" style="enable-background:new 0 0 3710 3710;" xml:space="preserve">
<g id="Background">
	<g>
		<g>
			<rect style="fill:#FFFFFF;" width="3710" height="3710"/>
		</g>
	</g>
</g>
<g id="Illustration">
	<g>
		<linearGradient id="SVGID_1_" gradientUnits="userSpaceOnUse" x1="3573.4954" y1="4006.2886" x2="1133.6331" y2="976.1326">
			<stop  offset="0" style="stop-color:#DAE3FE"/>
			<stop  offset="1" style="stop-color:#E9EFFD"/>
		</linearGradient>
		<path style="fill:url(#SVGID_1_);" d="M2902.274,2811.304c-56.042,58.999-109.069,97.047-150.965,127.108
			c-492.475,353.356-1075.203,250.355-1199.05,225.201c-182.882-37.144-536.389-108.944-791.968-409.5
			c-386.67-454.716-326.46-1171.109-26.532-1644.009c54.861-86.502,344.656-566.606,933.66-643.599
			c356.46-46.596,771.977,47.382,1072.883,299.482C3371.93,1295.167,3326.965,2364.203,2902.274,2811.304z"/>
		<g>
			<path style="fill:#BDD0FB;" d="M480.545,1260.751c-4.302-8.431,6.823-17.472,16.066-13.117
				c93.866,44.222,328.634,188.035,363.423,531.675c43.648,431.147,181.552,558.48,329.48,620.463
				c0,0-182.562-1.367-328.606-129.071C502.335,1957.157,557.03,1410.651,480.545,1260.751z"/>
			<path style="opacity:0.5;fill:#FFFFFF;" d="M572.102,1376.258c21.196,43.981,41.362,88.366,59.596,133.447
				c18.508,44.973,35.414,90.512,50.639,136.547c15.018,46.094,29.028,92.488,40.728,139.472
				c11.943,46.921,21.538,94.378,30.979,142.067c9.743,47.597,19.245,95.613,34.453,142.584
				c15.126,46.887,37.007,92.556,68.035,132.781c7.748,10.021,15.745,19.945,24.36,29.315c8.411,9.527,17.33,18.699,26.445,27.716
				c18.342,17.952,38.158,34.781,59.409,50.155c42.606,30.651,90.949,55.247,142.047,73.561c5.378,1.927,11.819-0.455,14.386-5.321
				c2.521-4.778,0.369-10.174-4.802-12.193l-0.037-0.014c-12.26-4.772-24.433-9.666-36.278-15.036
				c-5.979-2.599-11.796-5.434-17.679-8.168c-5.742-2.933-11.632-5.664-17.252-8.757c-22.74-12.019-44.381-25.487-64.668-40.365
				c-40.711-29.538-76.179-64.885-105.902-103.263c-14.607-19.357-27.487-39.725-38.466-61.003
				c-10.961-21.288-20.015-43.462-27.595-66.194c-15.174-45.489-25.032-92.919-35.17-140.428
				c-10.211-47.504-20.85-95.156-33.739-142.215c-6.37-23.546-13.231-46.96-20.574-70.225c-3.594-11.655-7.449-23.232-11.28-34.814
				c-3.96-11.542-7.994-23.059-12.136-34.539c-16.669-45.886-34.963-91.208-54.904-135.859
				c-20.192-44.552-41.764-88.537-65.289-131.6c-0.673-1.231-2.393-1.681-3.844-1.005
				C572.154,1373.563,571.521,1375.046,572.102,1376.258z"/>
		</g>
		<g>
			<g>
				<path style="fill:#91B3FA;" d="M908.959,1976.934c-7.093,12.541-24.688,13.762-33.594,2.437
					c-49.141-62.489-172.104-251.733-111.683-519.434c51.023-226.062,57.206-353.49,56.005-411.532
					c-0.254-12.274,15.308-17.737,22.802-8.014C925.164,1147.672,1165.975,1522.518,908.959,1976.934z"/>
				<path style="opacity:0.5;fill:#FFFFFF;" d="M889.705,1973.799c-0.326,0.145-0.67,0.26-1.032,0.343
					c-3.027,0.695-6.046-1.195-6.741-4.223c-0.788-3.432-78.168-346.871-21.423-664.399c0.547-3.055,3.468-5.092,6.528-4.548
					c3.058,0.548,5.094,3.469,4.548,6.528c-56.332,315.217,20.529,656.492,21.311,659.901
					C893.509,1970.068,892.115,1972.727,889.705,1973.799z"/>
			</g>
		</g>
		<g>
			<g>
				<path style="fill:#91B3FA;" d="M2521.858,2884.779H985.343V687.039c0-77.3,58.714-139.209,129.512-136.562l1451.079,21.625
					c74.002,1.103,132.884,68.032,130.872,148.76l-50.628,2031.898C2644.347,2826.245,2589.227,2884.779,2521.858,2884.779z"/>
				<path style="opacity:0.6;fill:#FFFFFF;" d="M2494.521,2551.371H1009.215V722.962c0-64.31,56.757-115.815,125.196-113.612
					l1402.717,17.99c71.536,0.918,128.455,56.6,126.51,123.761l-48.94,1690.437
					C2612.928,2502.674,2559.645,2551.371,2494.521,2551.371z"/>
				<path style="fill:#91B3FA;" d="M1011.237,753.364l1657.41,12.947v-79.609c-2.224-33.122-34.831-77.421-85.509-77.421
					L1086.644,590.51c-35.675-0.398-77.82,49.58-77.122,87.9L1011.237,753.364z"/>
				
					<ellipse transform="matrix(0.7071 -0.7071 0.7071 0.7071 -153.7513 967.2861)" style="opacity:0.6;fill:#FFFFFF;" cx="1090.742" cy="669.237" rx="23.152" ry="23.152"/>
				
					<ellipse transform="matrix(0.7071 -0.7071 0.7071 0.7071 -128.5182 1033.5518)" style="opacity:0.6;fill:#FFFFFF;" cx="1183.348" cy="671.911" rx="23.152" ry="23.152"/>
				
					<ellipse transform="matrix(0.2298 -0.9732 0.9732 0.2298 325.9732 1755.7069)" style="opacity:0.6;fill:#FFFFFF;" cx="1272.202" cy="671.911" rx="23.152" ry="23.152"/>
			</g>
			<g>
				<g>
					<path style="fill:#91B3FA;" d="M1697.61,1217.97h-588.918c-4.194,0-7.594-3.4-7.594-7.594V845.391
						c0-4.194,3.4-7.594,7.594-7.594h588.918c4.194,0,7.594,3.4,7.594,7.594v364.985
						C1705.204,1214.57,1701.804,1217.97,1697.61,1217.97z"/>
					<path style="fill:#FFFFFF;" d="M1659.157,1202.483h-512.012c-15.049,0-27.29-12.241-27.29-27.286V881.27
						c0-15.047,12.241-27.288,27.29-27.288h512.012c15.049,0,27.29,12.241,27.29,27.288v293.927
						C1686.447,1190.243,1674.206,1202.483,1659.157,1202.483z M1147.145,857.353c-13.189,0-23.919,10.73-23.919,23.917v293.927
						c0,13.187,10.73,23.915,23.919,23.915h512.012c13.189,0,23.919-10.728,23.919-23.915V881.27
						c0-13.187-10.73-23.917-23.919-23.917H1147.145z"/>
					<path style="fill:#FFFFFF;" d="M1204.102,1159.48h303.639c9.452,0,15.326-10.27,10.534-18.417l-120.208-204.354
						c-5.014-8.523-17.547-7.874-21.652,1.123l-58.043,127.182c-3.447,7.551-13.257,9.544-19.376,3.935l-23.48-21.523
						c-5.455-5-14.067-4.044-18.292,2.032l-63.156,90.825C1188.433,1148.385,1194.232,1159.48,1204.102,1159.48z"/>
					
						<ellipse transform="matrix(0.9239 -0.3827 0.3827 0.9239 -241.6452 646.2425)" style="fill:#FFFFFF;" cx="1503.616" cy="930.537" rx="43.649" ry="43.65"/>
				</g>
				<g>
					<path style="fill:#91B3FA;" d="M1695.959,1665.397h-585.616c-5.106,0-9.245-4.139-9.245-9.245v-361.683
						c0-5.106,4.139-9.245,9.245-9.245h585.616c5.106,0,9.245,4.139,9.245,9.245v361.683
						C1705.204,1661.258,1701.065,1665.397,1695.959,1665.397z"/>
					<path style="fill:#FFFFFF;" d="M1218.661,1606.726h303.639c9.452,0,15.326-10.27,10.534-18.417l-120.208-204.354
						c-5.014-8.523-17.547-7.874-21.652,1.123l-58.043,127.182c-3.447,7.551-13.257,9.544-19.376,3.935l-23.48-21.523
						c-5.455-5-14.067-4.044-18.292,2.032l-63.156,90.824C1202.993,1595.631,1208.792,1606.726,1218.661,1606.726z"/>
					
						<ellipse transform="matrix(0.9239 -0.3827 0.3827 0.9239 -411.691 685.8593)" style="fill:#FFFFFF;" cx="1518.176" cy="1377.783" rx="43.649" ry="43.65"/>
					<path style="fill:#FFFFFF;" d="M1658.725,1652.811H1146.71c-15.046,0-27.287-12.241-27.287-27.288v-293.925
						c0-15.048,12.241-27.288,27.287-27.288h512.015c15.046,0,27.287,12.241,27.287,27.288v293.925
						C1686.012,1640.57,1673.771,1652.811,1658.725,1652.811z M1146.71,1307.681c-13.186,0-23.915,10.73-23.915,23.917v293.925
						c0,13.187,10.73,23.917,23.915,23.917h512.015c13.186,0,23.915-10.73,23.915-23.917v-293.925
						c0-13.187-10.729-23.917-23.915-23.917H1146.71z"/>
				</g>
				<g>
					<path style="fill:#91B3FA;" d="M2555.305,1285.325h-695.948c-4.194,0-7.594-3.4-7.594-7.594V845.391
						c0-4.194,3.4-7.594,7.594-7.594h695.948c4.194,0,7.594,3.4,7.594,7.594v432.341
						C2562.899,1281.925,2559.499,1285.325,2555.305,1285.325z"/>
					<path style="fill:#FFFFFF;" d="M2513.232,1266.797h-611.802c-15.046,0-27.286-12.241-27.286-27.287V884.436
						c0-15.046,12.241-27.287,27.286-27.287h611.802c15.046,0,27.286,12.241,27.286,27.287v355.075
						C2540.519,1254.556,2528.278,1266.797,2513.232,1266.797z M1901.431,860.52c-13.186,0-23.915,10.728-23.915,23.915v355.075
						c0,13.187,10.73,23.915,23.915,23.915h611.802c13.186,0,23.915-10.728,23.915-23.915V884.436
						c0-13.187-10.73-23.915-23.915-23.915H1901.431z"/>
					<g style="opacity:0.9;">
						<path style="fill:#FFFFFF;" d="M2202.892,1186.064c-69.628,0-126.275-56.647-126.275-126.274s56.647-126.274,126.275-126.274
							s126.274,56.647,126.274,126.274S2272.52,1186.064,2202.892,1186.064z M2202.892,954.676
							c-57.96,0-105.114,47.153-105.114,105.114c0,57.96,47.154,105.114,105.114,105.114c57.96,0,105.114-47.154,105.114-105.114
							C2308.006,1001.83,2260.852,954.676,2202.892,954.676z"/>
						<path style="fill-rule:evenodd;clip-rule:evenodd;fill:#FFFFFF;" d="M2163.335,1108.419v-90.782
							c0-9.7,10.559-15.713,18.901-10.763l76.496,45.391c8.171,4.849,8.171,16.677,0,21.525l-76.496,45.391
							C2173.894,1124.132,2163.335,1118.119,2163.335,1108.419z"/>
					</g>
				</g>
				<g>
					<path style="fill:#91B3FA;" d="M2550.866,1808.694h-695.948c-4.194,0-7.594-3.4-7.594-7.594v-432.341
						c0-4.194,3.4-7.594,7.594-7.594h695.948c4.194,0,7.594,3.4,7.594,7.594V1801.1
						C2558.46,1805.294,2555.06,1808.694,2550.866,1808.694z"/>
					<path style="fill:#FFFFFF;" d="M2508.791,1790.166h-611.798c-15.046,0-27.286-12.241-27.286-27.288v-355.073
						c0-15.046,12.241-27.286,27.286-27.286h611.798c15.046,0,27.287,12.241,27.287,27.286v355.073
						C2536.078,1777.925,2523.837,1790.166,2508.791,1790.166z M1896.993,1383.889c-13.186,0-23.915,10.728-23.915,23.915v355.073
						c0,13.187,10.73,23.917,23.915,23.917h611.798c13.186,0,23.915-10.73,23.915-23.917v-355.073
						c0-13.187-10.73-23.915-23.915-23.915H1896.993z"/>
					<g style="opacity:0.9;">
						<path style="fill:#FFFFFF;" d="M2198.453,1709.433c-69.628,0-126.275-56.647-126.275-126.275
							c0-69.628,56.647-126.275,126.275-126.275s126.274,56.647,126.274,126.275
							C2324.727,1652.786,2268.081,1709.433,2198.453,1709.433z M2198.453,1478.045c-57.96,0-105.114,47.153-105.114,105.114
							s47.154,105.114,105.114,105.114c57.96,0,105.114-47.153,105.114-105.114S2256.413,1478.045,2198.453,1478.045z"/>
						<path style="fill-rule:evenodd;clip-rule:evenodd;fill:#FFFFFF;" d="M2158.896,1631.787v-90.782
							c0-9.7,10.559-15.713,18.901-10.763l76.496,45.391c8.171,4.849,8.171,16.677,0,21.525l-76.496,45.391
							C2169.454,1647.5,2158.896,1641.488,2158.896,1631.787z"/>
					</g>
				</g>
			</g>
		</g>
		<g>
			
				<linearGradient id="SVGID_00000063633801479225963220000002372880652586337711_" gradientUnits="userSpaceOnUse" x1="1687.0115" y1="3200.2612" x2="1710.4159" y2="2351.0044">
				<stop  offset="0" style="stop-color:#4F52FF"/>
				<stop  offset="1" style="stop-color:#4042E2"/>
			</linearGradient>
			<path style="fill:url(#SVGID_00000063633801479225963220000002372880652586337711_);" d="M752.837,2423.57l20.127,625.941
				c3.51,109.147,93.082,196.006,202.796,196.652l1498.922,8.835c73.328,0.432,135.797-52.848,146.504-125.053
				c23.438-158.072,53.302-440.905,19.673-706.375H752.837z"/>
			<path style="fill:#FFFFFF;" d="M2421.587,3216.542c-0.003,0-0.007,0-0.011,0l-10.918-0.064c-1.006-0.005-1.814-0.824-1.809-1.83
				c0.005-1.001,0.819-1.809,1.82-1.809c0.003,0,0.007,0,0.011,0l10.918,0.064c1.004,0.005,1.814,0.826,1.809,1.831
				C2423.401,3215.733,2422.587,3216.542,2421.587,3216.542z M2447.052,3216.369c-0.954,0-1.754-0.743-1.814-1.708
				c-0.062-1.002,0.7-1.866,1.704-1.928c3.566-0.22,7.172-0.583,10.719-1.077c0.984-0.16,1.914,0.555,2.052,1.552
				c0.138,0.995-0.554,1.914-1.551,2.053c-3.638,0.508-7.338,0.879-10.997,1.105
				C2447.129,3216.367,2447.09,3216.369,2447.052,3216.369z M2385.194,3216.328c-0.004,0-0.007,0-0.011,0l-10.918-0.065
				c-1.006-0.006-1.814-0.826-1.809-1.831c0.005-1.002,0.819-1.809,1.82-1.809c0.003,0,0.007,0,0.011,0l10.918,0.065
				c1.006,0.005,1.814,0.826,1.809,1.831C2387.008,3215.522,2386.195,3216.328,2385.194,3216.328z M2348.799,3216.114
				c-0.004,0-0.007,0-0.011,0l-10.918-0.064c-1.006-0.005-1.814-0.826-1.809-1.831c0.005-1,0.819-1.809,1.82-1.809
				c0.003,0,0.007,0,0.01,0l10.918,0.064c1.004,0.005,1.814,0.824,1.809,1.83C2350.613,3215.305,2349.8,3216.114,2348.799,3216.114z
				 M2312.404,3215.898c-0.004,0-0.007,0-0.011,0l-10.918-0.064c-1.006-0.005-1.814-0.825-1.809-1.83
				c0.005-1.004,0.974-1.763,1.83-1.809l10.918,0.064c1.004,0.005,1.814,0.826,1.809,1.83
				C2314.219,3215.09,2313.405,3215.898,2312.404,3215.898z M2276.011,3215.685c-0.003,0-0.007,0-0.01,0l-10.918-0.066
				c-1.006-0.005-1.814-0.826-1.809-1.83c0.005-1.002,0.819-1.809,1.82-1.809c0.004,0,0.007,0,0.011,0l10.918,0.066
				c1.006,0.005,1.814,0.826,1.809,1.83C2277.825,3214.878,2277.011,3215.685,2276.011,3215.685z M2239.616,3215.47
				c-0.003,0-0.007,0-0.01,0l-10.918-0.064c-1.006-0.006-1.814-0.824-1.809-1.83c0.006-1.004,0.967-1.836,1.831-1.809l10.918,0.064
				c1.006,0.005,1.814,0.825,1.809,1.83C2241.431,3214.661,2240.616,3215.47,2239.616,3215.47z M2203.221,3215.255
				c-0.003,0-0.007,0-0.011,0l-10.917-0.064c-1.004-0.005-1.814-0.824-1.809-1.83c0.006-1.002,0.819-1.809,1.82-1.809
				c0.004,0,0.007,0,0.011,0l10.917,0.064c1.006,0.005,1.814,0.825,1.809,1.83
				C2205.036,3214.446,2204.222,3215.255,2203.221,3215.255z M2166.828,3215.04c-0.003,0-0.007,0-0.01,0l-10.918-0.064
				c-1.004-0.005-1.814-0.825-1.809-1.831c0.005-1,0.819-1.809,1.82-1.809c0.003,0,0.007,0,0.011,0l10.919,0.064
				c1.005,0.005,1.814,0.825,1.809,1.831C2168.643,3214.233,2167.829,3215.04,2166.828,3215.04z M2130.433,3214.827
				c-0.003,0-0.007,0-0.01,0l-10.918-0.064c-1.004-0.006-1.814-0.825-1.809-1.831c0.005-1,0.819-1.809,1.82-1.809
				c0.004,0,0.007,0,0.011,0l10.918,0.064c1.006,0.005,1.814,0.827,1.809,1.831
				C2132.248,3214.018,2131.434,3214.827,2130.433,3214.827z M2094.04,3214.612c-0.003,0-0.007,0-0.01,0l-10.918-0.064
				c-1.004-0.006-1.814-0.825-1.809-1.831c0.005-1.002,0.819-1.809,1.82-1.809c0.004,0,0.007,0,0.011,0l10.918,0.064
				c1.006,0.005,1.814,0.824,1.809,1.83C2095.855,3213.805,2095.041,3214.612,2094.04,3214.612z M2057.645,3214.397
				c-0.004,0-0.007,0-0.01,0l-10.918-0.064c-1.004-0.006-1.814-0.827-1.809-1.83c0.005-1,0.819-1.809,1.82-1.809
				c0.004,0,0.007,0,0.011,0l10.919,0.064c1.006,0.005,1.814,0.824,1.809,1.83
				C2059.46,3213.588,2058.646,3214.397,2057.645,3214.397z M2021.25,3214.184c-0.004,0-0.007,0-0.01,0l-10.917-0.066
				c-1.006-0.006-1.815-0.826-1.809-1.83c0.005-1.002,0.819-1.809,1.82-1.809c0.004,0,0.007,0,0.011,0l10.917,0.066
				c1.005,0.005,1.814,0.826,1.809,1.83C2023.065,3213.377,2022.251,3214.184,2021.25,3214.184z M1984.857,3213.969
				c-0.004,0-0.007,0-0.011,0l-10.918-0.064c-1.006-0.005-1.815-0.824-1.809-1.83c0.005-1.002,0.819-1.809,1.82-1.809
				c0.004,0,0.007,0,0.011,0l10.918,0.064c1.006,0.005,1.815,0.825,1.809,1.83
				C1986.672,3213.162,1985.858,3213.969,1984.857,3213.969z M1948.463,3213.753c-0.004,0-0.007,0-0.011,0l-10.918-0.064
				c-1.006-0.005-1.815-0.826-1.809-1.83c0.006-1,0.819-1.809,1.82-1.809c0.004,0,0.007,0,0.011,0l10.919,0.064
				c1.006,0.005,1.815,0.825,1.809,1.83C1950.277,3212.945,1949.463,3213.753,1948.463,3213.753z M1912.068,3213.54
				c-0.004,0-0.007,0-0.01,0l-10.917-0.065c-1.006-0.006-1.815-0.827-1.809-1.831c0.005-1.002,0.819-1.809,1.82-1.809
				c0.004,0,0.007,0,0.011,0l10.917,0.065c1.006,0.006,1.815,0.827,1.809,1.83C1913.882,3212.733,1913.068,3213.54,1912.068,3213.54
				z M1875.675,3213.325c-0.004,0-0.007,0-0.011,0l-10.918-0.064c-1.006-0.005-1.815-0.825-1.809-1.831
				c0.005-1.002,0.94-1.699,1.83-1.809l10.918,0.064c1.004,0.006,1.815,0.825,1.809,1.831
				C1877.489,3212.518,1876.675,3213.325,1875.675,3213.325z M1839.28,3213.11c-0.004,0-0.007,0-0.01,0l-10.918-0.064
				c-1.006-0.005-1.815-0.825-1.809-1.831c0.005-1,0.819-1.809,1.82-1.809c0.004,0,0.007,0,0.01,0l10.918,0.064
				c1.004,0.005,1.815,0.824,1.809,1.83C1841.094,3212.302,1840.28,3213.11,1839.28,3213.11z M1802.887,3212.895
				c-0.004,0-0.007,0-0.011,0l-10.918-0.064c-1.006-0.005-1.815-0.825-1.809-1.83c0.005-1.006,0.933-1.772,1.83-1.809l10.918,0.064
				c1.006,0.005,1.815,0.824,1.809,1.83C1804.701,3212.086,1803.887,3212.895,1802.887,3212.895z M1766.492,3212.682
				c-0.004,0-0.007,0-0.01,0l-10.919-0.064c-1.006-0.006-1.815-0.826-1.809-1.83c0.006-1,0.819-1.809,1.82-1.809
				c0.004,0,0.007,0,0.01,0l10.919,0.064c1.006,0.005,1.815,0.824,1.809,1.83
				C1768.306,3211.873,1767.492,3212.682,1766.492,3212.682z M1730.097,3212.467c-0.004,0-0.007,0-0.011,0l-10.919-0.064
				c-1.006-0.005-1.815-0.824-1.809-1.83c0.005-1.004,0.93-1.845,1.83-1.809l10.918,0.064c1.006,0.006,1.815,0.826,1.809,1.83
				C1731.911,3211.658,1731.098,3212.467,1730.097,3212.467z M1693.704,3212.252c-0.004,0-0.007,0-0.011,0l-10.918-0.064
				c-1.006-0.005-1.814-0.824-1.809-1.83c0.005-1.002,0.819-1.809,1.82-1.809c0.004,0,0.007,0,0.01,0l10.918,0.064
				c1.006,0.006,1.814,0.825,1.809,1.83C1695.518,3211.445,1694.704,3212.252,1693.704,3212.252z M1657.309,3212.038
				c-0.004,0-0.007,0-0.011,0l-10.918-0.065c-1.006-0.006-1.814-0.827-1.809-1.831c0.005-1.002,0.819-1.809,1.82-1.809
				c0.004,0,0.007,0,0.01,0l10.918,0.066c1.006,0.005,1.814,0.826,1.809,1.831
				C1659.123,3211.231,1658.309,3212.038,1657.309,3212.038z M1620.914,3211.823c-0.004,0-0.007,0-0.011,0l-10.917-0.064
				c-1.004-0.005-1.814-0.825-1.809-1.831c0.005-1,0.819-1.809,1.82-1.809c0.003,0,0.007,0,0.01,0l10.917,0.064
				c1.006,0.005,1.814,0.826,1.809,1.831C1622.729,3211.015,1621.915,3211.823,1620.914,3211.823z M1584.521,3211.608
				c-0.004,0-0.007,0-0.011,0l-10.918-0.064c-1.004-0.005-1.814-0.825-1.809-1.831c0.005-1.002,0.819-1.809,1.82-1.809
				c0.003,0,0.007,0,0.01,0l10.919,0.064c1.006,0.005,1.814,0.824,1.809,1.83
				C1586.335,3210.802,1585.522,3211.608,1584.521,3211.608z M1548.126,3211.393c-0.004,0-0.007,0-0.011,0l-10.918-0.064
				c-1.004-0.005-1.814-0.827-1.809-1.83c0.005-1,0.819-1.809,1.82-1.809c0.003,0,0.007,0,0.011,0l10.918,0.064
				c1.006,0.005,1.814,0.824,1.809,1.83C1549.941,3210.585,1549.127,3211.393,1548.126,3211.393z M1511.731,3211.18
				c-0.004,0-0.007,0-0.011,0l-10.917-0.064c-1.006-0.006-1.814-0.825-1.809-1.83c0.005-1.002,0.819-1.809,1.82-1.809
				c0.003,0,0.007,0,0.01,0l10.917,0.064c1.006,0.005,1.814,0.824,1.809,1.83C1513.546,3210.372,1512.732,3211.18,1511.731,3211.18z
				 M1475.338,3210.965c-0.004,0-0.007,0-0.011,0l-10.918-0.064c-1.006-0.005-1.814-0.824-1.809-1.83
				c0.005-1,0.819-1.809,1.82-1.809c0.003,0,0.007,0,0.011,0l10.918,0.064c1.006,0.005,1.814,0.825,1.809,1.83
				C1477.153,3210.158,1476.339,3210.965,1475.338,3210.965z M1438.943,3210.75c-0.004,0-0.007,0-0.011,0l-10.918-0.064
				c-1.006-0.005-1.814-0.824-1.809-1.83c0.005-1.001,0.819-1.809,1.82-1.809c0.003,0,0.007,0,0.011,0l10.918,0.064
				c1.005,0.005,1.814,0.825,1.809,1.83C1440.758,3209.941,1439.944,3210.75,1438.943,3210.75z M1402.55,3210.537
				c-0.003,0-0.007,0-0.01,0l-10.918-0.065c-1.006-0.005-1.814-0.826-1.809-1.831c0.005-1.002,0.819-1.809,1.82-1.809
				c0.004,0,0.007,0,0.011,0l10.918,0.065c1.006,0.005,1.814,0.826,1.809,1.831
				C1404.365,3209.73,1403.551,3210.537,1402.55,3210.537z M1366.155,3210.322c-0.003,0-0.007,0-0.01,0l-10.918-0.064
				c-1.006-0.005-1.814-0.826-1.809-1.831c0.007-1.002,0.901-1.708,1.831-1.809l10.918,0.064c1.004,0.005,1.814,0.825,1.809,1.831
				C1367.97,3209.513,1367.156,3210.322,1366.155,3210.322z M1329.76,3210.107c-0.003,0-0.007,0-0.011,0l-10.918-0.064
				c-1.006-0.005-1.814-0.825-1.809-1.83c0.005-1.001,0.819-1.809,1.82-1.809c0.004,0,0.007,0,0.011,0l10.918,0.064
				c1.004,0.005,1.814,0.826,1.809,1.83C1331.575,3209.298,1330.761,3210.107,1329.76,3210.107z M1293.367,3209.894
				c-0.003,0-0.007,0-0.01,0l-10.918-0.066c-1.006-0.005-1.814-0.826-1.809-1.83c0.007-1.006,0.896-1.781,1.831-1.809l10.918,0.066
				c1.006,0.005,1.814,0.826,1.809,1.83C1295.182,3209.087,1294.368,3209.894,1293.367,3209.894z M1256.973,3209.678
				c-0.003,0-0.007,0-0.011,0l-10.918-0.064c-1.006-0.006-1.814-0.826-1.809-1.83c0.005-1,0.819-1.809,1.82-1.809
				c0.004,0,0.007,0,0.011,0l10.918,0.064c1.006,0.005,1.814,0.824,1.809,1.83
				C1258.787,3208.87,1257.973,3209.678,1256.973,3209.678z M2482.68,3209.485c-0.762,0-1.473-0.484-1.727-1.246
				c-0.316-0.954,0.199-1.983,1.153-2.301c3.396-1.129,6.789-2.405,10.085-3.794c0.926-0.382,1.994,0.044,2.385,0.97
				c0.389,0.926-0.045,1.994-0.97,2.385c-3.384,1.425-6.867,2.735-10.352,3.894
				C2483.064,3209.455,2482.87,3209.485,2482.68,3209.485z M1220.578,3209.463c-0.003,0-0.007,0-0.011,0l-10.918-0.064
				c-1.006-0.005-1.814-0.824-1.809-1.83c0.007-1.004,0.892-1.854,1.831-1.809l10.918,0.064c1.006,0.005,1.814,0.826,1.809,1.83
				C1222.392,3208.655,1221.578,3209.463,1220.578,3209.463z M1184.184,3209.248c-0.004,0-0.007,0-0.01,0l-10.918-0.064
				c-1.006-0.005-1.814-0.824-1.809-1.83c0.005-1.002,0.819-1.809,1.82-1.809c0.004,0,0.007,0,0.01,0l10.918,0.064
				c1.006,0.005,1.815,0.825,1.809,1.83C1185.999,3208.441,1185.185,3209.248,1184.184,3209.248z M1147.79,3209.035
				c-0.004,0-0.007,0-0.011,0l-10.918-0.064c-1.006-0.005-1.814-0.824-1.809-1.83c0.005-1,0.819-1.809,1.82-1.809
				c0.004,0,0.007,0,0.011,0l10.918,0.064c1.006,0.005,1.815,0.827,1.809,1.831
				C1149.604,3208.227,1148.79,3209.035,1147.79,3209.035z M1111.395,3208.82c-0.004,0-0.007,0-0.01,0l-10.918-0.063
				c-1.006-0.006-1.814-0.825-1.809-1.831c0.005-1.002,0.819-1.809,1.82-1.809c0.004,0,0.007,0,0.01,0l10.918,0.064
				c1.006,0.005,1.815,0.825,1.809,1.831C1113.209,3208.012,1112.395,3208.82,1111.395,3208.82z M1075.002,3208.605
				c-0.004,0-0.007,0-0.011,0l-10.918-0.064c-1.004-0.006-1.815-0.825-1.809-1.83c0.005-1,0.819-1.809,1.82-1.809
				c0.004,0,0.007,0,0.011,0l10.918,0.064c1.006,0.005,1.815,0.824,1.809,1.83
				C1076.816,3207.798,1076.002,3208.605,1075.002,3208.605z M1038.607,3208.392c-0.004,0-0.007,0-0.01,0l-10.919-0.066
				c-1.006-0.006-1.815-0.826-1.809-1.83c0.005-1,0.819-1.809,1.82-1.809c0.004,0,0.007,0,0.01,0l10.919,0.066
				c1.006,0.005,1.815,0.826,1.809,1.83C1040.421,3207.585,1039.607,3208.392,1038.607,3208.392z M1002.219,3207.983
				c-0.03,0-0.06,0-0.092-0.002c-3.639-0.181-7.334-0.469-10.981-0.857c-0.999-0.105-1.724-1.002-1.617-2.001
				c0.107-1,0.981-1.74,2.001-1.617c3.579,0.38,7.204,0.663,10.778,0.839c1.004,0.049,1.777,0.904,1.727,1.908
				C1003.987,3207.226,1003.182,3207.983,1002.219,3207.983z M966.258,3202.805c-0.142,0-0.284-0.016-0.428-0.05
				c-3.551-0.854-7.128-1.825-10.632-2.882c-0.961-0.289-1.507-1.304-1.215-2.267c0.289-0.963,1.306-1.509,2.267-1.216
				c3.439,1.036,6.948,1.987,10.433,2.826c0.976,0.236,1.578,1.219,1.343,2.196C967.826,3202.245,967.079,3202.805,966.258,3202.805
				z M2515.352,3193.677c-0.594,0-1.175-0.29-1.523-0.823c-0.551-0.838-0.316-1.967,0.523-2.518
				c3.003-1.969,5.955-4.073,8.775-6.253c0.791-0.613,1.937-0.467,2.552,0.327c0.615,0.794,0.469,1.937-0.327,2.552
				c-2.893,2.239-5.923,4.398-9.003,6.417C2516.039,3193.581,2515.695,3193.677,2515.352,3193.677z M931.892,3191.014
				c-0.25,0-0.505-0.052-0.746-0.162c-3.318-1.498-6.646-3.117-9.895-4.81c-0.89-0.466-1.235-1.564-0.771-2.456
				c0.466-0.889,1.557-1.237,2.456-0.772c3.186,1.664,6.453,3.252,9.707,4.722c0.917,0.414,1.324,1.491,0.91,2.406
				C933.248,3190.615,932.587,3191.014,931.892,3191.014z M900.347,3173.035c-0.361,0-0.725-0.107-1.043-0.331
				c-2.989-2.097-5.96-4.308-8.832-6.572c-0.789-0.622-0.924-1.766-0.303-2.555c0.624-0.787,1.767-0.924,2.556-0.302
				c2.818,2.221,5.735,4.391,8.669,6.45c0.823,0.578,1.022,1.712,0.444,2.534C901.484,3172.765,900.922,3173.035,900.347,3173.035z
				 M2542.872,3170.026c-0.434,0-0.867-0.153-1.216-0.466c-0.748-0.671-0.811-1.821-0.139-2.569
				c2.383-2.655,4.695-5.445,6.874-8.292c0.611-0.8,1.75-0.949,2.55-0.34c0.798,0.61,0.951,1.752,0.339,2.55
				c-2.233,2.922-4.608,5.786-7.055,8.512C2543.867,3169.822,2543.369,3170.026,2542.872,3170.026z M872.687,3149.497
				c-0.472,0-0.945-0.183-1.302-0.549c-2.554-2.618-5.067-5.344-7.467-8.104c-0.661-0.757-0.581-1.907,0.178-2.566
				c0.755-0.659,1.905-0.584,2.566,0.177c2.356,2.707,4.823,5.382,7.328,7.951c0.702,0.72,0.688,1.872-0.032,2.573
				C873.604,3149.325,873.145,3149.497,872.687,3149.497z M2563.372,3140.094c-0.277,0-0.558-0.062-0.821-0.197
				c-0.896-0.455-1.255-1.549-0.8-2.445c1.615-3.186,3.124-6.478,4.485-9.783c0.384-0.929,1.45-1.363,2.376-0.99
				c0.929,0.384,1.372,1.447,0.99,2.376c-1.399,3.395-2.948,6.773-4.606,10.042
				C2564.677,3139.73,2564.037,3140.094,2563.372,3140.094z M849.863,3121.218c-0.59,0-1.169-0.286-1.519-0.816
				c-2.026-3.058-3.986-6.208-5.827-9.36c-0.507-0.867-0.215-1.981,0.652-2.488c0.874-0.506,1.985-0.21,2.49,0.654
				c1.807,3.092,3.73,6.182,5.72,9.186c0.555,0.837,0.325,1.966-0.514,2.522C850.557,3121.121,850.208,3121.218,849.863,3121.218z
				 M2575.405,3105.873c-0.124,0-0.249-0.012-0.375-0.039c-0.984-0.206-1.613-1.171-1.407-2.154c0.56-2.669,1.05-5.408,1.457-8.141
				l0.371-2.506c0.146-0.994,1.066-1.695,2.063-1.537c0.994,0.144,1.683,1.068,1.537,2.063l-0.372,2.516
				c-0.417,2.804-0.92,5.614-1.496,8.351C2577.004,3105.285,2576.247,3105.873,2575.405,3105.873z M832.732,3089.156
				c-0.711,0-1.386-0.419-1.679-1.118c-1.409-3.371-2.744-6.836-3.967-10.302c-0.334-0.947,0.164-1.987,1.113-2.321
				c0.944-0.324,1.985,0.163,2.321,1.112c1.198,3.398,2.508,6.799,3.892,10.107c0.388,0.926-0.049,1.992-0.977,2.381
				C833.205,3089.111,832.967,3089.156,832.732,3089.156z M2580.866,3069.891c-0.083,0-0.167-0.006-0.252-0.018
				c-0.995-0.139-1.69-1.057-1.552-2.053c0.494-3.552,0.988-7.158,1.484-10.813c0.137-0.994,1.042-1.69,2.049-1.559
				c0.995,0.135,1.694,1.052,1.558,2.049c-0.496,3.659-0.993,7.268-1.487,10.824
				C2582.54,3069.231,2581.76,3069.891,2580.866,3069.891z M821.949,3054.419c-0.844,0-1.601-0.59-1.779-1.448
				c-0.75-3.592-1.404-7.238-1.944-10.842c-0.149-0.994,0.536-1.921,1.53-2.071c1.011-0.128,1.921,0.537,2.07,1.53
				c0.53,3.537,1.171,7.116,1.905,10.64c0.206,0.985-0.425,1.948-1.409,2.152C822.198,3054.407,822.072,3054.419,821.949,3054.419z
				 M2585.673,3033.806c-0.076,0-0.153-0.005-0.231-0.014c-0.997-0.128-1.703-1.038-1.577-2.034l1.362-10.83
				c0.123-0.997,1.038-1.71,2.029-1.582c0.997,0.125,1.706,1.032,1.582,2.029l-1.362,10.84
				C2587.359,3033.135,2586.576,3033.806,2585.673,3033.806z M817.887,3018.319c-0.977,0-1.786-0.777-1.816-1.761l-0.35-10.913
				c-0.034-1.004,0.755-1.845,1.759-1.877c1.007-0.093,1.844,0.755,1.877,1.759l0.352,10.914c0.032,1.004-0.757,1.844-1.761,1.876
				C817.927,3018.319,817.906,3018.319,817.887,3018.319z M2590.068,2997.671c-0.069,0-0.14-0.003-0.211-0.012
				c-0.999-0.115-1.713-1.018-1.597-2.017c0.416-3.583,0.828-7.197,1.237-10.844c0.114-1,1.024-1.697,2.012-1.606
				c0.999,0.114,1.718,1.013,1.606,2.011c-0.412,3.654-0.825,7.272-1.241,10.858
				C2591.767,2996.989,2590.979,2997.671,2590.068,2997.671z M816.717,2981.942c-0.977,0-1.786-0.777-1.816-1.761l-0.354-10.913
				c-0.032-1.004,0.757-1.844,1.761-1.876c0.994-0.062,1.846,0.755,1.877,1.759l0.352,10.913c0.034,1.004-0.755,1.845-1.759,1.877
				C816.758,2981.942,816.737,2981.942,816.717,2981.942z M2594.048,2961.486c-0.062,0-0.126-0.003-0.19-0.009
				c-1-0.105-1.726-1-1.622-1.999c0.375-3.593,0.746-7.213,1.114-10.86c0.099-0.997,0.993-1.722,1.994-1.628
				c0.999,0.102,1.729,0.994,1.628,1.994c-0.368,3.65-0.739,7.273-1.116,10.87
				C2595.76,2960.791,2594.969,2961.486,2594.048,2961.486z M815.548,2945.567c-0.977,0-1.786-0.777-1.816-1.761l-0.352-10.913
				c-0.033-1.004,0.755-1.844,1.759-1.876c0.862-0.139,1.847,0.751,1.877,1.759l0.352,10.913c0.034,1.004-0.755,1.844-1.759,1.876
				C815.589,2945.567,815.568,2945.567,815.548,2945.567z M2597.615,2925.262c-0.057,0-0.112-0.002-0.171-0.007
				c-1-0.094-1.736-0.979-1.644-1.982c0.334-3.6,0.663-7.224,0.988-10.869c0.091-0.999,0.949-1.747,1.974-1.651
				c1,0.089,1.74,0.974,1.651,1.974c-0.325,3.648-0.654,7.275-0.988,10.881C2599.337,2924.555,2598.545,2925.262,2597.615,2925.262z
				 M814.378,2909.19c-0.977,0-1.786-0.777-1.816-1.761l-0.352-10.913c-0.033-1.004,0.756-1.845,1.759-1.876
				c0.867-0.132,1.845,0.751,1.879,1.759l0.352,10.913c0.032,1.004-0.757,1.845-1.761,1.877
				C814.42,2909.19,814.4,2909.19,814.378,2909.19z M2600.76,2888.993c-0.05,0-0.098-0.002-0.147-0.005
				c-1.002-0.082-1.749-0.959-1.669-1.96l0.86-10.881c0.078-1,0.91-1.752,1.955-1.674c1.002,0.078,1.752,0.953,1.674,1.955
				l-0.86,10.892C2602.495,2888.271,2601.699,2888.993,2600.76,2888.993z M813.208,2872.815c-0.978,0-1.786-0.777-1.818-1.761
				l-0.35-10.913c-0.032-1.004,0.757-1.845,1.761-1.877c0.974-0.051,1.847,0.756,1.877,1.76l0.35,10.913
				c0.033,1.004-0.756,1.844-1.759,1.876C813.248,2872.815,813.227,2872.815,813.208,2872.815z M2603.471,2852.694
				c-0.041,0-0.084-0.002-0.126-0.004c-1.002-0.07-1.759-0.938-1.692-1.94l0.727-10.89c0.064-1.002,0.91-1.74,1.935-1.697
				c1.002,0.065,1.763,0.931,1.697,1.935l-0.727,10.901C2605.219,2851.958,2604.419,2852.694,2603.471,2852.694z M812.04,2836.438
				c-0.979,0-1.788-0.777-1.818-1.761l-0.35-10.912c-0.034-1.004,0.755-1.844,1.759-1.877c0.965-0.11,1.846,0.755,1.878,1.76
				l0.35,10.911c0.032,1.004-0.757,1.845-1.761,1.879C812.079,2836.438,812.059,2836.438,812.04,2836.438z M2605.733,2816.363
				c-0.033,0-0.069-0.002-0.103-0.003c-1.004-0.055-1.772-0.915-1.715-1.917c0.203-3.62,0.4-7.252,0.588-10.897
				c0.053-1.004,0.915-1.777,1.912-1.724c1.004,0.053,1.775,0.908,1.724,1.912c-0.19,3.652-0.39,7.288-0.592,10.912
				C2607.494,2815.614,2606.691,2816.363,2605.733,2816.363z M810.869,2800.062c-0.978,0-1.786-0.776-1.816-1.761l-0.35-10.913
				c-0.034-1.004,0.755-1.844,1.759-1.876c0.956-0.076,1.846,0.755,1.876,1.759l0.35,10.913c0.034,1.004-0.755,1.845-1.759,1.876
				C810.91,2800.062,810.889,2800.062,810.869,2800.062z M2607.531,2780.008c-0.027,0-0.053,0-0.08-0.002
				c-1.004-0.043-1.782-0.892-1.74-1.896c0.156-3.624,0.306-7.257,0.448-10.904c0.039-1.004,0.903-1.828,1.889-1.747
				c1.004,0.039,1.786,0.885,1.747,1.889c-0.142,3.65-0.292,7.291-0.448,10.918
				C2609.305,2779.243,2608.5,2780.008,2607.531,2780.008z M809.7,2763.687c-0.978,0-1.786-0.777-1.816-1.761l-0.352-10.913
				c-0.034-1.004,0.755-1.845,1.759-1.877c0.885-0.11,1.844,0.753,1.876,1.76l0.352,10.913c0.034,1.004-0.755,1.844-1.759,1.876
				C809.74,2763.687,809.719,2763.687,809.7,2763.687z M2608.848,2743.629c-0.02,0-0.037,0-0.055,0
				c-1.004-0.03-1.795-0.869-1.767-1.873c0.106-3.629,0.206-7.265,0.298-10.909c0.025-1.004,0.832-1.77,1.866-1.773
				c1.004,0.026,1.799,0.862,1.773,1.866c-0.092,3.648-0.192,7.291-0.298,10.924
				C2610.636,2742.848,2609.827,2743.629,2608.848,2743.629z M808.53,2727.31c-0.977,0-1.786-0.777-1.816-1.761l-0.352-10.913
				c-0.034-1.004,0.755-1.845,1.759-1.877c0.888-0.103,1.845,0.754,1.877,1.759l0.354,10.913c0.032,1.004-0.757,1.844-1.761,1.876
				C808.571,2727.31,808.552,2727.31,808.53,2727.31z M2609.659,2707.237c-0.009,0-0.018,0-0.027,0
				c-1.006-0.016-1.807-0.842-1.793-1.848c0.055-3.629,0.103-7.266,0.142-10.909c0.011-1.006,0.956-1.773,1.839-1.801
				c1.006,0.011,1.811,0.834,1.8,1.84c-0.039,3.648-0.087,7.291-0.142,10.927
				C2611.462,2706.441,2610.652,2707.237,2609.659,2707.237z M807.361,2690.935c-0.977,0-1.786-0.777-1.818-1.761l-0.352-10.913
				c-0.032-1.004,0.757-1.844,1.761-1.876c0.894-0.098,1.845,0.753,1.877,1.759l0.352,10.913c0.034,1.004-0.755,1.845-1.759,1.877
				C807.402,2690.935,807.38,2690.935,807.361,2690.935z M2609.945,2670.844c-1.004,0-1.82-0.814-1.82-1.82v-0.881
				c0-3.337-0.007-6.677-0.021-10.023c-0.004-1.004,0.807-1.823,1.813-1.827h0.005c1.004,0,1.818,0.81,1.822,1.813
				c0.014,3.35,0.021,6.696,0.021,10.037v0.881C2611.764,2670.031,2610.95,2670.844,2609.945,2670.844z M806.191,2654.557
				c-0.979,0-1.788-0.776-1.818-1.761l-0.35-10.912c-0.034-1.004,0.755-1.844,1.759-1.876c1.013-0.128,1.845,0.755,1.878,1.759
				l0.35,10.911c0.032,1.004-0.757,1.845-1.761,1.878C806.231,2654.557,806.211,2654.557,806.191,2654.557z M2609.676,2634.462
				c-0.993,0-1.804-0.796-1.82-1.793c-0.055-3.629-0.119-7.263-0.194-10.901c-0.019-1.004,0.779-1.836,1.783-1.857
				c0.865-0.071,1.834,0.775,1.857,1.783c0.075,3.645,0.139,7.286,0.194,10.922c0.014,1.004-0.787,1.831-1.791,1.846
				C2609.694,2634.462,2609.685,2634.462,2609.676,2634.462z M805.022,2618.182c-0.979,0-1.788-0.777-1.82-1.761l-0.348-10.913
				c-0.034-1.004,0.755-1.844,1.759-1.877c0.901-0.087,1.845,0.753,1.877,1.76l0.35,10.913c0.034,1.004-0.755,1.844-1.759,1.878
				C805.061,2618.182,805.042,2618.182,805.022,2618.182z M2608.823,2598.086c-0.978,0-1.786-0.777-1.816-1.761
				c-0.115-3.632-0.24-7.265-0.375-10.9c-0.037-1.004,0.746-1.848,1.75-1.885c1.017-0.085,1.85,0.746,1.885,1.75
				c0.135,3.643,0.26,7.282,0.375,10.92c0.032,1.004-0.755,1.843-1.759,1.876
				C2608.862,2598.086,2608.843,2598.086,2608.823,2598.086z M803.851,2581.807c-0.978,0-1.786-0.777-1.816-1.761l-0.35-10.913
				c-0.034-1.004,0.756-1.845,1.759-1.877c0.995-0.062,1.845,0.756,1.877,1.759l0.35,10.913c0.033,1.004-0.756,1.844-1.759,1.877
				C803.892,2581.807,803.871,2581.807,803.851,2581.807z M2607.352,2561.727c-0.963,0-1.768-0.757-1.816-1.729
				c-0.179-3.631-0.368-7.261-0.565-10.894c-0.055-1.004,0.713-1.862,1.717-1.917c0.981-0.041,1.862,0.713,1.916,1.718
				c0.201,3.639,0.389,7.277,0.569,10.911c0.05,1.004-0.725,1.859-1.727,1.909
				C2607.412,2561.727,2607.382,2561.727,2607.352,2561.727z M802.684,2545.43c-0.979,0-1.788-0.777-1.818-1.761l-0.352-10.913
				c-0.034-1.004,0.755-1.844,1.759-1.878c1.047,0.009,1.846,0.759,1.876,1.761l0.354,10.913c0.032,1.004-0.757,1.844-1.761,1.878
				C802.723,2545.43,802.703,2545.43,802.684,2545.43z M2605.228,2525.396c-0.949,0-1.749-0.736-1.815-1.697
				c-0.245-3.627-0.503-7.254-0.769-10.88c-0.075-1.002,0.679-1.875,1.681-1.948c1.05-0.067,1.875,0.681,1.948,1.681
				c0.266,3.632,0.526,7.266,0.773,10.899c0.067,1.004-0.69,1.872-1.693,1.941
				C2605.312,2525.395,2605.269,2525.396,2605.228,2525.396z M801.513,2509.054c-0.978,0-1.786-0.776-1.818-1.761l-0.35-10.913
				c-0.034-1.004,0.755-1.844,1.759-1.876c0.915-0.153,1.844,0.753,1.876,1.759l0.352,10.913c0.034,1.004-0.755,1.845-1.759,1.876
				C801.553,2509.054,801.532,2509.054,801.513,2509.054z M2602.406,2489.113c-0.933,0-1.727-0.714-1.811-1.66
				c-0.318-3.622-0.649-7.243-0.988-10.864c-0.094-1,0.64-1.889,1.64-1.983c1.011-0.08,1.889,0.642,1.982,1.642
				c0.343,3.627,0.673,7.256,0.991,10.885c0.089,1.002-0.652,1.885-1.655,1.973
				C2602.513,2489.112,2602.459,2489.113,2602.406,2489.113z M800.343,2472.677c-0.978,0-1.786-0.777-1.816-1.761l-0.352-10.913
				c-0.034-1.004,0.755-1.844,1.759-1.878c0.92-0.06,1.845,0.753,1.878,1.761l0.35,10.913c0.034,1.004-0.755,1.845-1.759,1.878
				C800.384,2472.677,800.365,2472.677,800.343,2472.677z M2598.843,2452.891c-0.917,0-1.706-0.69-1.807-1.623
				c-0.396-3.615-0.801-7.229-1.221-10.84c-0.116-0.999,0.599-1.902,1.597-2.017c1.022-0.125,1.902,0.6,2.017,1.597
				c0.419,3.618,0.828,7.24,1.224,10.865c0.108,0.999-0.611,1.896-1.612,2.006
				C2598.976,2452.887,2598.909,2452.891,2598.843,2452.891z M799.174,2436.302c-0.979,0-1.788-0.777-1.82-1.761l-0.409-12.792
				h6.604c1.006,0,1.82,0.814,1.82,1.82c0,1.004-0.814,1.82-1.82,1.82h-2.847l0.29,9.035c0.034,1.004-0.755,1.844-1.759,1.878
				C799.213,2436.302,799.193,2436.302,799.174,2436.302z M2586.898,2425.389h-10.919c-1.006,0-1.82-0.816-1.82-1.82
				c0-1.006,0.814-1.82,1.82-1.82h10.919c1.006,0,1.82,0.814,1.82,1.82C2588.717,2424.573,2587.903,2425.389,2586.898,2425.389z
				 M2550.503,2425.389h-10.918c-1.006,0-1.82-0.816-1.82-1.82c0-1.006,0.814-1.82,1.82-1.82h10.918c1.006,0,1.82,0.814,1.82,1.82
				C2552.323,2424.573,2551.508,2425.389,2550.503,2425.389z M2514.108,2425.389h-10.918c-1.006,0-1.82-0.816-1.82-1.82
				c0-1.006,0.814-1.82,1.82-1.82h10.918c1.005,0,1.82,0.814,1.82,1.82C2515.927,2424.573,2515.113,2425.389,2514.108,2425.389z
				 M2477.713,2425.389h-10.918c-1.006,0-1.82-0.816-1.82-1.82c0-1.006,0.814-1.82,1.82-1.82h10.918c1.006,0,1.82,0.814,1.82,1.82
				C2479.533,2424.573,2478.719,2425.389,2477.713,2425.389z M2441.318,2425.389H2430.4c-1.006,0-1.82-0.816-1.82-1.82
				c0-1.006,0.814-1.82,1.82-1.82h10.918c1.006,0,1.82,0.814,1.82,1.82C2443.138,2424.573,2442.324,2425.389,2441.318,2425.389z
				 M2404.923,2425.389h-10.918c-1.006,0-1.82-0.816-1.82-1.82c0-1.006,0.814-1.82,1.82-1.82h10.918c1.006,0,1.82,0.814,1.82,1.82
				C2406.743,2424.573,2405.929,2425.389,2404.923,2425.389z M2368.528,2425.389h-10.918c-1.006,0-1.82-0.816-1.82-1.82
				c0-1.006,0.814-1.82,1.82-1.82h10.918c1.006,0,1.82,0.814,1.82,1.82C2370.348,2424.573,2369.534,2425.389,2368.528,2425.389z
				 M2332.134,2425.389h-10.918c-1.006,0-1.82-0.816-1.82-1.82c0-1.006,0.814-1.82,1.82-1.82h10.918c1.006,0,1.82,0.814,1.82,1.82
				C2333.953,2424.573,2333.139,2425.389,2332.134,2425.389z M2295.739,2425.389h-10.918c-1.006,0-1.82-0.816-1.82-1.82
				c0-1.006,0.814-1.82,1.82-1.82h10.918c1.005,0,1.82,0.814,1.82,1.82C2297.558,2424.573,2296.744,2425.389,2295.739,2425.389z
				 M2259.344,2425.389h-10.918c-1.006,0-1.82-0.816-1.82-1.82c0-1.006,0.814-1.82,1.82-1.82h10.918c1.006,0,1.82,0.814,1.82,1.82
				C2261.164,2424.573,2260.349,2425.389,2259.344,2425.389z M2222.949,2425.389h-10.918c-1.006,0-1.82-0.816-1.82-1.82
				c0-1.006,0.814-1.82,1.82-1.82h10.918c1.006,0,1.82,0.814,1.82,1.82C2224.769,2424.573,2223.955,2425.389,2222.949,2425.389z
				 M2186.554,2425.389h-10.919c-1.006,0-1.82-0.816-1.82-1.82c0-1.006,0.814-1.82,1.82-1.82h10.919c1.006,0,1.82,0.814,1.82,1.82
				C2188.374,2424.573,2187.56,2425.389,2186.554,2425.389z M2150.159,2425.389h-10.918c-1.006,0-1.82-0.816-1.82-1.82
				c0-1.006,0.814-1.82,1.82-1.82h10.918c1.006,0,1.82,0.814,1.82,1.82C2151.979,2424.573,2151.165,2425.389,2150.159,2425.389z
				 M2113.764,2425.389h-10.918c-1.006,0-1.82-0.816-1.82-1.82c0-1.006,0.814-1.82,1.82-1.82h10.918c1.006,0,1.82,0.814,1.82,1.82
				C2115.584,2424.573,2114.77,2425.389,2113.764,2425.389z M2077.369,2425.389h-10.918c-1.006,0-1.82-0.816-1.82-1.82
				c0-1.006,0.814-1.82,1.82-1.82h10.918c1.006,0,1.82,0.814,1.82,1.82C2079.189,2424.573,2078.375,2425.389,2077.369,2425.389z
				 M2040.975,2425.389h-10.918c-1.006,0-1.82-0.816-1.82-1.82c0-1.006,0.814-1.82,1.82-1.82h10.918c1.006,0,1.82,0.814,1.82,1.82
				C2042.794,2424.573,2041.98,2425.389,2040.975,2425.389z M2004.58,2425.389h-10.918c-1.006,0-1.82-0.816-1.82-1.82
				c0-1.006,0.814-1.82,1.82-1.82h10.918c1.006,0,1.82,0.814,1.82,1.82C2006.4,2424.573,2005.585,2425.389,2004.58,2425.389z
				 M1968.185,2425.389h-10.919c-1.006,0-1.82-0.816-1.82-1.82c0-1.006,0.814-1.82,1.82-1.82h10.919c1.006,0,1.82,0.814,1.82,1.82
				C1970.005,2424.573,1969.191,2425.389,1968.185,2425.389z M1931.79,2425.389h-10.918c-1.006,0-1.82-0.816-1.82-1.82
				c0-1.006,0.814-1.82,1.82-1.82h10.918c1.006,0,1.82,0.814,1.82,1.82C1933.61,2424.573,1932.796,2425.389,1931.79,2425.389z
				 M1895.395,2425.389h-10.918c-1.006,0-1.82-0.816-1.82-1.82c0-1.006,0.814-1.82,1.82-1.82h10.918c1.006,0,1.82,0.814,1.82,1.82
				C1897.215,2424.573,1896.401,2425.389,1895.395,2425.389z M1859,2425.389h-10.918c-1.006,0-1.82-0.816-1.82-1.82
				c0-1.006,0.814-1.82,1.82-1.82H1859c1.006,0,1.82,0.814,1.82,1.82C1860.82,2424.573,1860.006,2425.389,1859,2425.389z
				 M1822.605,2425.389h-10.918c-1.006,0-1.82-0.816-1.82-1.82c0-1.006,0.814-1.82,1.82-1.82h10.918c1.006,0,1.82,0.814,1.82,1.82
				C1824.425,2424.573,1823.611,2425.389,1822.605,2425.389z M1786.211,2425.389h-10.918c-1.006,0-1.82-0.816-1.82-1.82
				c0-1.006,0.814-1.82,1.82-1.82h10.918c1.005,0,1.82,0.814,1.82,1.82C1788.03,2424.573,1787.216,2425.389,1786.211,2425.389z
				 M1749.816,2425.389h-10.918c-1.006,0-1.82-0.816-1.82-1.82c0-1.006,0.814-1.82,1.82-1.82h10.918c1.006,0,1.82,0.814,1.82,1.82
				C1751.635,2424.573,1750.821,2425.389,1749.816,2425.389z M1713.421,2425.389h-10.918c-1.006,0-1.82-0.816-1.82-1.82
				c0-1.006,0.814-1.82,1.82-1.82h10.918c1.006,0,1.82,0.814,1.82,1.82C1715.241,2424.573,1714.426,2425.389,1713.421,2425.389z
				 M1677.026,2425.389h-10.918c-1.006,0-1.82-0.816-1.82-1.82c0-1.006,0.814-1.82,1.82-1.82h10.918c1.006,0,1.82,0.814,1.82,1.82
				C1678.846,2424.573,1678.032,2425.389,1677.026,2425.389z M1640.631,2425.389h-10.918c-1.006,0-1.82-0.816-1.82-1.82
				c0-1.006,0.814-1.82,1.82-1.82h10.918c1.006,0,1.82,0.814,1.82,1.82C1642.451,2424.573,1641.637,2425.389,1640.631,2425.389z
				 M1604.236,2425.389h-10.918c-1.006,0-1.82-0.816-1.82-1.82c0-1.006,0.814-1.82,1.82-1.82h10.918c1.006,0,1.82,0.814,1.82,1.82
				C1606.056,2424.573,1605.242,2425.389,1604.236,2425.389z M1567.841,2425.389h-10.919c-1.006,0-1.82-0.816-1.82-1.82
				c0-1.006,0.814-1.82,1.82-1.82h10.919c1.006,0,1.82,0.814,1.82,1.82C1569.661,2424.573,1568.847,2425.389,1567.841,2425.389z
				 M1531.447,2425.389h-10.919c-1.006,0-1.82-0.816-1.82-1.82c0-1.006,0.814-1.82,1.82-1.82h10.919c1.006,0,1.82,0.814,1.82,1.82
				C1533.266,2424.573,1532.452,2425.389,1531.447,2425.389z M1495.052,2425.389h-10.918c-1.006,0-1.82-0.816-1.82-1.82
				c0-1.006,0.814-1.82,1.82-1.82h10.918c1.006,0,1.82,0.814,1.82,1.82C1496.871,2424.573,1496.057,2425.389,1495.052,2425.389z
				 M1458.657,2425.389h-10.919c-1.006,0-1.82-0.816-1.82-1.82c0-1.006,0.814-1.82,1.82-1.82h10.919c1.005,0,1.82,0.814,1.82,1.82
				C1460.476,2424.573,1459.662,2425.389,1458.657,2425.389z M1422.262,2425.389h-10.918c-1.006,0-1.82-0.816-1.82-1.82
				c0-1.006,0.814-1.82,1.82-1.82h10.918c1.006,0,1.82,0.814,1.82,1.82C1424.082,2424.573,1423.267,2425.389,1422.262,2425.389z
				 M1385.867,2425.389h-10.918c-1.006,0-1.82-0.816-1.82-1.82c0-1.006,0.814-1.82,1.82-1.82h10.918c1.005,0,1.82,0.814,1.82,1.82
				C1387.687,2424.573,1386.873,2425.389,1385.867,2425.389z M1349.472,2425.389h-10.918c-1.006,0-1.82-0.816-1.82-1.82
				c0-1.006,0.814-1.82,1.82-1.82h10.918c1.006,0,1.82,0.814,1.82,1.82C1351.292,2424.573,1350.478,2425.389,1349.472,2425.389z
				 M1313.077,2425.389h-10.918c-1.006,0-1.82-0.816-1.82-1.82c0-1.006,0.814-1.82,1.82-1.82h10.918c1.006,0,1.82,0.814,1.82,1.82
				C1314.897,2424.573,1314.083,2425.389,1313.077,2425.389z M1276.682,2425.389h-10.918c-1.006,0-1.82-0.816-1.82-1.82
				c0-1.006,0.814-1.82,1.82-1.82h10.918c1.005,0,1.82,0.814,1.82,1.82C1278.502,2424.573,1277.688,2425.389,1276.682,2425.389z
				 M1240.288,2425.389h-10.918c-1.006,0-1.82-0.816-1.82-1.82c0-1.006,0.814-1.82,1.82-1.82h10.918c1.006,0,1.82,0.814,1.82,1.82
				C1242.107,2424.573,1241.293,2425.389,1240.288,2425.389z M1203.893,2425.389h-10.918c-1.006,0-1.82-0.816-1.82-1.82
				c0-1.006,0.814-1.82,1.82-1.82h10.918c1.006,0,1.82,0.814,1.82,1.82C1205.713,2424.573,1204.898,2425.389,1203.893,2425.389z
				 M1167.498,2425.389h-10.919c-1.006,0-1.82-0.816-1.82-1.82c0-1.006,0.814-1.82,1.82-1.82h10.919c1.006,0,1.82,0.814,1.82,1.82
				C1169.318,2424.573,1168.504,2425.389,1167.498,2425.389z M1131.103,2425.389h-10.919c-1.006,0-1.82-0.816-1.82-1.82
				c0-1.006,0.814-1.82,1.82-1.82h10.919c1.006,0,1.82,0.814,1.82,1.82C1132.923,2424.573,1132.109,2425.389,1131.103,2425.389z
				 M1094.708,2425.389h-10.918c-1.006,0-1.82-0.816-1.82-1.82c0-1.006,0.814-1.82,1.82-1.82h10.918c1.006,0,1.82,0.814,1.82,1.82
				C1096.528,2424.573,1095.714,2425.389,1094.708,2425.389z M1058.313,2425.389h-10.919c-1.006,0-1.82-0.816-1.82-1.82
				c0-1.006,0.814-1.82,1.82-1.82h10.919c1.005,0,1.82,0.814,1.82,1.82C1060.133,2424.573,1059.319,2425.389,1058.313,2425.389z
				 M1021.918,2425.389H1011c-1.006,0-1.82-0.816-1.82-1.82c0-1.006,0.814-1.82,1.82-1.82h10.918c1.006,0,1.82,0.814,1.82,1.82
				C1023.738,2424.573,1022.924,2425.389,1021.918,2425.389z M985.523,2425.389h-10.918c-1.006,0-1.82-0.816-1.82-1.82
				c0-1.006,0.814-1.82,1.82-1.82h10.918c1.006,0,1.82,0.814,1.82,1.82C987.343,2424.573,986.529,2425.389,985.523,2425.389z
				 M949.129,2425.389H938.21c-1.006,0-1.82-0.816-1.82-1.82c0-1.006,0.814-1.82,1.82-1.82h10.919c1.006,0,1.82,0.814,1.82,1.82
				C950.948,2424.573,950.134,2425.389,949.129,2425.389z M912.734,2425.389h-10.918c-1.006,0-1.82-0.816-1.82-1.82
				c0-1.006,0.814-1.82,1.82-1.82h10.918c1.006,0,1.82,0.814,1.82,1.82C914.554,2424.573,913.739,2425.389,912.734,2425.389z
				 M876.339,2425.389H865.42c-1.006,0-1.82-0.816-1.82-1.82c0-1.006,0.814-1.82,1.82-1.82h10.919c1.005,0,1.82,0.814,1.82,1.82
				C878.159,2424.573,877.344,2425.389,876.339,2425.389z M839.944,2425.389h-10.919c-1.006,0-1.82-0.816-1.82-1.82
				c0-1.006,0.814-1.82,1.82-1.82h10.919c1.006,0,1.82,0.814,1.82,1.82C841.764,2424.573,840.95,2425.389,839.944,2425.389z"/>
			
				<linearGradient id="SVGID_00000129890301421188560310000005228604422264254358_" gradientUnits="userSpaceOnUse" x1="1326.7639" y1="2094.3438" x2="1315.754" y2="1827.3574">
				<stop  offset="0" style="stop-color:#09005D"/>
				<stop  offset="1" style="stop-color:#1A0F91"/>
			</linearGradient>
			<path style="fill:url(#SVGID_00000129890301421188560310000005228604422264254358_);" d="M1192.12,1969.167l4.51-48.274
				c5.09-11.525,15.659-19.684,28.149-21.672c46.698-7.434,162.512-20.5,218.275,21.174l8.331,56.098L1192.12,1969.167z"/>
			
				<linearGradient id="SVGID_00000053504983522393826020000010280824165399561344_" gradientUnits="userSpaceOnUse" x1="1312.8251" y1="1693.498" x2="1367.8735" y2="2458.6729">
				<stop  offset="0" style="stop-color:#09005D"/>
				<stop  offset="1" style="stop-color:#1A0F91"/>
			</linearGradient>
			<path style="fill:url(#SVGID_00000053504983522393826020000010280824165399561344_);" d="M1337.995,1922.718
				c-10.752,2.622-21.523,2.615-32.314-0.037c-13.056-3.208-22.266-14.89-22.266-28.275l0.001-151.161h76.927l0.001,151.048
				C1360.344,1907.739,1351.115,1919.519,1337.995,1922.718z"/>
			
				<linearGradient id="SVGID_00000100340921256181015760000012216243734445525431_" gradientUnits="userSpaceOnUse" x1="2070.5894" y1="2063.6702" x2="2059.5796" y2="1796.6837">
				<stop  offset="0" style="stop-color:#09005D"/>
				<stop  offset="1" style="stop-color:#1A0F91"/>
			</linearGradient>
			<path style="fill:url(#SVGID_00000100340921256181015760000012216243734445525431_);" d="M1937.211,1969.167l4.51-48.274
				c5.09-11.525,15.659-19.684,28.149-21.672c46.699-7.434,162.512-20.5,218.276,21.174l8.331,56.098L1937.211,1969.167z"/>
			
				<linearGradient id="SVGID_00000160877471530047640200000016436182255389072783_" gradientUnits="userSpaceOnUse" x1="2054.6489" y1="1640.1299" x2="2109.6973" y2="2405.3032">
				<stop  offset="0" style="stop-color:#09005D"/>
				<stop  offset="1" style="stop-color:#1A0F91"/>
			</linearGradient>
			<path style="fill:url(#SVGID_00000160877471530047640200000016436182255389072783_);" d="M2083.085,1922.718
				c-10.751,2.622-21.523,2.615-32.314-0.037c-13.056-3.208-22.266-14.89-22.265-28.275l0.001-167.087h76.927l0.001,166.974
				C2105.435,1907.739,2096.206,1919.519,2083.085,1922.718z"/>
			
				<linearGradient id="SVGID_00000061437202074380975020000004919492937635824054_" gradientUnits="userSpaceOnUse" x1="1749.1024" y1="1267.5129" x2="1674.7861" y2="1812.4967">
				<stop  offset="0" style="stop-color:#4F52FF"/>
				<stop  offset="1" style="stop-color:#4042E2"/>
			</linearGradient>
			<path style="fill:url(#SVGID_00000061437202074380975020000004919492937635824054_);" d="M1275.603,1780.299l827.294-27.385
				c18.862-0.625,34.865-14.231,38.104-32.737c4.532-25.898,8.527-64.671,2.57-104.864c-6.775-45.706-46.089-79.658-92.494-80.763
				c-154.333-3.673-547.224-3.561-763.765,82.095c-22.902,9.059-39.889,28.633-45.688,52.474
				c-5.531,22.739-9.205,53.103-1.981,84.007C1243.481,1769.545,1258.677,1780.859,1275.603,1780.299z"/>
			<path style="fill:#91B3FA;" d="M1261.278,1737.302c-1.844,0-3.426-1.398-3.616-3.273c-0.132-1.31-3.144-32.411,4.953-62.346
				c6.154-22.75,24.154-41.042,46.976-47.738c46.091-13.524,134.157-36.514,206.115-38.531c2.015-0.057,3.684,1.527,3.739,3.536
				c0.057,2.008-1.526,3.682-3.536,3.739c-71.137,1.995-158.515,24.815-204.266,38.239c-20.41,5.989-36.502,22.333-42,42.656
				c-7.737,28.602-4.768,59.407-4.736,59.714c0.201,2-1.258,3.784-3.257,3.984
				C1261.524,1737.295,1261.401,1737.302,1261.278,1737.302z"/>
			
				<linearGradient id="SVGID_00000098188072508992890850000003139357646918941568_" gradientUnits="userSpaceOnUse" x1="1771.5172" y1="1691.9395" x2="1499.0267" y2="4235.1846">
				<stop  offset="0" style="stop-color:#4F52FF"/>
				<stop  offset="1" style="stop-color:#4042E2"/>
			</linearGradient>
			<path style="fill:url(#SVGID_00000098188072508992890850000003139357646918941568_);" d="M808.285,1950.361
				c267.273-3.417,1423.476-15.566,1759.329,24.955c28.917,3.489,52.513,24.644,58.776,52.959
				c19.845,89.716,59.771,298.136,55.039,504.729c-0.645,28.115-21.259,51.837-49.017,57.088l-766.638,145.035H1593.45
				l-816.865-162.372c-28.793-5.723-50.017-30.111-51.507-59.296c-5.309-103.938-13.609-347.814,14.5-504.791
				C745.551,1975.313,774.247,1950.797,808.285,1950.361z"/>
			<path style="fill:#FFFFFF;" d="M1859.471,2670.89h-10.918c-1.004,0-1.82-0.814-1.82-1.82c0-1.005,0.816-1.82,1.82-1.82h10.918
				c1.006,0,1.82,0.814,1.82,1.82C1861.291,2670.077,1860.477,2670.89,1859.471,2670.89z M1823.076,2670.89h-10.918
				c-1.004,0-1.82-0.814-1.82-1.82c0-1.005,0.816-1.82,1.82-1.82h10.918c1.006,0,1.82,0.814,1.82,1.82
				C1824.896,2670.077,1824.082,2670.89,1823.076,2670.89z M1786.682,2670.89h-10.919c-1.004,0-1.82-0.814-1.82-1.82
				c0-1.005,0.816-1.82,1.82-1.82h10.919c1.006,0,1.82,0.814,1.82,1.82C1788.501,2670.077,1787.687,2670.89,1786.682,2670.89z
				 M1750.287,2670.89h-10.918c-1.004,0-1.82-0.814-1.82-1.82c0-1.005,0.816-1.82,1.82-1.82h10.918c1.006,0,1.82,0.814,1.82,1.82
				C1752.106,2670.077,1751.292,2670.89,1750.287,2670.89z M1713.892,2670.89h-10.919c-1.004,0-1.82-0.814-1.82-1.82
				c0-1.005,0.816-1.82,1.82-1.82h10.919c1.006,0,1.82,0.814,1.82,1.82C1715.712,2670.077,1714.897,2670.89,1713.892,2670.89z
				 M1677.497,2670.89h-10.918c-1.004,0-1.82-0.814-1.82-1.82c0-1.005,0.816-1.82,1.82-1.82h10.918c1.005,0,1.82,0.814,1.82,1.82
				C1679.317,2670.077,1678.502,2670.89,1677.497,2670.89z M1641.102,2670.89h-10.918c-1.004,0-1.82-0.814-1.82-1.82
				c0-1.005,0.816-1.82,1.82-1.82h10.918c1.005,0,1.82,0.814,1.82,1.82C1642.922,2670.077,1642.108,2670.89,1641.102,2670.89z
				 M1604.707,2670.89h-4.756l-11.064-2.164c-0.984-0.196-1.626-1.154-1.429-2.14c0.197-0.984,1.143-1.633,2.14-1.429l10.709,2.129
				l4.4-0.036c1.006,0,1.82,0.814,1.82,1.82C1606.527,2670.077,1605.713,2670.89,1604.707,2670.89z M1884.503,2666.174
				c-0.859,0-1.621-0.608-1.786-1.482c-0.187-0.986,0.462-1.939,1.45-2.125l10.728-2.029c0.985-0.187,1.939,0.462,2.125,1.45
				c0.187,0.986-0.462,1.939-1.45,2.125l-10.728,2.03C1884.729,2666.163,1884.615,2666.174,1884.503,2666.174z M1564.257,2663.794
				c-0.117,0-0.236-0.01-0.357-0.035l-10.708-2.129c-0.984-0.196-1.626-1.153-1.429-2.14c0.196-0.985,1.135-1.64,2.14-1.429
				l10.709,2.129c0.984,0.195,1.626,1.153,1.428,2.14C1565.867,2663.196,1565.108,2663.794,1564.257,2663.794z M1920.264,2659.408
				c-0.859,0-1.621-0.607-1.786-1.482c-0.186-0.986,0.462-1.939,1.45-2.125l10.728-2.029c0.986-0.181,1.939,0.462,2.125,1.45
				c0.187,0.986-0.462,1.939-1.45,2.125l-10.728,2.03C1920.489,2659.398,1920.375,2659.408,1920.264,2659.408z M1528.56,2656.698
				c-0.117,0-0.237-0.01-0.356-0.035l-10.71-2.127c-0.984-0.195-1.626-1.153-1.429-2.138c0.194-0.986,1.142-1.635,2.14-1.431
				l10.709,2.127c0.984,0.196,1.626,1.153,1.428,2.14C1530.172,2656.1,1529.412,2656.698,1528.56,2656.698z M1956.024,2652.644
				c-0.858,0-1.621-0.608-1.786-1.482c-0.186-0.986,0.462-1.939,1.45-2.125l10.728-2.03c0.988-0.178,1.939,0.462,2.125,1.45
				c0.187,0.986-0.462,1.939-1.45,2.125l-10.728,2.029C1956.25,2652.633,1956.136,2652.644,1956.024,2652.644z M1492.864,2649.604
				c-0.117,0-0.236-0.01-0.357-0.036l-10.708-2.129c-0.985-0.196-1.626-1.154-1.429-2.14c0.196-0.984,1.137-1.64,2.14-1.429
				l10.708,2.129c0.985,0.195,1.626,1.153,1.429,2.14C1494.474,2649.005,1493.715,2649.604,1492.864,2649.604z M1991.784,2645.878
				c-0.858,0-1.621-0.608-1.786-1.482c-0.187-0.986,0.462-1.939,1.45-2.125l10.729-2.03c0.99-0.174,1.939,0.464,2.125,1.45
				c0.187,0.986-0.462,1.939-1.45,2.125l-10.728,2.029C1992.01,2645.867,1991.896,2645.878,1991.784,2645.878z M1457.167,2642.509
				c-0.118,0-0.237-0.01-0.357-0.036l-10.709-2.129c-0.984-0.196-1.626-1.153-1.428-2.14c0.195-0.985,1.144-1.632,2.14-1.429
				l10.708,2.129c0.985,0.195,1.626,1.153,1.429,2.139C1458.778,2641.909,1458.019,2642.509,1457.167,2642.509z M2027.545,2639.113
				c-0.858,0-1.621-0.608-1.786-1.482c-0.187-0.986,0.462-1.939,1.45-2.125l10.729-2.03c0.991-0.185,1.939,0.462,2.125,1.45
				c0.186,0.986-0.462,1.939-1.45,2.125l-10.728,2.029C2027.771,2639.102,2027.657,2639.113,2027.545,2639.113z M1421.471,2635.413
				c-0.118,0-0.237-0.01-0.357-0.036l-10.709-2.129c-0.984-0.196-1.626-1.153-1.428-2.14s1.139-1.638,2.14-1.429l10.708,2.129
				c0.985,0.196,1.626,1.153,1.429,2.139C1423.081,2634.814,1422.322,2635.413,1421.471,2635.413z M2063.305,2632.347
				c-0.858,0-1.621-0.608-1.786-1.482c-0.187-0.986,0.462-1.938,1.45-2.125l10.729-2.03c0.993-0.181,1.939,0.462,2.125,1.45
				c0.186,0.986-0.462,1.939-1.45,2.125l-10.728,2.03C2063.531,2632.337,2063.417,2632.347,2063.305,2632.347z M1385.775,2628.317
				c-0.118,0-0.237-0.011-0.357-0.036l-10.709-2.129c-0.984-0.196-1.626-1.153-1.428-2.14c0.194-0.984,1.146-1.63,2.14-1.429
				l10.708,2.129c0.984,0.196,1.626,1.153,1.429,2.14C1387.384,2627.718,1386.626,2628.317,1385.775,2628.317z M2099.068,2625.582
				c-0.858,0-1.621-0.608-1.786-1.482c-0.186-0.986,0.462-1.939,1.45-2.125l10.727-2.029c0.995-0.176,1.94,0.462,2.125,1.45
				c0.187,0.986-0.462,1.939-1.45,2.125l-10.727,2.03C2099.293,2625.571,2099.179,2625.582,2099.068,2625.582z M1350.078,2621.221
				c-0.118,0-0.237-0.011-0.357-0.036l-10.709-2.127c-0.984-0.195-1.626-1.153-1.428-2.14c0.196-0.986,1.155-1.638,2.138-1.428
				l10.708,2.127c0.986,0.195,1.628,1.153,1.431,2.14C1351.69,2620.622,1350.929,2621.221,1350.078,2621.221z M2134.828,2618.816
				c-0.858,0-1.621-0.608-1.786-1.482c-0.186-0.986,0.462-1.939,1.45-2.125l10.726-2.029c0.997-0.173,1.941,0.464,2.125,1.45
				c0.187,0.986-0.462,1.939-1.45,2.125l-10.727,2.029C2135.054,2618.806,2134.94,2618.816,2134.828,2618.816z M1314.382,2614.127
				c-0.118,0-0.237-0.011-0.357-0.036l-10.709-2.129c-0.984-0.195-1.626-1.153-1.429-2.139c0.196-0.985,1.148-1.629,2.14-1.429
				l10.709,2.129c0.984,0.195,1.626,1.153,1.429,2.139C1315.991,2613.528,1315.233,2614.127,1314.382,2614.127z M2170.588,2612.051
				c-0.858,0-1.621-0.608-1.786-1.482c-0.187-0.986,0.462-1.939,1.45-2.125l10.728-2.029c0.997-0.183,1.94,0.462,2.125,1.45
				c0.187,0.986-0.462,1.939-1.45,2.125l-10.729,2.03C2170.814,2612.04,2170.7,2612.051,2170.588,2612.051z M1278.685,2607.031
				c-0.117,0-0.236-0.01-0.357-0.035l-10.709-2.129c-0.984-0.196-1.626-1.154-1.429-2.14c0.194-0.986,1.141-1.636,2.14-1.428
				l10.709,2.129c0.984,0.195,1.626,1.153,1.429,2.14C1280.295,2606.432,1279.536,2607.031,1278.685,2607.031z M2206.349,2605.286
				c-0.858,0-1.621-0.608-1.786-1.482c-0.187-0.986,0.462-1.939,1.45-2.125l10.729-2.03c0.983-0.179,1.939,0.462,2.125,1.45
				c0.186,0.986-0.462,1.939-1.45,2.125l-10.728,2.03C2206.574,2605.275,2206.461,2605.286,2206.349,2605.286z M1242.989,2599.935
				c-0.117,0-0.236-0.01-0.357-0.035l-10.709-2.129c-0.984-0.196-1.626-1.154-1.429-2.14c0.196-0.985,1.136-1.628,2.14-1.429
				l10.709,2.129c0.984,0.195,1.626,1.153,1.429,2.14C1244.6,2599.336,1243.84,2599.935,1242.989,2599.935z M2242.109,2598.52
				c-0.858,0-1.621-0.608-1.786-1.482c-0.187-0.986,0.462-1.939,1.45-2.125l10.729-2.03c0.984-0.176,1.939,0.464,2.125,1.45
				c0.186,0.986-0.462,1.939-1.45,2.125l-10.728,2.029C2242.335,2598.51,2242.221,2598.52,2242.109,2598.52z M1207.292,2592.839
				c-0.117,0-0.236-0.01-0.357-0.035l-10.709-2.129c-0.984-0.196-1.626-1.153-1.429-2.14c0.195-0.984,1.143-1.635,2.14-1.429
				l10.709,2.129c0.984,0.196,1.626,1.153,1.429,2.14C1208.902,2592.24,1208.143,2592.839,1207.292,2592.839z M2277.87,2591.755
				c-0.859,0-1.621-0.608-1.786-1.482c-0.187-0.986,0.462-1.939,1.45-2.125l10.729-2.03c0.986-0.187,1.939,0.464,2.125,1.45
				c0.187,0.986-0.462,1.938-1.45,2.125l-10.729,2.03C2278.095,2591.744,2277.982,2591.755,2277.87,2591.755z M1171.596,2585.743
				c-0.117,0-0.236-0.011-0.357-0.035l-10.709-2.129c-0.984-0.196-1.626-1.153-1.429-2.14c0.195-0.985,1.137-1.642,2.14-1.429
				l10.709,2.129c0.984,0.196,1.626,1.153,1.429,2.14C1173.206,2585.144,1172.447,2585.743,1171.596,2585.743z M2313.63,2584.99
				c-0.859,0-1.621-0.608-1.786-1.482c-0.186-0.986,0.462-1.939,1.45-2.125l10.728-2.03c0.988-0.183,1.939,0.462,2.125,1.45
				c0.187,0.986-0.462,1.939-1.45,2.125l-10.729,2.03C2313.856,2584.979,2313.742,2584.99,2313.63,2584.99z M1135.899,2578.649
				c-0.117,0-0.236-0.01-0.357-0.036l-10.709-2.129c-0.984-0.196-1.626-1.154-1.429-2.14c0.195-0.984,1.145-1.635,2.14-1.429
				l10.709,2.129c0.984,0.195,1.626,1.153,1.429,2.14C1137.511,2578.05,1136.75,2578.649,1135.899,2578.649z M2349.391,2578.224
				c-0.859,0-1.621-0.608-1.786-1.482c-0.186-0.986,0.462-1.939,1.45-2.125l10.728-2.029c0.99-0.178,1.938,0.462,2.125,1.45
				c0.187,0.986-0.462,1.939-1.45,2.125l-10.729,2.029C2349.616,2578.213,2349.503,2578.224,2349.391,2578.224z M1100.203,2571.553
				c-0.117,0-0.236-0.01-0.357-0.036l-10.709-2.129c-0.984-0.196-1.626-1.153-1.429-2.14c0.197-0.984,1.139-1.642,2.14-1.429
				l10.709,2.129c0.984,0.195,1.626,1.153,1.429,2.14C1101.813,2570.954,1101.054,2571.553,1100.203,2571.553z M2385.151,2571.458
				c-0.858,0-1.621-0.608-1.786-1.482c-0.187-0.986,0.462-1.939,1.45-2.125l10.728-2.029c0.992-0.174,1.939,0.462,2.125,1.45
				c0.187,0.986-0.462,1.939-1.45,2.125l-10.729,2.029C2385.377,2571.448,2385.263,2571.458,2385.151,2571.458z M2420.912,2564.693
				c-0.858,0-1.621-0.608-1.786-1.482c-0.187-0.986,0.462-1.939,1.45-2.125l10.729-2.029c0.993-0.185,1.939,0.462,2.125,1.45
				c0.187,0.986-0.462,1.939-1.45,2.125l-10.728,2.03C2421.137,2564.683,2421.024,2564.693,2420.912,2564.693z M1064.506,2564.457
				c-0.117,0-0.236-0.01-0.357-0.036l-10.709-2.129c-0.984-0.196-1.626-1.153-1.429-2.14c0.194-0.985,1.146-1.634,2.14-1.429
				l10.709,2.129c0.984,0.196,1.626,1.153,1.429,2.139C1066.116,2563.858,1065.358,2564.457,1064.506,2564.457z M2456.672,2557.927
				c-0.858,0-1.621-0.607-1.786-1.482c-0.187-0.986,0.462-1.939,1.45-2.125l10.729-2.03c0.995-0.181,1.94,0.462,2.125,1.45
				c0.187,0.986-0.462,1.939-1.45,2.125l-10.728,2.03C2456.898,2557.917,2456.784,2557.927,2456.672,2557.927z M1028.81,2557.361
				c-0.117,0-0.236-0.011-0.357-0.036l-10.709-2.129c-0.984-0.196-1.626-1.153-1.429-2.14c0.197-0.984,1.139-1.64,2.14-1.429
				l10.709,2.129c0.984,0.196,1.626,1.153,1.429,2.139C1030.422,2556.762,1029.661,2557.361,1028.81,2557.361z M2492.433,2551.163
				c-0.859,0-1.621-0.608-1.786-1.482c-0.187-0.986,0.462-1.939,1.45-2.125l10.729-2.029c0.997-0.177,1.94,0.462,2.125,1.45
				c0.187,0.986-0.462,1.939-1.45,2.126l-10.728,2.029C2492.658,2551.152,2492.545,2551.163,2492.433,2551.163z M993.113,2550.265
				c-0.117,0-0.236-0.011-0.357-0.036l-10.709-2.129c-0.984-0.196-1.626-1.153-1.429-2.14c0.195-0.984,1.148-1.632,2.14-1.429
				l10.709,2.129c0.984,0.196,1.626,1.153,1.429,2.14C994.723,2549.666,993.965,2550.265,993.113,2550.265z M2528.193,2544.397
				c-0.859,0-1.621-0.608-1.786-1.482c-0.187-0.986,0.462-1.939,1.45-2.125l10.728-2.03c0.983-0.172,1.939,0.464,2.125,1.45
				c0.187,0.986-0.462,1.939-1.45,2.125l-10.729,2.029C2528.419,2544.386,2528.305,2544.397,2528.193,2544.397z M957.417,2543.169
				c-0.117,0-0.236-0.011-0.356-0.036l-10.71-2.127c-0.984-0.195-1.626-1.153-1.429-2.139c0.194-0.985,1.141-1.64,2.14-1.429
				l10.709,2.127c0.984,0.196,1.626,1.153,1.428,2.138C959.029,2542.57,958.268,2543.169,957.417,2543.169z M2563.954,2537.632
				c-0.859,0-1.621-0.608-1.786-1.482c-0.186-0.986,0.462-1.939,1.45-2.125l10.728-2.031c0.984-0.183,1.939,0.462,2.125,1.45
				c0.187,0.986-0.462,1.939-1.45,2.125l-10.729,2.031C2564.179,2537.621,2564.065,2537.632,2563.954,2537.632z M921.72,2536.075
				c-0.117,0-0.236-0.011-0.357-0.036l-10.708-2.129c-0.984-0.196-1.626-1.153-1.429-2.14c0.195-0.985,1.135-1.631,2.14-1.428
				l10.709,2.129c0.984,0.195,1.626,1.153,1.428,2.14C923.331,2535.476,922.572,2536.075,921.72,2536.075z M2599.714,2530.866
				c-0.858,0-1.621-0.608-1.786-1.48c-0.187-0.988,0.462-1.94,1.45-2.127l10.728-2.031c0.986-0.177,1.939,0.462,2.125,1.45
				c0.187,0.986-0.462,1.939-1.45,2.125l-10.729,2.031C2599.94,2530.856,2599.826,2530.866,2599.714,2530.866z M886.024,2528.979
				c-0.117,0-0.237-0.01-0.357-0.035l-10.708-2.129c-0.984-0.196-1.626-1.153-1.429-2.14c0.195-0.986,1.142-1.638,2.14-1.428
				l10.709,2.129c0.984,0.195,1.626,1.153,1.429,2.14C887.634,2528.38,886.875,2528.979,886.024,2528.979z M850.327,2521.883
				c-0.117,0-0.236-0.01-0.357-0.035l-10.708-2.129c-0.985-0.195-1.626-1.153-1.429-2.14c0.195-0.984,1.135-1.629,2.14-1.429
				l10.709,2.129c0.984,0.196,1.626,1.153,1.429,2.14C851.938,2521.284,851.179,2521.883,850.327,2521.883z M814.631,2514.787
				c-0.117,0-0.237-0.011-0.357-0.035l-10.708-2.129c-0.985-0.195-1.626-1.153-1.429-2.14c0.194-0.984,1.144-1.637,2.14-1.429
				l10.708,2.129c0.985,0.196,1.626,1.153,1.429,2.14C816.241,2514.188,815.482,2514.787,814.631,2514.787z M2615.738,2507.551
				c0,0-0.006,0-0.007,0c-1.006-0.004-1.816-0.823-1.813-1.827l0.014-6.593l-0.007-4.315c-0.002-1.006,0.811-1.823,1.815-1.825
				h0.005c1.002,0,1.818,0.812,1.82,1.814l0.007,4.324l-0.014,6.609C2617.554,2506.74,2616.74,2507.551,2615.738,2507.551z
				 M790.357,2497.83c-0.965,0-1.77-0.759-1.816-1.733c-0.167-3.504-0.336-7.147-0.503-10.917c-0.044-1.004,0.734-1.854,1.738-1.898
				c1.02-0.034,1.855,0.734,1.898,1.738c0.167,3.764,0.336,7.402,0.503,10.902c0.048,1.004-0.727,1.857-1.731,1.905
				C790.417,2497.83,790.386,2497.83,790.357,2497.83z M2615.459,2471.156c-0.99,0-1.8-0.791-1.82-1.784
				c-0.071-3.636-0.155-7.267-0.249-10.892c-0.025-1.006,0.768-1.841,1.772-1.867c1.098-0.075,1.839,0.766,1.868,1.772
				c0.094,3.636,0.177,7.274,0.249,10.917c0.02,1.004-0.78,1.836-1.784,1.855
				C2615.482,2471.156,2615.469,2471.156,2615.459,2471.156z M788.792,2461.458c-0.972,0-1.779-0.769-1.817-1.749l-0.41-10.919
				c-0.037-1.004,0.748-1.848,1.752-1.883c0.958-0.036,1.848,0.746,1.884,1.752l0.411,10.908c0.039,1.004-0.743,1.85-1.747,1.889
				C788.84,2461.458,788.817,2461.458,788.792,2461.458z M2614.35,2434.804c-0.97,0-1.777-0.766-1.816-1.745
				c-0.149-3.629-0.311-7.252-0.483-10.867c-0.048-1.004,0.727-1.857,1.731-1.905c1.002-0.08,1.857,0.725,1.905,1.731
				c0.173,3.625,0.334,7.256,0.483,10.892c0.041,1.004-0.739,1.852-1.743,1.893
				C2614.402,2434.804,2614.375,2434.804,2614.35,2434.804z M787.541,2425.076c-0.981,0-1.789-0.778-1.82-1.764l-0.316-10.92
				c-0.026-1.006,0.764-1.843,1.768-1.871c1.031,0.021,1.843,0.762,1.871,1.768l0.316,10.913c0.03,1.004-0.761,1.843-1.764,1.875
				C787.577,2425.076,787.559,2425.076,787.541,2425.076z M2612.481,2398.476c-0.955,0-1.756-0.743-1.815-1.708
				c-0.224-3.639-0.458-7.268-0.702-10.888c-0.067-1.004,0.692-1.871,1.694-1.939c1.043-0.021,1.871,0.691,1.939,1.693
				c0.244,3.627,0.478,7.263,0.702,10.91c0.062,1.004-0.702,1.866-1.704,1.928
				C2612.555,2398.475,2612.518,2398.476,2612.481,2398.476z M786.601,2388.688c-0.986,0-1.797-0.789-1.818-1.781l-0.219-10.925
				c-0.017-1.004,0.78-1.834,1.786-1.854c0.959-0.078,1.834,0.782,1.853,1.786l0.219,10.915c0.021,1.006-0.777,1.838-1.781,1.859
				C786.627,2388.688,786.615,2388.688,786.601,2388.688z M2609.902,2362.16c-0.939,0-1.737-0.721-1.813-1.674
				c-0.293-3.636-0.594-7.261-0.903-10.875c-0.085-1,0.656-1.882,1.658-1.968c0.978-0.123,1.882,0.657,1.968,1.658
				c0.309,3.618,0.613,7.251,0.906,10.894c0.08,1-0.666,1.878-1.669,1.96C2610,2362.158,2609.95,2362.16,2609.902,2362.16z
				 M785.997,2352.292c-0.995,0-1.807-0.801-1.82-1.799l-0.115-10.925c-0.009-1.004,0.798-1.827,1.804-1.836
				c0.005,0,0.011,0,0.016,0c0.997,0,1.811,0.803,1.82,1.804l0.115,10.915c0.012,1.004-0.793,1.829-1.798,1.841
				C786.011,2352.292,786.004,2352.292,785.997,2352.292z M2606.666,2325.893c-0.926,0-1.717-0.702-1.809-1.642
				c-0.355-3.633-0.719-7.252-1.091-10.856c-0.103-1,0.626-1.894,1.625-1.997c1.006-0.102,1.892,0.624,1.997,1.624
				c0.372,3.611,0.736,7.239,1.091,10.874c0.098,1-0.633,1.891-1.633,1.989C2606.785,2325.889,2606.724,2325.893,2606.666,2325.893z
				 M785.743,2315.889c-1.004,0-1.818-0.812-1.82-1.816l-0.005-6.252l0.004-4.663c0.002-1.004,0.816-1.823,1.82-1.823h0.002
				c1.006,0.002,1.82,0.812,1.818,1.816l-0.004,4.67l0.005,6.245c0.002,1.006-0.812,1.821-1.816,1.823
				C785.746,2315.889,785.745,2315.889,785.743,2315.889z M2602.82,2289.686c-0.914,0-1.699-0.684-1.805-1.612
				c-0.418-3.635-0.841-7.247-1.271-10.839c-0.119-0.999,0.594-1.905,1.591-2.024c1.025-0.139,1.905,0.595,2.024,1.591
				c0.43,3.599,0.853,7.219,1.271,10.856c0.116,0.999-0.601,1.902-1.599,2.015
				C2602.958,2289.683,2602.889,2289.686,2602.82,2289.686z M785.876,2279.507c-0.005,0-0.011,0-0.018,0
				c-1.004-0.009-1.811-0.832-1.802-1.837c0.034-3.627,0.075-7.265,0.121-10.91c0.012-0.997,0.825-1.797,1.82-1.797
				c0.007,0,0.014,0,0.023,0c1.004,0.012,1.809,0.837,1.797,1.843c-0.046,3.641-0.087,7.275-0.121,10.899
				C787.687,2278.704,786.873,2279.507,785.876,2279.507z M2598.388,2253.545c-0.901,0-1.683-0.668-1.802-1.583
				c-0.474-3.633-0.954-7.24-1.438-10.819c-0.133-0.997,0.565-1.912,1.561-2.047c1.023-0.135,1.912,0.565,2.047,1.56
				c0.483,3.585,0.963,7.198,1.438,10.833c0.132,0.997-0.573,1.91-1.567,2.04C2598.546,2253.54,2598.466,2253.545,2598.388,2253.545
				z M786.438,2243.13c-0.012,0-0.027,0-0.041,0c-1.004-0.023-1.8-0.854-1.779-1.859c0.08-3.64,0.167-7.279,0.26-10.92
				c0.025-1.006,0.826-1.859,1.866-1.773c1.004,0.027,1.798,0.862,1.773,1.866c-0.092,3.638-0.179,7.273-0.259,10.906
				C788.234,2242.341,787.424,2243.13,786.438,2243.13z M2593.405,2217.479c-0.89,0-1.667-0.652-1.798-1.557
				c-0.53-3.632-1.063-7.231-1.6-10.798c-0.149-0.993,0.537-1.919,1.531-2.07c1.002-0.131,1.919,0.538,2.07,1.53
				c0.537,3.571,1.07,7.176,1.6,10.812c0.146,0.995-0.544,1.919-1.537,2.063C2593.581,2217.474,2593.492,2217.479,2593.405,2217.479
				z M787.49,2206.742c-0.023,0-0.044,0-0.068-0.002c-1.004-0.036-1.789-0.88-1.752-1.884c0.131-3.646,0.272-7.29,0.421-10.931
				c0.043-1.006,0.97-1.784,1.892-1.743c1.004,0.041,1.784,0.888,1.743,1.893c-0.149,3.634-0.29,7.273-0.421,10.913
				C789.27,2205.971,788.463,2206.742,787.49,2206.742z M2587.891,2181.488c-0.878,0-1.651-0.636-1.795-1.53
				c-0.584-3.634-1.171-7.227-1.756-10.774c-0.163-0.992,0.507-1.928,1.498-2.092c1.008-0.169,1.928,0.508,2.092,1.498
				c0.589,3.554,1.175,7.151,1.76,10.789c0.16,0.994-0.516,1.927-1.507,2.087
				C2588.084,2181.481,2587.987,2181.488,2587.891,2181.488z M789.103,2170.349c-0.032,0-0.066-0.002-0.098-0.002
				c-1.004-0.053-1.775-0.91-1.722-1.914c0.195-3.654,0.398-7.3,0.611-10.934c0.059-1.004,0.903-1.77,1.923-1.709
				c1.004,0.059,1.768,0.92,1.709,1.923c-0.213,3.627-0.416,7.266-0.608,10.913C790.868,2169.597,790.065,2170.349,789.103,2170.349
				z M2581.852,2145.576c-0.867,0-1.636-0.622-1.791-1.505c-0.636-3.64-1.274-7.222-1.909-10.748
				c-0.177-0.988,0.48-1.935,1.47-2.113c0.992-0.183,1.936,0.479,2.113,1.469c0.634,3.529,1.272,7.119,1.912,10.762
				c0.172,0.99-0.489,1.934-1.479,2.108C2582.062,2145.568,2581.955,2145.576,2581.852,2145.576z M791.387,2133.997
				c-0.044,0-0.089-0.002-0.135-0.006c-1.002-0.073-1.756-0.945-1.681-1.948c0.267-3.65,0.544-7.284,0.833-10.902
				c0.08-1,0.933-1.722,1.96-1.669c1.002,0.082,1.749,0.958,1.669,1.96c-0.29,3.609-0.567,7.234-0.833,10.878
				C793.13,2133.267,792.332,2133.997,791.387,2133.997z M2575.302,2109.757c-0.856,0-1.621-0.608-1.786-1.479
				c-0.697-3.657-1.385-7.233-2.065-10.721c-0.192-0.986,0.451-1.942,1.438-2.134c0.972-0.206,1.942,0.451,2.135,1.438
				c0.681,3.495,1.372,7.074,2.068,10.735c0.188,0.988-0.46,1.941-1.446,2.129
				C2575.529,2109.747,2575.414,2109.757,2575.302,2109.757z M794.472,2097.725c-0.059,0-0.119-0.004-0.179-0.009
				c-1-0.098-1.731-0.988-1.633-1.989c0.357-3.652,0.729-7.279,1.114-10.881c0.107-0.999,0.981-1.722,2.003-1.615
				c0.999,0.106,1.722,1.002,1.616,2.003c-0.382,3.592-0.754,7.208-1.111,10.849
				C796.188,2097.023,795.397,2097.725,794.472,2097.725z M2568.222,2074.034c-0.846,0-1.603-0.592-1.781-1.452
				c-0.764-3.705-1.509-7.272-2.232-10.689c-0.208-0.983,0.421-1.95,1.404-2.157c0.99-0.205,1.948,0.421,2.157,1.404
				c0.723,3.425,1.47,6.995,2.236,10.707c0.203,0.984-0.43,1.946-1.414,2.15C2568.467,2074.022,2568.344,2074.034,2568.222,2074.034
				z M798.573,2061.556c-0.078,0-0.157-0.006-0.237-0.016c-0.997-0.13-1.699-1.041-1.569-2.038c0.474-3.65,0.967-7.265,1.473-10.845
				c0.142-0.994,1.064-1.674,2.058-1.546c0.995,0.14,1.687,1.062,1.546,2.058c-0.507,3.567-0.995,7.167-1.47,10.803
				C800.256,2060.887,799.474,2061.556,798.573,2061.556z M2556.552,2042.338c-0.07,0-0.142-0.004-0.213-0.012
				c-3.508-0.412-7.119-0.819-10.835-1.224c-0.999-0.109-1.72-1.008-1.612-2.006c0.108-0.999,0.983-1.717,2.006-1.612
				c3.727,0.405,7.349,0.816,10.864,1.228c0.999,0.117,1.713,1.022,1.596,2.019
				C2558.249,2041.656,2557.464,2042.338,2556.552,2042.338z M2520.353,2038.567c-0.057,0-0.112-0.002-0.169-0.007
				c-3.549-0.329-7.17-0.654-10.867-0.977c-1.002-0.087-1.741-0.97-1.654-1.971c0.089-1.002,0.981-1.729,1.971-1.655
				c3.703,0.324,7.332,0.649,10.885,0.977c1.002,0.093,1.738,0.979,1.646,1.98
				C2522.074,2037.858,2521.281,2038.567,2520.353,2038.567z M2484.083,2035.514c-0.046,0-0.094-0.002-0.14-0.005
				c-3.572-0.274-7.199-0.546-10.883-0.814c-1.002-0.073-1.756-0.944-1.683-1.946c0.073-1.002,0.961-1.743,1.946-1.683
				c3.691,0.268,7.322,0.54,10.897,0.814c1.002,0.076,1.752,0.951,1.676,1.953
				C2485.823,2034.787,2485.025,2035.514,2484.083,2035.514z M2447.774,2032.948c-0.041,0-0.08-0.001-0.121-0.003l-10.892-0.697
				c-1.002-0.062-1.765-0.926-1.703-1.93c0.062-1.002,0.878-1.743,1.93-1.703l10.902,0.697c1.002,0.066,1.763,0.933,1.697,1.936
				C2449.524,2032.209,2448.725,2032.948,2447.774,2032.948z M2411.443,2030.737c-0.036,0-0.07-0.002-0.105-0.004l-10.899-0.606
				c-1.004-0.053-1.772-0.911-1.717-1.915c0.052-1.006,0.914-1.754,1.916-1.717l10.906,0.606c1.002,0.055,1.77,0.915,1.713,1.919
				C2413.204,2029.989,2412.401,2030.737,2411.443,2030.737z M2375.095,2028.807c-0.03,0-0.062,0-0.093-0.002l-10.902-0.533
				c-1.004-0.048-1.779-0.901-1.731-1.905c0.048-1.002,0.917-1.784,1.905-1.731l10.91,0.533c1.004,0.05,1.777,0.905,1.727,1.909
				C2376.861,2028.05,2376.058,2028.807,2375.095,2028.807z M2338.739,2027.099c-0.026,0-0.055,0-0.082-0.002l-10.906-0.473
				c-1.004-0.043-1.783-0.892-1.74-1.896c0.042-1.004,0.938-1.774,1.896-1.74l10.91,0.473c1.004,0.044,1.782,0.894,1.738,1.898
				C2340.512,2026.337,2339.707,2027.099,2338.739,2027.099z M2302.376,2025.582c-0.025,0-0.048,0-0.073-0.002l-10.91-0.423
				c-1.004-0.037-1.788-0.883-1.749-1.887c0.037-1.006,0.956-1.831,1.887-1.749l10.913,0.423c1.004,0.039,1.786,0.885,1.747,1.889
				C2304.153,2024.814,2303.348,2025.582,2302.376,2025.582z M804.002,2025.561c-0.103,0-0.208-0.009-0.313-0.027
				c-0.99-0.172-1.654-1.114-1.482-2.104l0.606-3.435c0.558-3.135,3.146-5.356,6.291-5.401l0.945-0.012
				c1.109-0.144,1.832,0.784,1.85,1.79c0.016,1.004-0.785,1.832-1.79,1.85l-0.949,0.012c-1.404,0.019-2.513,0.984-2.765,2.402
				l-0.602,3.416C805.639,2024.937,804.871,2025.561,804.002,2025.561z M2266.002,2024.224c-0.023,0-0.044,0-0.065-0.002
				l-10.91-0.38c-1.006-0.034-1.792-0.876-1.756-1.88c0.036-1.004,0.883-1.825,1.88-1.756l10.913,0.38
				c1.004,0.035,1.79,0.878,1.754,1.882C2267.785,2023.451,2266.976,2024.224,2266.002,2024.224z M2229.627,2023.003
				c-0.02,0-0.041,0-0.06-0.002l-10.911-0.343c-1.004-0.03-1.793-0.871-1.763-1.875c0.032-1.004,0.849-1.74,1.876-1.763
				l10.915,0.345c1.004,0.032,1.793,0.871,1.759,1.877C2231.413,2022.226,2230.604,2023.003,2229.627,2023.003z M2193.244,2021.9
				c-0.017,0-0.037,0-0.055,0l-10.911-0.309c-1.006-0.028-1.797-0.866-1.77-1.869c0.029-1.006,0.86-1.85,1.87-1.77l10.918,0.309
				c1.004,0.03,1.795,0.867,1.766,1.873C2195.032,2021.119,2194.224,2021.9,2193.244,2021.9z M2156.861,2020.906
				c-0.016,0-0.032,0-0.048,0l-10.913-0.281c-1.004-0.026-1.798-0.86-1.773-1.866c0.027-1.002,0.702-1.742,1.866-1.774l10.917,0.281
				c1.004,0.027,1.799,0.864,1.772,1.868C2158.653,2020.123,2157.843,2020.906,2156.861,2020.906z M2120.473,2020.007
				c-0.014,0-0.029,0-0.042,0l-10.913-0.253c-1.006-0.023-1.802-0.856-1.779-1.861c0.023-1.002,0.707-1.782,1.861-1.779
				l10.917,0.253c1.004,0.025,1.801,0.858,1.777,1.862C2122.27,2019.22,2121.459,2020.007,2120.473,2020.007z M2084.087,2019.193
				c-0.013,0-0.025,0-0.039,0l-10.915-0.227c-1.004-0.021-1.802-0.851-1.783-1.857c0.021-1.006,0.953-1.809,1.857-1.783
				l10.918,0.227c1.004,0.021,1.802,0.853,1.781,1.859C2085.885,2018.404,2085.075,2019.193,2084.087,2019.193z M2047.697,2018.459
				c-0.011,0-0.023,0-0.035,0l-10.915-0.206c-1.004-0.019-1.804-0.848-1.786-1.853c0.018-1.004,0.785-1.894,1.854-1.786
				l10.918,0.206c1.004,0.02,1.804,0.849,1.784,1.855C2049.498,2017.667,2048.687,2018.459,2047.697,2018.459z M835.572,2017.903
				c-0.995,0-1.807-0.8-1.82-1.799c-0.012-1.004,0.793-1.828,1.798-1.841l10.924-0.132c0.86-0.025,1.828,0.793,1.841,1.799
				c0.013,1.004-0.792,1.829-1.798,1.841l-10.924,0.132C835.586,2017.903,835.579,2017.903,835.572,2017.903z M2011.308,2017.798
				c-0.011,0-0.021,0-0.032,0l-10.915-0.184c-1.004-0.018-1.806-0.844-1.79-1.85c0.016-0.995,0.828-1.79,1.82-1.79
				c0.009,0,0.019,0,0.03,0l10.918,0.184c1.004,0.018,1.806,0.846,1.788,1.852
				C2013.11,2017.004,2012.299,2017.798,2011.308,2017.798z M871.988,2017.475c-0.995,0-1.807-0.802-1.82-1.799
				c-0.011-1.005,0.794-1.83,1.799-1.841l10.924-0.124c1.027-0.105,1.831,0.793,1.841,1.798c0.01,1.006-0.794,1.829-1.798,1.841
				l-10.924,0.125C872.003,2017.475,871.996,2017.475,871.988,2017.475z M1974.918,2017.203c-0.009,0-0.018,0-0.029,0l-10.917-0.165
				c-1.006-0.016-1.807-0.843-1.793-1.847c0.016-1.005,0.728-1.853,1.846-1.793l10.92,0.165c1.004,0.016,1.806,0.842,1.791,1.846
				C1976.722,2016.407,1975.911,2017.203,1974.918,2017.203z M908.401,2017.075c-0.997,0-1.809-0.802-1.82-1.8
				c-0.011-1.004,0.794-1.829,1.8-1.839l10.922-0.115c1.114,0.035,1.827,0.8,1.837,1.802c0.011,1.004-0.796,1.827-1.802,1.838
				l-10.918,0.115C908.413,2017.075,908.408,2017.075,908.401,2017.075z M944.812,2016.696c-0.997,0-1.809-0.803-1.82-1.802
				c-0.01-1.004,0.796-1.827,1.802-1.838l10.92-0.109c1.12,0.073,1.827,0.8,1.838,1.802c0.011,1.004-0.796,1.827-1.802,1.838
				l-10.92,0.108C944.824,2016.696,944.817,2016.696,944.812,2016.696z M1938.523,2016.67c-0.007,0-0.016,0-0.025,0l-10.918-0.149
				c-1.004-0.014-1.809-0.839-1.795-1.845c0.014-0.997,0.826-1.795,1.82-1.795c0.007,0,0.016,0,0.025,0l10.918,0.149
				c1.006,0.014,1.809,0.84,1.795,1.844C1940.329,2015.872,1939.517,2016.67,1938.523,2016.67z M981.223,2016.341
				c-0.997,0-1.811-0.803-1.82-1.802c-0.009-1.006,0.798-1.828,1.802-1.837l10.924-0.102c1.121,0.087,1.827,0.8,1.836,1.804
				s-0.798,1.827-1.804,1.836l-10.92,0.101C981.233,2016.341,981.228,2016.341,981.223,2016.341z M1902.132,2016.193
				c-0.007,0-0.014,0-0.023,0l-10.918-0.133c-1.004-0.012-1.809-0.837-1.797-1.841c0.012-1.007,0.795-1.887,1.841-1.798l10.92,0.133
				c1.004,0.012,1.809,0.837,1.797,1.841C1903.939,2015.394,1903.127,2016.193,1902.132,2016.193z M1017.632,2016.01
				c-0.999,0-1.811-0.805-1.82-1.804c-0.009-1.004,0.798-1.827,1.804-1.836l10.922-0.096c0.006,0,0.011,0,0.016,0
				c0.999,0,1.811,0.805,1.82,1.804c0.009,1.005-0.8,1.827-1.804,1.836l-10.922,0.096
				C1017.643,2016.01,1017.637,2016.01,1017.632,2016.01z M1865.737,2015.767c-0.005,0-0.012,0-0.019,0l-10.918-0.117
				c-1.004-0.01-1.811-0.833-1.8-1.839c0.012-1.006,0.889-1.853,1.839-1.8l10.918,0.117c1.006,0.011,1.811,0.835,1.8,1.839
				C1867.546,2014.965,1866.734,2015.767,1865.737,2015.767z M1054.038,2015.701c-0.999,0-1.811-0.805-1.82-1.804
				c-0.009-1.006,0.8-1.827,1.804-1.836l10.922-0.089c0.005,0,0.009,0,0.014,0c0.999,0,1.813,0.805,1.82,1.806
				c0.007,1.006-0.8,1.827-1.806,1.834l-10.918,0.089C1054.048,2015.701,1054.043,2015.701,1054.038,2015.701z M1090.445,2015.415
				c-0.999,0-1.813-0.805-1.82-1.807c-0.007-1.004,0.801-1.825,1.806-1.832l10.92-0.082c0.005,0,0.009,0,0.014,0
				c0.999,0,1.813,0.805,1.82,1.806c0.007,1.006-0.802,1.827-1.806,1.834l-10.92,0.082
				C1090.454,2015.415,1090.448,2015.415,1090.445,2015.415z M1829.344,2015.394c-0.005,0-0.012,0-0.018,0l-10.917-0.103
				c-1.006-0.009-1.813-0.832-1.804-1.836c0.009-1,0.823-1.804,1.82-1.804c0.005,0,0.01,0,0.018,0l10.918,0.103
				c1.006,0.01,1.811,0.833,1.802,1.838C1831.153,2014.59,1830.341,2015.394,1829.344,2015.394z M1126.852,2015.154
				c-0.999,0-1.813-0.807-1.82-1.807c-0.007-1.004,0.801-1.825,1.807-1.832l10.92-0.075c0.988-0.089,1.825,0.803,1.832,1.807
				c0.007,1.006-0.803,1.825-1.807,1.832l-10.92,0.075C1126.861,2015.154,1126.856,2015.154,1126.852,2015.154z M1792.947,2015.067
				c-0.005,0-0.01,0-0.016,0l-10.917-0.089c-1.006-0.007-1.813-0.828-1.806-1.834c0.007-1,0.821-1.806,1.82-1.806
				c0.005,0,0.009,0,0.014,0l10.918,0.089c1.006,0.009,1.815,0.83,1.806,1.836
				C1794.758,2014.262,1793.946,2015.067,1792.947,2015.067z M1163.257,2014.912c-1,0-1.813-0.807-1.82-1.807
				c-0.007-1.006,0.803-1.825,1.807-1.832l10.922-0.068c0.004,0,0.007,0,0.011,0c1,0,1.814,0.809,1.82,1.809
				c0.005,1.006-0.803,1.825-1.809,1.83l-10.918,0.068C1163.265,2014.912,1163.261,2014.912,1163.257,2014.912z M1756.554,2014.784
				c-0.004,0-0.009,0-0.012,0l-10.918-0.077c-1.004-0.007-1.814-0.826-1.807-1.832c0.007-1.006,0.881-1.941,1.832-1.807
				l10.919,0.076c1.006,0.007,1.815,0.828,1.807,1.834C1758.367,2013.977,1757.553,2014.784,1756.554,2014.784z M1199.661,2014.695
				c-1,0-1.815-0.807-1.82-1.809c-0.005-1.006,0.803-1.825,1.809-1.83l10.922-0.062c0.004,0,0.007,0,0.011,0
				c1,0,1.815,0.809,1.82,1.809c0.005,1.006-0.805,1.825-1.809,1.83l-10.922,0.062
				C1199.668,2014.695,1199.665,2014.695,1199.661,2014.695z M1720.159,2014.542c-0.004,0-0.007,0-0.01,0l-10.918-0.064
				c-1.004-0.005-1.814-0.824-1.809-1.83c0.007-1.004,0.827-1.757,1.83-1.809l10.919,0.064c1.006,0.005,1.815,0.825,1.809,1.83
				C1721.974,2013.734,1721.16,2014.542,1720.159,2014.542z M1236.067,2014.502c-1,0-1.814-0.809-1.82-1.811
				c-0.005-1.006,0.805-1.823,1.811-1.828l10.922-0.053c0.004,0,0.007,0,0.009,0c1,0,1.814,0.809,1.82,1.811
				c0.005,1.006-0.805,1.823-1.811,1.828l-10.922,0.053C1236.072,2014.502,1236.071,2014.502,1236.067,2014.502z M1683.763,2014.342
				c-0.003,0-0.005,0-0.009,0l-10.918-0.053c-1.004-0.005-1.816-0.823-1.811-1.829c0.005-1.002,0.819-1.811,1.82-1.811
				c0.004,0,0.005,0,0.009,0l10.919,0.053c1.005,0.005,1.816,0.825,1.811,1.829
				C1685.577,2013.533,1684.763,2014.342,1683.763,2014.342z M1272.472,2014.331c-1,0-1.816-0.809-1.82-1.813
				c-0.005-1.004,0.807-1.823,1.811-1.827l10.922-0.044c0.003,0,0.005,0,0.005,0c1.004,0,1.818,0.81,1.822,1.812
				c0.004,1.006-0.809,1.823-1.812,1.827l-10.918,0.044C1272.478,2014.331,1272.474,2014.331,1272.472,2014.331z M1308.878,2014.189
				c-1.002,0-1.816-0.81-1.82-1.814c-0.003-1.004,0.809-1.822,1.813-1.825l10.92-0.037c0.004,0,0.005,0,0.005,0
				c1.004,0,1.818,0.81,1.822,1.814c0.004,1.004-0.808,1.822-1.812,1.825l-10.92,0.037
				C1308.881,2014.189,1308.88,2014.189,1308.878,2014.189z M1647.368,2014.178h-0.005l-10.92-0.043
				c-1.006-0.004-1.816-0.821-1.813-1.827c0.004-1.002,0.817-1.813,1.82-1.813c0,0,0.005,0,0.007,0l10.919,0.043
				c1.006,0.004,1.816,0.821,1.812,1.827C1649.184,2013.368,1648.37,2014.178,1647.368,2014.178z M1345.282,2014.068
				c-1.002,0-1.816-0.812-1.82-1.814c-0.004-1.006,0.809-1.821,1.814-1.825l10.924-0.03h0.004c1.002,0,1.818,0.812,1.82,1.815
				c0.002,1.006-0.811,1.823-1.815,1.825l-10.922,0.03H1345.282z M1610.973,2014.05h-0.005l-10.918-0.032
				c-1.006-0.004-1.818-0.819-1.815-1.825c0.004-1.004,0.818-1.814,1.82-1.814h0.005l10.918,0.032
				c1.006,0.003,1.818,0.819,1.814,1.825C1612.789,2013.238,1611.975,2014.05,1610.973,2014.05z M1381.685,2013.974
				c-1.004,0-1.818-0.812-1.82-1.817c-0.002-1.005,0.811-1.821,1.817-1.823l10.92-0.021h0.002c1.006,0,1.82,0.812,1.822,1.816
				c0.002,1.006-0.812,1.822-1.816,1.823l-10.92,0.021C1381.687,2013.974,1381.687,2013.974,1381.685,2013.974z M1574.576,2013.956
				c0,0-0.001,0-0.003,0l-10.918-0.021c-1.006-0.002-1.818-0.819-1.817-1.823c0.002-1.004,0.816-1.816,1.82-1.816h0.002l10.92,0.021
				c1.006,0.002,1.818,0.818,1.816,1.823C1576.395,2013.144,1575.58,2013.956,1574.576,2013.956z M1418.091,2013.91
				c-1.004,0-1.818-0.814-1.82-1.818c-0.002-1.004,0.812-1.82,1.818-1.822l10.92-0.014c1.006,0,1.82,0.812,1.821,1.818
				c0.002,1.004-0.812,1.822-1.818,1.822l-10.92,0.014H1418.091z M1538.181,2013.896h-0.003l-10.917-0.012
				c-1.006-0.002-1.82-0.816-1.818-1.822c0.002-1.004,0.816-1.818,1.82-1.818h0.002l10.92,0.012
				c1.004,0.002,1.818,0.817,1.816,1.823C1540,2013.083,1539.186,2013.896,1538.181,2013.896z M1454.495,2013.873
				c-1.006,0-1.822-0.814-1.822-1.82c0-1.004,0.814-1.82,1.82-1.82l10.894-0.005c1.005,0,1.822,0.814,1.822,1.82
				c0,1.004-0.814,1.82-1.82,1.82L1454.495,2013.873z M1501.785,2013.866c0,0,0,0-0.002,0l-10.917-0.004
				c-1.006,0-1.82-0.814-1.82-1.82c0-1.006,0.814-1.82,1.82-1.82l10.919,0.004c1.005,0,1.82,0.816,1.82,1.822
				C1503.605,2013.051,1502.789,2013.866,1501.785,2013.866z"/>
			
				<linearGradient id="SVGID_00000030478830972097223760000017607413112870855865_" gradientUnits="userSpaceOnUse" x1="1512.2454" y1="2673.2227" x2="1922.347" y2="2673.2227">
				<stop  offset="0" style="stop-color:#09005D"/>
				<stop  offset="1" style="stop-color:#1A0F91"/>
			</linearGradient>
			<path style="fill:url(#SVGID_00000030478830972097223760000017607413112870855865_);" d="M1840.134,2849.46h-238.577
				c-31.264,0-57.594-23.261-61.303-54.159l-27.564-229.573c-4.391-36.57,24.3-68.743,61.303-68.743h286.609
				c36.252,0,64.702,30.941,61.498,66.883l-20.469,229.573C1898.805,2825.15,1872.117,2849.46,1840.134,2849.46z"/>
			<defs>
				<filter id="Adobe_OpacityMaskFilter" filterUnits="userSpaceOnUse" x="1561.23" y="2538.964" width="312.133" height="268.273">
					<feFlood  style="flood-color:white;flood-opacity:1" result="back"/>
					<feBlend  in="SourceGraphic" in2="back" mode="normal"/>
				</filter>
			</defs>
			
				<mask maskUnits="userSpaceOnUse" x="1561.23" y="2538.964" width="312.133" height="268.273" id="SVGID_00000083067967624613172150000008403042654119036342_">
				<g style="filter:url(#Adobe_OpacityMaskFilter);">
					<defs>
						
							<filter id="Adobe_OpacityMaskFilter_00000168838166182456501120000008483261901006972040_" filterUnits="userSpaceOnUse" x="1561.23" y="2538.964" width="312.133" height="268.273">
							<feFlood  style="flood-color:white;flood-opacity:1" result="back"/>
							<feBlend  in="SourceGraphic" in2="back" mode="normal"/>
						</filter>
					</defs>
					
						<mask maskUnits="userSpaceOnUse" x="1561.23" y="2538.964" width="312.133" height="268.273" id="SVGID_00000083067967624613172150000008403042654119036342_">
						<g style="filter:url(#Adobe_OpacityMaskFilter_00000168838166182456501120000008483261901006972040_);">
						</g>
					</mask>
					
						<linearGradient id="SVGID_00000129193588706905414100000008247086862016698242_" gradientUnits="userSpaceOnUse" x1="1561.2296" y1="2673.1003" x2="1873.3625" y2="2673.1003">
						<stop  offset="0" style="stop-color:#FFFFFF"/>
						<stop  offset="1" style="stop-color:#000000"/>
					</linearGradient>
					
						<path style="mask:url(#SVGID_00000083067967624613172150000008403042654119036342_);fill:url(#SVGID_00000129193588706905414100000008247086862016698242_);" d="
						M1810.789,2807.237h-181.583c-23.796,0-43.836-17.704-46.659-41.221l-20.979-174.731
						c-3.342-27.833,18.496-52.321,46.659-52.321h218.141c27.592,0,49.245,23.55,46.807,50.906l-15.579,174.73
						C1855.444,2788.733,1835.131,2807.237,1810.789,2807.237z"/>
				</g>
			</mask>
			
				<linearGradient id="SVGID_00000022544956937329701840000004728812237939144347_" gradientUnits="userSpaceOnUse" x1="887.0793" y1="3895.511" x2="1804.8323" y2="2531.4172">
				<stop  offset="0" style="stop-color:#09005D"/>
				<stop  offset="1" style="stop-color:#1A0F91"/>
			</linearGradient>
			<path style="fill:url(#SVGID_00000022544956937329701840000004728812237939144347_);" d="M1810.789,2807.237h-181.583
				c-23.796,0-43.836-17.704-46.659-41.221l-20.979-174.731c-3.342-27.833,18.496-52.321,46.659-52.321h218.141
				c27.592,0,49.245,23.55,46.807,50.906l-15.579,174.73C1855.444,2788.733,1835.131,2807.237,1810.789,2807.237z"/>
		</g>
		<g>
			
				<linearGradient id="SVGID_00000087407681900849849300000010822174810186898072_" gradientUnits="userSpaceOnUse" x1="-660.0175" y1="3837.7759" x2="-643.2999" y2="4255.7173" gradientTransform="matrix(-1 0 0 1 2012.3792 0)">
				<stop  offset="0" style="stop-color:#09005D"/>
				<stop  offset="1" style="stop-color:#1A0F91"/>
			</linearGradient>
			<path style="fill:url(#SVGID_00000087407681900849849300000010822174810186898072_);" d="M2725.062,3240.067
				c-55.765,2.566-109.743,0.954-145.782-0.898c32.814-23.356,108.41-74.171,171.669-94.403l43.424-2.597
				c0,0,14.715,22.379,19.965,73.589C2807.141,3224.738,2786.106,3237.259,2725.062,3240.067z"/>
			
				<linearGradient id="SVGID_00000085956431811862529510000010833128195239385009_" gradientUnits="userSpaceOnUse" x1="-682.9761" y1="3243.3416" x2="-682.9761" y2="2310.4983" gradientTransform="matrix(-1 0 0 1 2012.3792 0)">
				<stop  offset="0" style="stop-color:#09005D"/>
				<stop  offset="1" style="stop-color:#1A0F91"/>
			</linearGradient>
			<path style="fill:url(#SVGID_00000085956431811862529510000010833128195239385009_);" d="M2578.831,3239.487
				c0.144-0.102,0.304-0.215,0.449-0.318c36.039,1.853,90.017,3.464,145.782,0.898c61.044-2.809,82.079-15.33,89.276-24.309
				c0.242,2.359,0.49,4.702,0.689,7.185c0.902,11.239-7.44,21.106-18.681,21.956c-45.671,3.453-158.907,11.273-213.514,8.408
				C2575.63,3252.929,2572.958,3243.674,2578.831,3239.487z"/>
			
				<linearGradient id="SVGID_00000141441119176430319660000010665829565067776690_" gradientUnits="userSpaceOnUse" x1="-1142.3314" y1="3857.0696" x2="-1125.6139" y2="4275.0117" gradientTransform="matrix(-1 0 0 1 2012.3792 0)">
				<stop  offset="0" style="stop-color:#09005D"/>
				<stop  offset="1" style="stop-color:#1A0F91"/>
			</linearGradient>
			<path style="fill:url(#SVGID_00000141441119176430319660000010665829565067776690_);" d="M3123.907,3225.143
				c4.084-26.179,10.633-64.026,15.691-73.701c7.938-15.18,35.111,0,35.111,0s19.076,8.895,27.855,23.721
				c5.596,9.451,21.073,36.341,31.561,54.596c1.207,2.1,1.708,4.335,1.646,6.5l-108.803,3.808
				C3124.306,3235.798,3123.057,3230.594,3123.907,3225.143z"/>
			
				<linearGradient id="SVGID_00000007399325933259592450000004651331999174786210_" gradientUnits="userSpaceOnUse" x1="-1168.9889" y1="3243.3416" x2="-1168.9889" y2="2310.4946" gradientTransform="matrix(-1 0 0 1 2012.3792 0)">
				<stop  offset="0" style="stop-color:#09005D"/>
				<stop  offset="1" style="stop-color:#1A0F91"/>
			</linearGradient>
			<path style="fill:url(#SVGID_00000007399325933259592450000004651331999174786210_);" d="M3235.77,3236.26
				c-0.182,6.215-5.108,11.852-12.058,12.043l-77.514,2.133c-8.19,0.226-15.282-4.031-19.232-10.368L3235.77,3236.26z"/>
			
				<linearGradient id="SVGID_00000125561644854117168460000014333091702877342612_" gradientUnits="userSpaceOnUse" x1="-1175.9709" y1="3115.0786" x2="-1103.2144" y2="3115.0786" gradientTransform="matrix(-1 0 0 1 2012.3792 0)">
				<stop  offset="0" style="stop-color:#FEBBBA"/>
				<stop  offset="1" style="stop-color:#FF928E"/>
			</linearGradient>
			<path style="fill:url(#SVGID_00000125561644854117168460000014333091702877342612_);" d="M3115.594,3064.431
				c0.939,3.14,14.998,71.297,21.154,101.209c1.701,8.268,9.148,14.072,17.579,13.65c4.604-0.23,9.96-0.644,15.578-1.372
				c9.966-1.29,17.555-9.612,17.938-19.654c0.998-26.202,1.489-76.51-8.133-96.004
				C3166.436,3035.368,3115.594,3064.431,3115.594,3064.431z"/>
			
				<linearGradient id="SVGID_00000180353077510780549950000002795584932636783790_" gradientUnits="userSpaceOnUse" x1="-790.5339" y1="3110.3159" x2="-729.8934" y2="3110.3159" gradientTransform="matrix(-1 0 0 1 2012.3792 0)">
				<stop  offset="0" style="stop-color:#FEBBBA"/>
				<stop  offset="1" style="stop-color:#FF928E"/>
			</linearGradient>
			<path style="fill:url(#SVGID_00000180353077510780549950000002795584932636783790_);" d="M2802.913,3083.944
				c-6.03-0.192,2.406,31.135-6.717,61.925c-2.058,6.944-7.251,12.395-14.493,12.488c-4.694,0.059-10.255-0.03-15.902-0.483
				c-8.494-0.681-15.318-7.271-16.106-15.755l-7.421-79.86L2802.913,3083.944z"/>
			
				<linearGradient id="SVGID_00000006679571384277796080000009594454575217915295_" gradientUnits="userSpaceOnUse" x1="3187.5615" y1="1510.8784" x2="2895.1223" y2="2732.6282">
				<stop  offset="0" style="stop-color:#09005D"/>
				<stop  offset="1" style="stop-color:#1A0F91"/>
			</linearGradient>
			<path style="fill:url(#SVGID_00000006679571384277796080000009594454575217915295_);" d="M2634.246,2235.023
				c2.692,13.102,97.689,567.203,103.454,853.924c0.096,4.807,3.634,8.839,8.396,9.503c12.06,1.68,35.546,3.843,58.319-0.38
				c3.119-0.578,5.469-3.146,5.665-6.312c3.32-53.432,30.022-505.19-2.679-717.854c0,0,270.109,568.483,311.053,725.234
				c0.996,3.813,4.497,6.379,8.433,6.17c11.569-0.611,35.626-2.692,54.728-9.722c6.846-2.52,10.746-9.716,9.018-16.805
				c-22.875-93.81-183.191-740.133-292.041-882.533L2634.246,2235.023z"/>
			
				<linearGradient id="SVGID_00000031169711926533668840000004706649753692492731_" gradientUnits="userSpaceOnUse" x1="-639.7418" y1="2178.0371" x2="-887.9323" y2="2498.9114" gradientTransform="matrix(-1 0 0 1 2012.3792 0)">
				<stop  offset="0" style="stop-color:#CB236D"/>
				<stop  offset="1" style="stop-color:#4C246D"/>
			</linearGradient>
			<path style="fill:url(#SVGID_00000031169711926533668840000004706649753692492731_);" d="M2807.401,2377.449
				c0.895,0,1.789-0.336,2.479-1.011c1.4-1.367,1.425-3.615,0.056-5.013l-36.169-36.986c-1.369-1.402-3.615-1.423-5.014-0.056
				c-1.4,1.367-1.425,3.615-0.056,5.014l36.169,36.986C2805.56,2377.093,2806.481,2377.449,2807.401,2377.449z"/>
			
				<linearGradient id="SVGID_00000071550373740477031820000009242463039605627029_" gradientUnits="userSpaceOnUse" x1="2479.5999" y1="5500.8384" x2="2831.4973" y2="5976.3765" gradientTransform="matrix(-0.9943 -0.107 -0.107 0.9943 2450.6707 67.6665)">
				<stop  offset="0" style="stop-color:#09005D"/>
				<stop  offset="1" style="stop-color:#1A0F91"/>
			</linearGradient>
			<path style="fill:url(#SVGID_00000071550373740477031820000009242463039605627029_);" d="M2542.888,1519.976
				c80.814-12.149,239.413-29.555,342.865,0.8l-11.218,319.747l-374.811-40.409l-31.794-45.192
				C2467.929,1754.922,2482.659,1529.03,2542.888,1519.976z"/>
			
				<linearGradient id="SVGID_00000000203870086210036390000010847521015299188920_" gradientUnits="userSpaceOnUse" x1="-386.5408" y1="1483.0734" x2="-358.1778" y2="1308.1681" gradientTransform="matrix(-0.9943 -0.107 -0.107 0.9943 2450.6707 67.6665)">
				<stop  offset="0" style="stop-color:#FEBBBA"/>
				<stop  offset="1" style="stop-color:#FF928E"/>
			</linearGradient>
			<path style="fill:url(#SVGID_00000000203870086210036390000010847521015299188920_);" d="M2729.566,1348.797
				c0,0,7.489,127.178,6.071,166.736c0,0-104.116,17.04-128.9-0.775l19.576-150.756L2729.566,1348.797z"/>
			<g>
				
					<linearGradient id="SVGID_00000071550446598466112120000016823654258701918103_" gradientUnits="userSpaceOnUse" x1="-293.0083" y1="1196.4281" x2="-486.2423" y2="1344.2816" gradientTransform="matrix(-0.9943 -0.107 -0.107 0.9943 2450.6707 67.6665)">
					<stop  offset="0" style="stop-color:#FEBBBA"/>
					<stop  offset="1" style="stop-color:#FF928E"/>
				</linearGradient>
				<path style="fill:url(#SVGID_00000071550446598466112120000016823654258701918103_);" d="M2628.354,1221.423
					c0,0-41.922,73.589-48.542,113.869c-6.62,40.28-18.183,65.635,27.794,78.839c45.977,13.205,87.962-5.887,113.692-43.951
					c0,0,40.201-58.593,35.427-84.874C2751.953,1259.024,2628.354,1221.423,2628.354,1221.423z"/>
				
					<linearGradient id="SVGID_00000059274554749522798700000018344084649377770129_" gradientUnits="userSpaceOnUse" x1="-428.7672" y1="1079.7111" x2="-253.7835" y2="1305.0022" gradientTransform="matrix(-0.9943 -0.107 -0.107 0.9943 2450.6707 67.6665)">
					<stop  offset="0" style="stop-color:#09005D"/>
					<stop  offset="1" style="stop-color:#1A0F91"/>
				</linearGradient>
				<path style="fill:url(#SVGID_00000059274554749522798700000018344084649377770129_);" d="M2708.412,1339.434l-5.924-0.638
					c0,0,29.796-47.433,9.298-58.537c-20.498-11.104-103.578-37.572-118.66-69.686c-14.54-30.96,5.258-66.797,29.964-74.763
					c1.563-0.504,3.246,0.387,3.854,1.912l1.555,3.906c1.065,2.675,4.844,2.694,5.935,0.03l0,0c1.036-2.527,4.613-2.718,5.8-0.258
					c4.64,9.618,18.253,25.91,58.187,37.817c56.665,16.894,92.366,44.407,89.004,84.463c-0.212,2.537,2.343,4.224,4.647,3.139
					c4.548-2.141,11.509-2.627,19.811,6.031c14.437,15.057,4.214,48.984-33.653,73.72c-1.799,1.176-2.064,3.759-0.398,5.118
					c5.867,4.786,14.217,15.571-11.553,25.974c-26.362,10.641-40.958,7.599-46.372,5.576c-1.457-0.544-2.317-2.018-2.056-3.551
					l6-35.173c0.31-1.819-0.978-3.523-2.813-3.721L2708.412,1339.434z"/>
				
					<linearGradient id="SVGID_00000143616580420395389630000011494425153736483255_" gradientUnits="userSpaceOnUse" x1="-316.9778" y1="1165.1055" x2="-510.2114" y2="1312.9586" gradientTransform="matrix(-0.9943 -0.107 -0.107 0.9943 2450.6707 67.6665)">
					<stop  offset="0" style="stop-color:#FEBBBA"/>
					<stop  offset="1" style="stop-color:#FF928E"/>
				</linearGradient>
				<path style="fill:url(#SVGID_00000143616580420395389630000011494425153736483255_);" d="M2706.158,1346.685
					c0,0,18.132-47.938,38.755-31.73c20.623,16.208-17.424,54.024-35.4,53.956L2706.158,1346.685z"/>
			</g>
			<g>
				
					<linearGradient id="SVGID_00000049200900003575435230000003975723261608969119_" gradientUnits="userSpaceOnUse" x1="4592.3594" y1="4364.918" x2="3344.7339" y2="6002.8267" gradientTransform="matrix(0.1855 -0.9827 0.9827 0.1855 -2853.6924 5014.2505)">
					<stop  offset="0" style="stop-color:#FF928E"/>
					<stop  offset="1" style="stop-color:#FE7062"/>
				</linearGradient>
				<path style="fill:url(#SVGID_00000049200900003575435230000003975723261608969119_);" d="M2257.214,1770.108l9.94-39.073
					c4.916-19.326,24.142-31.385,43.681-27.399l936.052,190.97c21.315,4.349,35.014,25.22,30.524,46.507l-57.065,270.512
					L2257.214,1770.108z"/>
				<path style="fill:#BDD0FB;" d="M2168.462,2244.626l70.4-506.001c1.456-10.467,11.533-17.465,21.849-15.174l961.4,213.493
					c20.518,4.557,33.39,24.962,28.666,45.441l-80.687,349.762L2168.462,2244.626z"/>
				
					<linearGradient id="SVGID_00000178893889644023757030000008491252791589296530_" gradientUnits="userSpaceOnUse" x1="4227.8979" y1="4897.7578" x2="3406.7654" y2="4938.2813" gradientTransform="matrix(0.1855 -0.9827 0.9827 0.1855 -2853.6924 5014.2505)">
					<stop  offset="0" style="stop-color:#DAE3FE"/>
					<stop  offset="1" style="stop-color:#E9EFFD"/>
				</linearGradient>
				<path style="fill:url(#SVGID_00000178893889644023757030000008491252791589296530_);" d="M2193.852,2221.699l26.967-451.638
					c0.693-11.61,11.55-19.886,22.929-17.478l971.509,205.578c13.698,2.899,22.724,16.021,20.53,29.849l-51.749,326.247
					L2193.852,2221.699z"/>
				
					<linearGradient id="SVGID_00000033354149585120250160000004176718988856786332_" gradientUnits="userSpaceOnUse" x1="2817.8616" y1="2004.9451" x2="1904.7821" y2="3025.0254">
					<stop  offset="0" style="stop-color:#FF928E"/>
					<stop  offset="1" style="stop-color:#FE7062"/>
				</linearGradient>
				<path style="fill:url(#SVGID_00000033354149585120250160000004176718988856786332_);" d="M2123.479,2328.456l61.161-489.192
					c3.048-24.381,26.032-41.136,50.177-36.579l996.208,188.027c20.202,3.813,33.488,23.281,29.675,43.482l-84.14,445.789
					c-3.97,21.033-23.697,35.289-44.914,32.456l-965.751-128.972C2139.052,2379.883,2120.12,2355.328,2123.479,2328.456z"/>
				
					<linearGradient id="SVGID_00000056403958887712824280000006986133158891584440_" gradientUnits="userSpaceOnUse" x1="2524.6853" y1="1742.5212" x2="1611.6058" y2="2762.6016">
					<stop  offset="0" style="stop-color:#FF928E"/>
					<stop  offset="1" style="stop-color:#FE7062"/>
				</linearGradient>
				<path style="fill:url(#SVGID_00000056403958887712824280000006986133158891584440_);" d="M2585.363,1868.849L2585.363,1868.849
					c-3.917,20.755-23.918,34.405-44.674,30.488l-222.122-41.924c-20.755-3.917-34.405-23.918-30.488-44.674l0,0
					c3.917-20.755,23.918-34.405,44.674-30.488l222.122,41.924C2575.631,1828.092,2589.281,1848.093,2585.363,1868.849z"/>
			</g>
			
				<linearGradient id="SVGID_00000068662151828057456070000003306322560822476970_" gradientUnits="userSpaceOnUse" x1="2289.9185" y1="5641.6768" x2="2641.8445" y2="6117.2534" gradientTransform="matrix(-0.9943 -0.107 -0.107 0.9943 2450.6707 67.6665)">
				<stop  offset="0" style="stop-color:#09005D"/>
				<stop  offset="1" style="stop-color:#1A0F91"/>
			</linearGradient>
			<path style="fill:url(#SVGID_00000068662151828057456070000003306322560822476970_);" d="M2781.208,1660.201l104.545-139.424
				c0,0,167.992,178.459,200.222,404.97l-104.794,51.105C2948.656,1900.576,2888.79,1797.247,2781.208,1660.201z"/>
			
				<linearGradient id="SVGID_00000175289439577711700650000003218410500287285140_" gradientUnits="userSpaceOnUse" x1="3061.4502" y1="2024.5393" x2="3536.2314" y2="1268.9012">
				<stop  offset="0" style="stop-color:#FEBBBA"/>
				<stop  offset="1" style="stop-color:#FF928E"/>
			</linearGradient>
			<path style="fill:url(#SVGID_00000175289439577711700650000003218410500287285140_);" d="M2930.998,2288.257
				c12.385-20.719,36.569-60.166,48.33-72.477c0,0-10.754-6.792-31.378-4.258c-20.624,2.534-36.777-7.526-36.162-18.752
				l98.41-30.187c4.421-9.241,23.891-61.658-29.017-185.732l104.794-51.105c12.067,84.8,5.145,176.322-36.802,267.755
				c0,0-32.543,101.071-69.93,123.498C2881.668,2375.531,2926.244,2296.208,2930.998,2288.257z"/>
		</g>
	</g>
</g>
</svg>
