<?xml version="1.0" encoding="utf-8"?>
<!-- Generator: Adobe Illustrator 27.5.0, SVG Export Plug-In . SVG Version: 6.00 Build 0)  -->
<svg version="1.1" xmlns="http://www.w3.org/2000/svg" xmlns:xlink="http://www.w3.org/1999/xlink" x="0px" y="0px"
	 viewBox="0 0 500 500" style="enable-background:new 0 0 500 500;" xml:space="preserve">
<g id="Background_Simple">
	<g>
		<path style="fill:#C6FF00;" d="M61.16,285.674c0,0,6.943,59.242,57.595,84.644c50.652,25.402,100.168,0.886,145.66-4.953
			c23.823-3.058,45.944,8.641,69.314,11.128c74.726,7.95,133.18-79.507,122.534-143.949c-9.216-55.787-45.121-95.22-110.459-123.434
			c-65.338-28.214-110.286-50.651-186.06-24.393C83.969,110.976,55.6,208.978,61.16,285.674z"/>
		<path style="opacity:0.7;fill:#FFFFFF;" d="M61.16,285.674c0,0,6.943,59.242,57.595,84.644
			c50.652,25.402,100.168,0.886,145.66-4.953c23.823-3.058,45.944,8.641,69.314,11.128c74.726,7.95,133.18-79.507,122.534-143.949
			c-9.216-55.787-45.121-95.22-110.459-123.434c-65.338-28.214-110.286-50.651-186.06-24.393
			C83.969,110.976,55.6,208.978,61.16,285.674z"/>
	</g>
</g>
<g id="Smiley_Faces">
	<g>
		<g>
			<g>
				<path style="fill:#FFFFFF;stroke:#263238;stroke-miterlimit:10;" d="M310.466,106.171c0,0,4.102,0.459,7.613,3.626
					c3.511,3.168,6.748-4.912,0.941-6.562C313.213,101.586,310.466,106.171,310.466,106.171z"/>
				<path style="fill:#FFFFFF;stroke:#263238;stroke-miterlimit:10;" d="M306.565,105.801c0,0,2.679-3.14,7.27-4.272
					c4.591-1.132-0.286-8.342-4.907-4.457C304.308,100.956,306.565,105.801,306.565,105.801z"/>
			</g>
			<g>
				<path style="fill:#FFFFFF;stroke:#263238;stroke-miterlimit:10;" d="M253.035,124.568c0,0-2.853,2.983-3.514,7.665
					c-0.662,4.682-8.328,0.56-4.931-4.43C247.987,122.813,253.035,124.568,253.035,124.568z"/>
				<path style="fill:#FFFFFF;stroke:#263238;stroke-miterlimit:10;" d="M255.79,121.782c0,0-4.069-0.691-8.318,1.385
					c-4.248,2.076-5.131-6.583,0.906-6.567C254.414,116.617,255.79,121.782,255.79,121.782z"/>
			</g>
			<g>
				
					<ellipse id="XMLID_18_" transform="matrix(0.519 -0.8548 0.8548 0.519 25.0025 310.4874)" style="fill:#FFFFFF;stroke:#263238;stroke-miterlimit:10;" cx="288.372" cy="133.029" rx="31.04" ry="31.04"/>
				<g>
					<path style="fill:#263238;" d="M264.324,127.733c-0.526,0.145-1.102-0.086-1.372-0.587c-0.315-0.582-0.097-1.31,0.487-1.624
						l7.734-4.17l-5.177-0.179c-0.662-0.023-1.18-0.577-1.157-1.24c0.022-0.661,0.579-1.18,1.238-1.157l9.602,0.331
						c0.542,0.019,1.003,0.397,1.126,0.925c0.123,0.527-0.122,1.072-0.599,1.328l-11.631,6.271
						C264.495,127.676,264.41,127.709,264.324,127.733z"/>
				</g>
				<g>
					<path style="fill:#263238;" d="M305.699,116.352c-0.09,0.025-0.183,0.039-0.281,0.043l-12.628,0.402
						c-0.542,0.017-1.027-0.331-1.186-0.85c-0.157-0.519,0.053-1.079,0.513-1.366l8.528-5.318c0.563-0.351,1.302-0.178,1.651,0.383
						c0.351,0.562,0.179,1.301-0.382,1.651l-4.748,2.961l8.175-0.26c0.662-0.021,1.215,0.498,1.236,1.16
						C306.596,115.723,306.22,116.209,305.699,116.352z"/>
				</g>
				<g>
					<g>
						<path style="fill:#263238;" d="M263.806,133.133c6.58,12.128,18.265,19.043,29.019,16.085
							c10.754-2.958,17.259-14.876,16.71-28.663l-4.152,0.429c-13.287,1.372-26.216,4.956-38.314,10.621L263.806,133.133z"/>
					</g>
					<g>
						<path style="fill:#B5B5B5;" d="M305.986,136.123c-4.663-1.534-10.551-1.656-16.563-0.003
							c-6.131,1.686-11.196,4.897-14.411,8.696c5.454,3.533,11.615,4.888,17.501,3.268
							C298.469,146.447,303.113,142.053,305.986,136.123z"/>
					</g>
				</g>
			</g>
		</g>
		<g>
			
				<ellipse id="XMLID_17_" transform="matrix(0.2773 -0.9608 0.9608 0.2773 -185.5018 244.6723)" style="fill:#FFFFFF;stroke:#263238;stroke-miterlimit:10;" cx="69.88" cy="245.637" rx="31.04" ry="31.04"/>
			<g>
				<path style="fill:#263238;" d="M54.022,226.799c-0.505-0.205-0.822-0.739-0.731-1.301c0.105-0.654,0.72-1.098,1.375-0.992
					l8.674,1.398l-3.999-3.292c-0.511-0.421-0.585-1.176-0.164-1.688c0.42-0.511,1.177-0.584,1.687-0.164l7.417,6.107
					c0.419,0.344,0.554,0.926,0.331,1.419c-0.223,0.493-0.749,0.776-1.284,0.69l-13.045-2.103
					C54.192,226.857,54.104,226.833,54.022,226.799z"/>
			</g>
			<g>
				<path style="fill:#263238;" d="M93.778,242.95c-0.087-0.035-0.17-0.08-0.249-0.137l-10.264-7.366
					c-0.44-0.316-0.614-0.888-0.424-1.396c0.191-0.507,0.699-0.824,1.238-0.771l10.003,0.97c0.66,0.063,1.142,0.651,1.077,1.309
					c-0.063,0.659-0.649,1.141-1.309,1.078l-5.569-0.54l6.645,4.769c0.538,0.386,0.661,1.135,0.274,1.673
					C94.872,242.997,94.279,243.154,93.778,242.95z"/>
			</g>
			<g>
				<path style="fill:#263238;" d="M73.79,258.683c-4.527,0-8.57-1.018-12.095-3.053c-9.272-5.354-11.415-15.728-11.501-16.167
					c-0.16-0.813,0.369-1.602,1.181-1.762c0.813-0.155,1.601,0.367,1.762,1.179l0,0c0.019,0.095,1.995,9.515,10.086,14.168
					c5.905,3.396,13.624,3.507,22.946,0.33c0.786-0.267,1.637,0.152,1.904,0.936c0.267,0.784-0.152,1.636-0.936,1.904
					C82.314,257.861,77.856,258.683,73.79,258.683z"/>
			</g>
		</g>
		<g>
			
				<ellipse id="XMLID_16_" transform="matrix(0.7071 -0.7071 0.7071 0.7071 -156.5209 257.8784)" style="fill:#FFFFFF;stroke:#263238;stroke-miterlimit:10;" cx="233.026" cy="317.877" rx="34.133" ry="34.133"/>
			<path style="fill:#263238;" d="M213.795,329.046c0,0,21.946-12.525,43.099-15.558c0,0,6.067,19.999-14.152,27.74
				C225.217,347.938,213.795,329.046,213.795,329.046z"/>
			<g>
				<path style="fill:#263238;" d="M218.119,319.403c-0.724,0-1.422-0.394-1.778-1.081l-4.977-9.622
					c-0.507-0.982-0.124-2.188,0.857-2.695c0.981-0.508,2.188-0.124,2.695,0.857l4.977,9.622c0.507,0.982,0.124,2.188-0.857,2.695
					C218.743,319.332,218.429,319.403,218.119,319.403z"/>
			</g>
			<g>
				<path style="fill:#263238;" d="M244.659,309.781c-0.925,0-1.755-0.645-1.955-1.585l-2.323-10.948
					c-0.229-1.08,0.461-2.143,1.542-2.371c1.079-0.234,2.142,0.461,2.371,1.541l2.323,10.948c0.229,1.08-0.461,2.143-1.542,2.371
					C244.936,309.767,244.796,309.781,244.659,309.781z"/>
			</g>
			<path style="fill:#B5B5B5;" d="M248.11,337.235c-1.845-4.532-8.273-6.381-14.548-4.116c-3.477,1.255-6.177,3.515-7.652,6.073
				c4.55,2.286,10.209,3.323,16.71,0.834C244.729,339.219,246.536,338.273,248.11,337.235z"/>
		</g>
		<g>
			<g>
				
					<ellipse id="XMLID_15_" transform="matrix(0.9188 -0.3947 0.3947 0.9188 -44.3224 180.6527)" style="fill:#FFFFFF;stroke:#263238;stroke-miterlimit:10;" cx="416.998" cy="198.072" rx="34.133" ry="34.133"/>
			</g>
			<path style="fill:none;stroke:#263238;stroke-width:2;stroke-linecap:round;stroke-linejoin:round;stroke-miterlimit:10;" d="
				M401.104,197.902c0,0,18.168,14.24,36.829,1.473"/>
			<path style="fill:#263238;" d="M431.087,187.539c0,2.102-0.824,3.806-1.841,3.806s-1.841-1.704-1.841-3.806
				c0-2.102,0.824-3.806,1.841-3.806S431.087,185.438,431.087,187.539z"/>
			<path style="fill:#263238;" d="M413.409,186.803c0,2.102-0.824,3.806-1.841,3.806s-1.841-1.704-1.841-3.806
				c0-2.102,0.824-3.806,1.841-3.806S413.409,184.701,413.409,186.803z"/>
		</g>
	</g>
</g>
<g id="Character_2">
	<g>
		<g>
			<ellipse style="fill:#C6FF00;" cx="333.974" cy="417" rx="80" ry="18.823"/>
			<ellipse style="opacity:0.5;fill:#FFFFFF;" cx="333.974" cy="417" rx="80" ry="18.823"/>
		</g>
		<g>
			<g>
				<path style="fill:#263238;stroke:#263238;stroke-linecap:round;stroke-linejoin:round;stroke-miterlimit:10;" d="
					M324.242,168.203c0,0-6.384-0.58-6.964-6.384c-0.58-5.803,14.508-13.058,24.084-13.348c9.576-0.29,18.861,10.156,18.861,18.571
					c0,8.415,1.451,20.312,8.705,22.633c7.254,2.321,12.187,16.539,7.835,21.762c-4.353,5.223-4.062,5.223,0.29,9.866
					c4.352,4.643,0.58,12.767-2.321,14.508c-2.902,1.741-11.607,4.353-31.048,2.612c-19.441-1.741-31.048-19.441-31.918-26.695
					c-0.87-7.254,5.803-12.187,8.125-15.379c2.321-3.192-1.741-5.803-1.451-9.285c0.29-3.482,4.643-6.384,5.803-9.285
					C325.402,174.877,324.242,168.203,324.242,168.203z"/>
				<path style="fill:none;stroke:#FFFFFF;stroke-linecap:round;stroke-linejoin:round;stroke-miterlimit:10;" d="M337.974,160
					c0,0,1.333,11.667,11.667,21.667c10.333,10,25.667,19.333,24.667,26.333s-4,6.333-4,6.333"/>
				<path style="fill:none;stroke:#FFFFFF;stroke-linecap:round;stroke-linejoin:round;stroke-miterlimit:10;" d="M338.974,155.333
					c0,0-6.667,5.333-13.333,7c-6.667,1.667-8.363-0.514-8.363-0.514"/>
			</g>
			<g>
				<path style="fill:#C6FF00;stroke:#263238;stroke-linecap:round;stroke-linejoin:round;stroke-miterlimit:10;" d="
					M293.774,406.829c0,0,4.318,5.671,9.151,8.337c4.833,2.667,13.5,0.833,11-5.5c-2.5-6.333-6.5-9.667-9.5-10.833
					C301.425,397.667,293.623,400.659,293.774,406.829z"/>
				<path style="fill:#FFFFFF;stroke:#263238;stroke-linecap:round;stroke-linejoin:round;stroke-miterlimit:10;" d="M299.925,413
					l0.048,0.155c0.939,0.749,1.932,1.449,2.952,2.012c4.833,2.667,13.5,0.833,11-5.5C306.092,404.833,299.925,413,299.925,413z"/>
				<path style="fill:#FFFFFF;stroke:#263238;stroke-linecap:round;stroke-linejoin:round;stroke-miterlimit:10;" d="
					M302.925,415.167c4.53,2.499,12.427,1.046,11.342-4.361c-1.618,1.729-4.846,3.85-9.342,2.194
					c-4.815-1.774-8.949-6.623-10.658-8.85c-0.324,0.814-0.517,1.702-0.493,2.679C293.774,406.829,298.092,412.5,302.925,415.167z"
					/>
			</g>
			<g>
				<path style="fill:#C6FF00;stroke:#263238;stroke-linecap:round;stroke-linejoin:round;stroke-miterlimit:10;" d="
					M366.209,406.614c0,0-4.318,5.671-9.151,8.337c-4.833,2.667-13.5,0.833-11-5.5c2.5-6.333,6.5-9.667,9.5-10.833
					C358.558,397.452,366.36,400.444,366.209,406.614z"/>
				<path style="fill:#FFFFFF;stroke:#263238;stroke-linecap:round;stroke-linejoin:round;stroke-miterlimit:10;" d="
					M360.058,412.785l-0.048,0.155c-0.939,0.749-1.932,1.449-2.952,2.012c-4.833,2.667-13.5,0.833-11-5.5
					C353.891,404.618,360.058,412.785,360.058,412.785z"/>
				<path style="fill:#FFFFFF;stroke:#263238;stroke-linecap:round;stroke-linejoin:round;stroke-miterlimit:10;" d="
					M357.058,414.952c-4.53,2.499-12.427,1.046-11.342-4.361c1.618,1.729,4.846,3.85,9.342,2.194
					c4.815-1.774,8.949-6.623,10.657-8.85c0.324,0.814,0.517,1.702,0.493,2.679C366.209,406.614,361.891,412.285,357.058,414.952z"
					/>
			</g>
			<path style="fill:#FFFFFF;stroke:#263238;stroke-linecap:round;stroke-linejoin:round;stroke-miterlimit:10;" d="M332.366,189.28
				c0,0-1.161,9.575-2.031,11.607c-0.871,2.031-11.607,2.611-16.249,4.352c-4.643,1.741-14.508,10.156-20.602,15.959
				c-6.093,5.803-11.607,21.182-11.607,23.213c0,2.031,6.094-5.803,11.607-11.316c5.513-5.513,17.7-12.477,17.7-12.477
				s4.364,21.594,4.944,23.916c0.58,2.321-0.011,6.186-0.011,7.057s-12.187,22.053-14.218,39.753
				c-2.031,17.7,1.741,51.359,1.741,51.359s-6.674,13.057-7.254,27.566c-0.58,14.508-3.772,31.628-3.482,32.789
				c0.29,1.161-0.58,3.482,0.871,3.772c1.451,0.29,2.612-3.772,6.094-4.643c3.482-0.871,8.125,1.451,8.705-0.871
				c0.58-2.321,0-6.964,0.58-13.057c0.58-6.094,10.156-31.048,10.736-39.463c0.58-8.415,7.544-49.618,8.995-51.65
				c1.451-2.031,1.451-2.031,1.451-2.031s1.451-3.482,2.321,0.29c0.871,3.772,0,41.204,1.741,46.717
				c1.741,5.513,15.449,42.532,17.19,46.884c1.741,4.352-2.031,9.576-0.871,11.897c1.161,2.321,4.353,1.451,7.254,1.451
				s5.916,4.26,8.238,4.26c2.321,0,3.079-3.39,3.079-7.162c0-3.772-10.226-40.5-10.806-49.496
				c-0.58-8.995-2.611-15.959-2.611-15.959s3.772-41.494,2.902-50.489c-0.87-8.995-8.415-31.918-8.415-31.918l5.223-28.651
				c0,0,15.959,8.995,21.472,16.249c5.513,7.254,9.285,6.964,8.705,1.161c-0.58-5.803-14.218-22.923-21.472-30.467
				c-7.254-7.544-17.12-6.094-20.022-8.125c-2.902-2.031-1.161-22.053-1.161-22.053L332.366,189.28z"/>
			<path style="fill:#263238;stroke:#263238;stroke-linecap:round;stroke-linejoin:round;stroke-miterlimit:10;" d="
				M350.717,400.903c1.161,2.321,4.353,1.451,7.254,1.451c2.902,0,5.916,4.26,8.238,4.26c2.321,0,3.079-3.39,3.079-7.162
				c0-3.772-10.226-40.5-10.806-49.496c-0.58-8.995-2.611-15.959-2.611-15.959s3.772-41.494,2.902-50.489
				c-0.138-1.431-0.447-3.216-0.866-5.204l-51.392-5.003c-2.116,5.81-3.935,12.12-4.614,18.042
				c-2.031,17.7,1.741,51.359,1.741,51.359s-6.674,13.057-7.254,27.566c-0.58,14.508-3.772,31.628-3.482,32.789
				c0.29,1.161-0.58,3.482,0.871,3.772c1.451,0.29,2.612-3.772,6.094-4.643c3.482-0.871,8.125,1.451,8.705-0.871
				c0.58-2.321,0-6.964,0.58-13.057c0.58-6.094,10.156-31.048,10.736-39.463c0.58-8.415,7.544-49.618,8.995-51.65
				c1.451-2.031,1.451-2.031,1.451-2.031s1.451-3.482,2.321,0.29c0.871,3.772,0,41.204,1.741,46.717
				c1.741,5.513,15.449,42.532,17.19,46.884C353.328,393.359,349.556,398.582,350.717,400.903z"/>
			<g>
				<path style="fill:#FFFFFF;stroke:#263238;stroke-linecap:round;stroke-linejoin:round;stroke-miterlimit:10;" d="
					M364.285,209.882c-7.254-7.544-17.12-6.094-20.021-8.125c-2.117-1.482-1.763-12.527-1.417-18.401l-1.866-1.759l-8.614,7.683
					c0,0-1.161,9.576-2.031,11.607c-0.871,2.031-11.607,2.611-16.249,4.352c-4.566,1.712-14.177,9.875-20.29,15.665l6.013,7.015
					c5.455-3.917,11.375-7.301,11.375-7.301s4.364,21.594,4.944,23.916c0.58,2.321-0.011,6.186-0.011,7.057
					c0,0.643-6.645,12.368-10.939,25.584c8.319,3.826,24.7,8.178,53.389,4.724c-1.475-9.842-8.21-30.309-8.21-30.309l5.223-28.651
					c0,0,5.017,2.828,10.397,6.591l8.297-8.02C370.733,217.015,367.047,212.754,364.285,209.882z"/>
				<g>
					<defs>
						<path id="XMLID_3_" d="M350.151,203.266c-2.627-0.46-4.773-0.729-5.888-1.509c-2.117-1.482-1.763-12.527-1.417-18.401
							l-1.866-1.759l-8.614,7.683c0,0-1.161,9.576-2.031,11.607c-0.336,0.784-2.146,1.352-4.505,1.854
							c1.93,5.798,6.167,16.183,11.744,16.183C342.989,218.924,347.768,209.142,350.151,203.266z"/>
					</defs>
					<use xlink:href="#XMLID_3_"  style="overflow:visible;fill:#FFFFFF;"/>
					<clipPath id="XMLID_00000029029790266878976340000015580902072215912371_">
						<use xlink:href="#XMLID_3_"  style="overflow:visible;"/>
					</clipPath>
					<path style="clip-path:url(#XMLID_00000029029790266878976340000015580902072215912371_);fill:#C6FF00;" d="M342.788,184.417
						c-1.067,0.069-2.252,0.343-3.083,0.55c-1.201,0.3-3.518,1.569-5.734,2.881l-1.604,1.431c0,0-0.473,3.896-1.041,7.246
						c1.996-0.717,7.81-2.994,11.268-6.287C342.617,188.175,342.697,186.142,342.788,184.417z"/>
					<path style="opacity:0.5;clip-path:url(#XMLID_00000029029790266878976340000015580902072215912371_);fill:#FFFFFF;" d="
						M342.788,184.417c-1.067,0.069-2.252,0.343-3.083,0.55c-1.201,0.3-3.518,1.569-5.734,2.881l-1.604,1.431
						c0,0-0.473,3.896-1.041,7.246c1.996-0.717,7.81-2.994,11.268-6.287C342.617,188.175,342.697,186.142,342.788,184.417z"/>
					
						<use xlink:href="#XMLID_3_"  style="overflow:visible;fill:none;stroke:#263238;stroke-linecap:round;stroke-linejoin:round;stroke-miterlimit:10;"/>
				</g>
			</g>
			<g>
				<g>
					<defs>
						
							<ellipse id="XMLID_2_" transform="matrix(0.9875 -0.1574 0.1574 0.9875 -39.2686 55.5993)" cx="331.484" cy="275.787" rx="57.508" ry="57.508"/>
					</defs>
					<use xlink:href="#XMLID_2_"  style="overflow:visible;fill:#C6FF00;"/>
					<clipPath id="XMLID_00000037654364136313533380000006032538946797378459_">
						<use xlink:href="#XMLID_2_"  style="overflow:visible;"/>
					</clipPath>
					<path style="opacity:0.3;clip-path:url(#XMLID_00000037654364136313533380000006032538946797378459_);" d="M350.391,323.599
						c-31.761,0-57.508-25.747-57.508-57.508c0-18.492,8.738-34.934,22.299-45.454c-23.818,7.031-41.205,29.053-41.205,55.149
						c0,31.761,25.747,57.508,57.508,57.508c13.269,0,25.478-4.506,35.209-12.054C361.523,322.767,356.055,323.599,350.391,323.599z
						"/>
					
						<use xlink:href="#XMLID_2_"  style="overflow:visible;fill:none;stroke:#263238;stroke-linecap:round;stroke-linejoin:round;stroke-miterlimit:10;"/>
				</g>
				<g>
					<path style="fill:#263238;" d="M291.13,254.511c-1.011,0-1.926-0.695-2.162-1.723c-0.275-1.195,0.471-2.387,1.668-2.662
						l15.864-3.648l-9.159-2.863c-1.171-0.367-1.824-1.611-1.458-2.783c0.364-1.17,1.614-1.823,2.781-1.458l16.989,5.31
						c0.959,0.299,1.596,1.203,1.557,2.206c-0.039,1.002-0.744,1.854-1.722,2.079l-23.859,5.486
						C291.462,254.492,291.295,254.511,291.13,254.511z"/>
				</g>
				<g>
					<path style="fill:#263238;" d="M370.631,254.511c-0.173,0-0.347-0.02-0.523-0.062l-22.755-5.486
						c-0.976-0.235-1.672-1.096-1.7-2.101c-0.026-1.004,0.625-1.901,1.588-2.187l17.846-5.31c1.178-0.351,2.414,0.322,2.761,1.495
						c0.351,1.176-0.319,2.412-1.494,2.762l-9.936,2.956l14.732,3.552c1.193,0.287,1.926,1.487,1.638,2.68
						C372.542,253.828,371.633,254.511,370.631,254.511z"/>
				</g>
				<g>
					<g>
						<path style="fill:#263238;" d="M287.55,263.903c5.795,24.899,23.271,42.991,43.934,42.991
							c20.663,0,38.139-18.093,43.934-42.991l-7.627-1.274c-24.409-4.077-49.266-4.027-73.661,0.148L287.55,263.903z"/>
					</g>
					<g>
						<path style="fill:#B5B5B5;" d="M361.429,289.969c-7.576-5.031-18.034-8.143-29.587-8.143c-11.78,0-22.407,3.246-30.016,8.454
							c8.008,8.991,18.347,14.438,29.657,14.438C342.928,304.717,353.383,299.151,361.429,289.969z"/>
					</g>
				</g>
			</g>
			<g>
				<path style="fill:#FFFFFF;stroke:#263238;stroke-linecap:round;stroke-linejoin:round;stroke-miterlimit:10;" d="
					M323.952,165.011c0,0-2.031,6.094-3.772,9.576c-1.741,3.482,0.871,14.218,2.902,17.41c2.031,3.192,5.803,2.611,7.254,2.321
					c1.451-0.29,7.835-4.353,10.156-6.674c2.321-2.321,3.482-3.482,3.482-3.482s1.161,0,2.321-2.321
					c1.161-2.321-3.482-7.544-7.544-13.928c-4.062-6.384-5.803-6.093-5.803-6.093L323.952,165.011z"/>
				<path style="fill:none;stroke:#263238;stroke-linecap:round;stroke-linejoin:round;stroke-miterlimit:10;" d="M326.788,172.417
					c0,0-2.979,4.369-3.178,4.965c-0.199,0.596,2.383,1.589,2.383,1.589"/>
				<path style="fill:none;stroke:#263238;stroke-linecap:round;stroke-linejoin:round;stroke-miterlimit:10;" d="M331.753,172.417
					c0,0,2.781-1.39,4.37,1.986"/>
				<path style="fill:none;stroke:#263238;stroke-linecap:round;stroke-linejoin:round;stroke-miterlimit:10;" d="M325.397,171.623
					c0,0-1.39-1.986-3.376-0.199"/>
				<path style="fill:none;stroke:#263238;stroke-linecap:round;stroke-linejoin:round;stroke-miterlimit:10;" d="M333.143,167.452
					c0,0,2.979-0.795,4.568,3.774"/>
				<path style="fill:none;stroke:#263238;stroke-linecap:round;stroke-linejoin:round;stroke-miterlimit:10;" d="M327.185,168.048
					c0,0-2.582-1.986-4.171,1.192"/>
				<path style="fill:#263238;" d="M324.206,181.752c0,0,3.575,1.39,8.143-1.192c0,0-2.383,3.575-5.164,3.972
					C324.404,184.93,324.206,181.752,324.206,181.752z"/>
			</g>
			<g>
				<path style="fill:#FFFFFF;stroke:#263238;stroke-linecap:round;stroke-linejoin:round;stroke-miterlimit:10;" d="
					M291.892,223.05c0,0-12.565,10.555-14.576,17.34c-2.01,6.785-0.503,22.366-0.754,27.14c-0.251,4.775,3.016,10.052,4.523,11.057
					c1.508,1.005,1.759-0.754,1.508-2.513c-0.251-1.759-0.251-10.806-0.251-10.806s2.262,6.534,2.513,5.277
					c0.251-1.257,0.251-3.518-0.754-7.036c-1.005-3.518-3.518-8.544-3.267-9.549s8.293-16.083,9.549-20.858"/>
				<path style="fill:none;stroke:#263238;stroke-linecap:round;stroke-linejoin:round;stroke-miterlimit:10;" d="M281.758,278.495
					c0,0-1.592-4.377-2.388-9.948"/>
				<path style="fill:none;stroke:#263238;stroke-linecap:round;stroke-linejoin:round;stroke-miterlimit:10;" d="M279.967,277.301
					c0,0-1.592-3.183-2.587-8.357"/>
			</g>
			<g>
				<path style="fill:#FFFFFF;stroke:#263238;stroke-linecap:round;stroke-linejoin:round;stroke-miterlimit:10;" d="
					M374.764,223.05c0,0,12.565,10.555,14.575,17.34c2.01,6.785,0.503,22.366,0.754,27.14c0.251,4.775-3.016,10.052-4.523,11.057
					c-1.508,1.005-1.759-0.754-1.508-2.513c0.251-1.759,0.251-10.806,0.251-10.806s-2.262,6.534-2.513,5.277
					s-0.251-3.518,0.754-7.036c1.005-3.518,3.518-8.544,3.267-9.549c-0.251-1.005-8.293-16.083-9.549-20.858"/>
				<path style="fill:none;stroke:#263238;stroke-linecap:round;stroke-linejoin:round;stroke-miterlimit:10;" d="M384.822,278.097
					c0,0,1.592-6.168,1.592-10.346"/>
				<path style="fill:none;stroke:#263238;stroke-linecap:round;stroke-linejoin:round;stroke-miterlimit:10;" d="M386.613,277.898
					c0,0,2.388-6.566,2.388-9.152"/>
			</g>
		</g>
	</g>
</g>
<g id="Character_1">
	<g>
		<g>
			<ellipse style="fill:#C6FF00;" cx="155.87" cy="417" rx="82" ry="19.294"/>
			<ellipse style="opacity:0.5;fill:#FFFFFF;" cx="155.87" cy="417" rx="82" ry="19.294"/>
		</g>
		<g>
			<path style="fill:#C6FF00;stroke:#263238;stroke-linecap:round;stroke-linejoin:round;stroke-miterlimit:10;" d="
				M121.414,403.583c0,0-12.162,6.386-14.454,9.698c-2.293,3.312,0.76,5.94,5.329,6.26c4.569,0.321,23.378-6.011,25.084-6.833
				c1.706-0.822,0.466-5.795-0.767-8.353C135.372,401.797,121.414,403.583,121.414,403.583z"/>
			<path style="fill:#FFFFFF;stroke:#263238;stroke-linecap:round;stroke-linejoin:round;stroke-miterlimit:10;" d="
				M137.999,408.657c-4.823,2.111-18.124,7.801-22.71,8.388c-3.739,0.478-7.18-0.932-9.083-1.941
				c-0.305,2.414,2.392,4.179,6.082,4.438c4.569,0.321,23.378-6.011,25.084-6.833C138.314,412.255,138.355,410.536,137.999,408.657z
				"/>
			<path style="fill:#C6FF00;stroke:#263238;stroke-linecap:round;stroke-linejoin:round;stroke-miterlimit:10;" d="
				M180.306,403.583c0,0,12.162,6.386,14.454,9.698c2.293,3.312-0.76,5.94-5.329,6.26c-4.569,0.321-23.378-6.011-25.084-6.833
				c-1.706-0.822-0.466-5.795,0.768-8.353C166.348,401.797,180.306,403.583,180.306,403.583z"/>
			<path style="fill:#FFFFFF;stroke:#263238;stroke-linecap:round;stroke-linejoin:round;stroke-miterlimit:10;" d="
				M163.721,408.657c4.823,2.111,18.124,7.801,22.71,8.388c3.739,0.478,7.18-0.932,9.083-1.941c0.305,2.414-2.392,4.179-6.082,4.438
				c-4.569,0.321-23.378-6.011-25.084-6.833C163.406,412.255,163.364,410.536,163.721,408.657z"/>
			<g>
				<path style="fill:#263238;stroke:#263238;stroke-linecap:round;stroke-linejoin:round;stroke-miterlimit:10;" d="
					M127.431,278.453c0,0-11.074,47.902-12.613,54.739c-1.539,6.838-2.668,14.528-0.872,19.128c1.796,4.6,7.574,49.74,7.574,49.74
					l16.576,4.519c0,0,0.211-29.004-0.342-40.403c-0.554-11.399-1.19-25.806-1.19-25.806l17.621-43.91l2.908,3.854l13.188,39.363
					l-7.764,65.966l15.771-4.132c0,0,13.554-41.956,15.756-50.69c2.202-8.733,3.262-14.604,1.542-18.61
					c-1.72-4.006-12.882-48.759-12.882-48.759L127.431,278.453z"/>
				<path style="fill:none;stroke:#FFFFFF;stroke-linecap:round;stroke-linejoin:round;stroke-miterlimit:10;" d="M162.702,308.758
					c0,0,8.666,29.479,11.408,30.678c2.742,1.199,8.441-0.882,4.124,2.021c-4.317,2.903-4.009,0.207-4.317,2.903
					c-0.308,2.696-6.075,50.765-6.075,50.765"/>
				
					<line style="fill:none;stroke:#FFFFFF;stroke-linecap:round;stroke-linejoin:round;stroke-miterlimit:10;" x1="136.722" y1="381.102" x2="137.137" y2="384.667"/>
				<path style="fill:none;stroke:#FFFFFF;stroke-linecap:round;stroke-linejoin:round;stroke-miterlimit:10;" d="M146.044,311.916
					c-3.626,9.744-9.573,24.835-12.187,26.469c-3.894,2.434-8.772,3.132-6.053,3.885c2.719,0.753,4.524,1.107,4.524,1.107
					l3.772,32.391"/>
				<path style="fill:none;stroke:#FFFFFF;stroke-linecap:round;stroke-linejoin:round;stroke-miterlimit:10;" d="M149.039,303.656
					c0,0-0.403,1.152-1.082,3.037"/>
			</g>
			<g>
				<path style="fill:#FFFFFF;stroke:#263238;stroke-linecap:round;stroke-linejoin:round;stroke-miterlimit:10;" d="
					M160.92,200.516c0,0-26.826-4.414-37.638-6.35c-10.812-1.936-20.102-3.766-20.102-3.766l-4.709,15.091
					c0,0,21.449,7.215,27.099,8.907c5.65,1.692,7.881,2.613,7.881,2.613s0.739,36.429-1.577,44.271s-7.543,23.604-7.543,23.604
					l27.638,15.478l5.545-8.558l0.432,8.094c0,0,8.688-0.508,16.517-3.02c7.828-2.511,12.573-5.533,12.573-5.533l-6.208-27.277
					l8.474-35.193c0,0,42.682-8.482,42.933-11.231c0.252-2.749-5.868-12.832-5.868-12.832l-57.832-3.765L160.92,200.516z"/>
				<polygon style="fill:#FFFFFF;stroke:#263238;stroke-linecap:round;stroke-linejoin:round;stroke-miterlimit:10;" points="
					151.537,198.636 150.362,215.908 164.534,210.358 179.591,221.975 179.11,199.28 				"/>
				
					<line style="fill:none;stroke:#263238;stroke-linecap:round;stroke-linejoin:round;stroke-miterlimit:10;" x1="163.626" y1="224.016" x2="158.069" y2="290.159"/>
				<polyline style="fill:none;stroke:#263238;stroke-linecap:round;stroke-linejoin:round;stroke-miterlimit:10;" points="
					195.992,214.76 189.302,228.879 203.631,213.541 				"/>
				<polyline style="fill:none;stroke:#263238;stroke-linecap:round;stroke-linejoin:round;stroke-miterlimit:10;" points="
					128.979,206.112 133.451,217.012 122.471,202.597 				"/>
			</g>
			<g>
				<defs>
					<path id="XMLID_12_" d="M158.032,200.04l5.594,23.976l10.025-22.632l-5.116-0.333l-7.615-0.535
						C160.92,200.516,159.835,200.337,158.032,200.04z"/>
				</defs>
				<use xlink:href="#XMLID_12_"  style="overflow:visible;fill:#FFFFFF;"/>
				<clipPath id="XMLID_00000124150026628627145070000016943355633079175818_">
					<use xlink:href="#XMLID_12_"  style="overflow:visible;"/>
				</clipPath>
				<path style="clip-path:url(#XMLID_00000124150026628627145070000016943355633079175818_);fill:#C6FF00;" d="M158.032,200.04
					l5.594,23.976l10.025-22.632l-5.116-0.333l-7.615-0.535C160.92,200.516,159.835,200.337,158.032,200.04z"/>
				<path style="opacity:0.5;clip-path:url(#XMLID_00000124150026628627145070000016943355633079175818_);fill:#FFFFFF;" d="
					M158.032,200.04l5.594,23.976l10.025-22.632l-5.116-0.333l-7.615-0.535C160.92,200.516,159.835,200.337,158.032,200.04z"/>
				
					<use xlink:href="#XMLID_12_"  style="overflow:visible;fill:none;stroke:#263238;stroke-linecap:round;stroke-linejoin:round;stroke-miterlimit:10;"/>
			</g>
			<path style="fill:#FFFFFF;stroke:#263238;stroke-linecap:round;stroke-linejoin:round;stroke-miterlimit:10;" d="
				M242.808,212.164c0,0,0.486,3.987-1.728,5.741c-2.214,1.754-11.557,4.781-14.176,3.211c-2.619-1.569-6.33-9.885-4.884-15.726
				c1.446-5.841,10.209-3.672,10.209-3.672S240.789,204.452,242.808,212.164z"/>
			<g>
				<path style="fill:#FFFFFF;stroke:#263238;stroke-linecap:round;stroke-linejoin:round;stroke-miterlimit:10;" d="
					M234.888,216.398c-4.099,0.23-7.713-2.709-8.745-6.683c-2.61-10.042-8.966-33.674-11.389-35.287
					c-3.083-2.052-5.439-2.574-5.4-4.468c0.039-1.893,0.195-9.466,0.195-9.466s1.368-2.055,2.276-0.143
					c0.908,1.913,0.687,3.423,0.687,3.423s1.508-4.23,1.346-5.559c-0.162-1.329-0.466-4.934-0.447-5.881
					c0.02-0.947,1.268-1.773,3.122,0.159c1.854,1.932,5.462,6.079,4.758,8.053c-0.704,1.974-1.946,11.703-1.946,11.703
					s23.163,34.001,22.721,37.023C241.75,211.43,239.885,216.117,234.888,216.398z"/>
				<path style="fill:none;stroke:#263238;stroke-linecap:round;stroke-linejoin:round;stroke-miterlimit:10;" d="M219.214,155.785
					c0,0-1.653-0.983-1.57,0.615s0.977,3.42,0.977,3.42l-1.139,3.796"/>
				<path style="fill:none;stroke:#263238;stroke-linecap:round;stroke-linejoin:round;stroke-miterlimit:10;" d="M217.992,154.513
					c0,0-1.466-0.814-1.898,1.166c-0.432,1.98,0.556,3.887,0.556,3.887l-0.882,3.605"/>
				<path style="fill:none;stroke:#263238;stroke-linecap:round;stroke-linejoin:round;stroke-miterlimit:10;" d="M216.532,152.494
					c0,0-2.218-0.283-2.127,1.492c0.092,1.775,0.761,4.41,0.761,4.41l-0.827,4.67"/>
			</g>
			<g>
				<g>
					<defs>
						
							<ellipse id="SVGID_1_" transform="matrix(0.3763 -0.9265 0.9265 0.3763 -25.3657 249.6276)" cx="172.722" cy="143.654" rx="62.007" ry="62.007"/>
					</defs>
					<use xlink:href="#SVGID_1_"  style="overflow:visible;fill:#C6FF00;"/>
					<clipPath id="SVGID_00000142865034396143016460000004797934539701773981_">
						<use xlink:href="#SVGID_1_"  style="overflow:visible;"/>
					</clipPath>
					<path style="opacity:0.3;clip-path:url(#SVGID_00000142865034396143016460000004797934539701773981_);" d="M129.925,141.14
						c1.245-30.119,23.778-54.32,52.495-58.721c-2.338-0.367-4.715-0.62-7.136-0.72c-34.217-1.414-63.101,25.177-64.515,59.393
						c-1.414,34.217,25.177,63.101,59.394,64.515c4.097,0.169,8.115-0.073,12.021-0.672
						C151.484,200.112,128.611,172.936,129.925,141.14z"/>
					
						<use xlink:href="#SVGID_1_"  style="overflow:visible;fill:none;stroke:#263238;stroke-linecap:round;stroke-linejoin:round;stroke-miterlimit:10;"/>
				</g>
				<path style="fill:#263238;" d="M135.141,149.229c0,0,45.512-5.991,83.171,3.438c0,0-3.532,37.802-42.855,36.933
					C141.375,188.847,135.141,149.229,135.141,149.229z"/>
				<g>
					<path style="fill:#263238;" d="M177.357,129.583c-1.486,0-2.777-1.105-2.972-2.618C173.435,119.574,166.713,114,158.75,114
						c-7.097,0-13.349,4.475-15.203,10.882c-0.461,1.592-2.128,2.508-3.716,2.048c-1.592-0.461-2.508-2.125-2.048-3.716
						C140.376,114.256,148.998,108,158.75,108c10.972,0,20.252,7.824,21.587,18.199c0.211,1.644-0.95,3.147-2.593,3.358
						C177.614,129.574,177.485,129.583,177.357,129.583z"/>
				</g>
				<g>
					<path style="fill:#263238;" d="M221.041,136.703c-1.618,0-2.952-1.288-2.998-2.916c-0.184-6.587-5.613-12.086-12.63-12.791
						c-6.251-0.62-12.157,2.758-14.356,8.233c-0.618,1.538-2.365,2.284-3.902,1.666c-1.538-0.618-2.284-2.365-1.667-3.902
						c3.188-7.94,11.618-12.859,20.524-11.968c10.01,1.005,17.761,8.998,18.029,18.593c0.046,1.656-1.259,3.036-2.916,3.083
						C221.098,136.703,221.07,136.703,221.041,136.703z"/>
				</g>
				<path style="fill:#FFFFFF;" d="M141.066,150.385c0.369,1.5,3.116,9.714,19.182,10.378c17.682,0.731,35.337,2.116,44.532,1.841
					c5.499-0.165,8.126-4.899,9.359-8.684C186.297,147.558,154.962,149.178,141.066,150.385z"/>
				<path style="fill:#B5B5B5;" d="M187.227,186.571c0.011-8.889-9.531-16.414-21.641-16.914c-6.71-0.277-12.804,1.669-17.041,4.957
					c6.082,6.97,14.887,12.602,27.53,12.881C180.177,187.586,183.868,187.235,187.227,186.571z"/>
			</g>
			<polygon style="fill:#FFFFFF;stroke:#263238;stroke-linecap:round;stroke-linejoin:round;stroke-miterlimit:10;" points="
				119.632,403.811 139.444,410.029 139.605,401.858 118.833,397.575 			"/>
			<polygon style="fill:#FFFFFF;stroke:#263238;stroke-linecap:round;stroke-linejoin:round;stroke-miterlimit:10;" points="
				160.325,405.017 162.76,412.251 182.27,404.321 180.802,397.566 			"/>
			<path style="fill:#FFFFFF;stroke:#263238;stroke-linecap:round;stroke-linejoin:round;stroke-miterlimit:10;" d="M87.6,196.017
				c0,0-1.326,3.792,0.463,5.977c1.789,2.186,10.271,7.137,13.164,6.163c2.894-0.974,8.294-8.306,8.128-14.322
				c-0.166-6.016-9.19-5.766-9.19-5.766S91.218,188.913,87.6,196.017z"/>
			<g>
				<path style="fill:#FFFFFF;stroke:#263238;stroke-linecap:round;stroke-linejoin:round;stroke-miterlimit:10;" d="
					M92.376,201.281c3.956,1.1,8.113-1.001,9.97-4.663c4.693-9.254,15.946-30.985,18.657-32.043c3.45-1.347,5.863-1.354,6.229-3.212
					c0.366-1.858,1.829-9.29,1.829-9.29s-0.898-2.3-2.193-0.625c-1.295,1.675-1.402,3.198-1.402,3.198s-0.57-4.455-0.128-5.719
					c0.442-1.264,1.509-4.721,1.691-5.65c0.183-0.929-0.86-2.003-3.084-0.511c-2.224,1.492-6.633,4.773-6.367,6.852
					c0.266,2.079-0.596,11.848-0.596,11.848s-29.885,28.275-30.099,31.321C86.732,194.964,87.554,199.941,92.376,201.281z"/>
				<path style="fill:none;stroke:#263238;stroke-linecap:round;stroke-linejoin:round;stroke-miterlimit:10;" d="M123.947,142.767
					c0,0-2.342,5.686-2.272,7.057c0.071,1.372-0.062,4.129-0.062,4.129"/>
				<path style="fill:none;stroke:#263238;stroke-linecap:round;stroke-linejoin:round;stroke-miterlimit:10;" d="M120.831,145.087
					c0,0-1.209,3.725-1.261,4.805c-0.052,1.08-0.117,3.992-0.117,3.992"/>
			</g>
		</g>
	</g>
</g>
</svg>
