<?xml version="1.0" encoding="utf-8"?>
<!-- Generator: Adobe Illustrator 27.5.0, SVG Export Plug-In . SVG Version: 6.00 Build 0)  -->
<svg version="1.1" xmlns="http://www.w3.org/2000/svg" xmlns:xlink="http://www.w3.org/1999/xlink" x="0px" y="0px"
	 viewBox="0 0 500 500" style="enable-background:new 0 0 500 500;" xml:space="preserve">
<g id="Background_Simple">
	<g>
		<path style="fill:#C6FF00;" d="M64.305,225.372c0,0-22.172,56.803,10.424,101.432c32.596,44.63,88.038,43.401,131.003,57.438
			c22.5,7.351,36.446,27.392,55.897,39.59c62.194,39.003,155.602-15.638,176.988-78.743c18.514-54.629,5.646-105.742-38.576-159.173
			c-44.222-53.431-73.197-92.939-152.661-101.293C167.915,76.271,96.039,153.291,64.305,225.372z"/>
		<path style="opacity:0.75;fill:#FFFFFF;" d="M64.305,225.372c0,0-22.172,56.803,10.424,101.432
			c32.596,44.63,88.038,43.401,131.003,57.438c22.5,7.351,36.446,27.392,55.897,39.59c62.194,39.003,155.602-15.638,176.988-78.743
			c18.514-54.629,5.646-105.742-38.576-159.173c-44.222-53.431-73.197-92.939-152.661-101.293
			C167.915,76.271,96.039,153.291,64.305,225.372z"/>
	</g>
</g>
<g id="Plants">
	<g>
		<g>
			<path style="fill:#C6FF00;" d="M86.617,314.975c-1.335,4.283-3.333,1.093-4.502-16.299c-0.548-8.151-1.355-24.833,7.953-21.919
				c8.943,2.8-0.417,28.34-0.417,28.34L86.617,314.975z M99.187,316.412c0,0,17.147-21.116,9.598-26.668
				c-7.857-5.779-12.511,10.261-14.641,18.148c-4.543,16.83-3.69,20.495-1.036,16.878L99.187,316.412z M104.601,333.637
				c0,0,16.169-13.66,11.203-18.999c-5.17-5.557-11.052,6.032-13.823,11.754c-5.912,12.209-5.791,15.135-3.237,12.754
				L104.601,333.637z M110.704,350.753c0,0,16.169-13.66,11.203-18.999c-5.17-5.557-11.052,6.032-13.823,11.754
				c-5.912,12.209-5.791,15.135-3.238,12.754L110.704,350.753z M77.775,318.055c0,0-25.084-10.521-28.291-1.716
				c-3.338,9.164,13.363,9.123,21.531,8.95c17.428-0.37,20.706-2.219,16.489-3.75L77.775,318.055z M82.304,331.552
				c0,0-26.675-5.325-28.068,3.942c-1.45,9.645,14.91,6.285,22.881,4.491c17.007-3.827,19.852-6.291,15.415-6.952L82.304,331.552z
				 M89.514,346.079c0,0-22.681-3.886-23.644,3.983c-1.003,8.19,12.754,4.97,19.453,3.269c14.294-3.629,16.642-5.779,12.874-6.236
				L89.514,346.079z M94.019,358.191c0,0-22.141-6.271-23.934,1.451c-1.867,8.037,12.155,6.296,18.996,5.315
				c14.598-2.092,17.162-3.98,13.464-4.834L94.019,358.191z M74.43,296.562c0,0-12.331-29.651-22.998-23.194
				c-11.104,6.72,3.417,19.348,10.656,25.37c15.446,12.848,19.945,13.467,17.659,8.723L74.43,296.562z"/>
			<path style="opacity:0.4;fill:#FFFFFF;" d="M86.617,314.975c-1.335,4.283-3.333,1.093-4.502-16.299
				c-0.548-8.151-1.355-24.833,7.953-21.919c8.943,2.8-0.417,28.34-0.417,28.34L86.617,314.975z M99.187,316.412
				c0,0,17.147-21.116,9.598-26.668c-7.857-5.779-12.511,10.261-14.641,18.148c-4.543,16.83-3.69,20.495-1.036,16.878
				L99.187,316.412z M104.601,333.637c0,0,16.169-13.66,11.203-18.999c-5.17-5.557-11.052,6.032-13.823,11.754
				c-5.912,12.209-5.791,15.135-3.237,12.754L104.601,333.637z M110.704,350.753c0,0,16.169-13.66,11.203-18.999
				c-5.17-5.557-11.052,6.032-13.823,11.754c-5.912,12.209-5.791,15.135-3.238,12.754L110.704,350.753z M77.775,318.055
				c0,0-25.084-10.521-28.291-1.716c-3.338,9.164,13.363,9.123,21.531,8.95c17.428-0.37,20.706-2.219,16.489-3.75L77.775,318.055z
				 M82.304,331.552c0,0-26.675-5.325-28.068,3.942c-1.45,9.645,14.91,6.285,22.881,4.491c17.007-3.827,19.852-6.291,15.415-6.952
				L82.304,331.552z M89.514,346.079c0,0-22.681-3.886-23.644,3.983c-1.003,8.19,12.754,4.97,19.453,3.269
				c14.294-3.629,16.642-5.779,12.874-6.236L89.514,346.079z M94.019,358.191c0,0-22.141-6.271-23.934,1.451
				c-1.867,8.037,12.155,6.296,18.996,5.315c14.598-2.092,17.162-3.98,13.464-4.834L94.019,358.191z M74.43,296.562
				c0,0-12.331-29.651-22.998-23.194c-11.104,6.72,3.417,19.348,10.656,25.37c15.446,12.848,19.945,13.467,17.659,8.723
				L74.43,296.562z"/>
			
				<path style="fill:none;stroke:#C6FF00;stroke-width:1.252;stroke-linecap:round;stroke-linejoin:round;stroke-miterlimit:10;" d="
				M56.988,283.837c0,0,27.111,27.994,34.249,42.542c8.201,16.714,14.355,36.24,16.605,52.282"/>
			
				<line style="fill:none;stroke:#C6FF00;stroke-width:1.252;stroke-linecap:round;stroke-linejoin:round;stroke-miterlimit:10;" x1="85.522" y1="316.976" x2="86.569" y2="288.048"/>
			
				<line style="fill:none;stroke:#C6FF00;stroke-width:1.252;stroke-linecap:round;stroke-linejoin:round;stroke-miterlimit:10;" x1="91.237" y1="326.379" x2="101.624" y2="301.275"/>
			
				<line style="fill:none;stroke:#C6FF00;stroke-width:1.252;stroke-linecap:round;stroke-linejoin:round;stroke-miterlimit:10;" x1="89.132" y1="322.96" x2="62.756" y2="319.829"/>
			
				<line style="fill:none;stroke:#C6FF00;stroke-width:1.252;stroke-linecap:round;stroke-linejoin:round;stroke-miterlimit:10;" x1="97.243" y1="339.635" x2="111.052" y2="320.995"/>
			
				<line style="fill:none;stroke:#C6FF00;stroke-width:1.252;stroke-linecap:round;stroke-linejoin:round;stroke-miterlimit:10;" x1="94.637" y1="334.089" x2="75.042" y2="335.543"/>
			
				<line style="fill:none;stroke:#C6FF00;stroke-width:1.252;stroke-linecap:round;stroke-linejoin:round;stroke-miterlimit:10;" x1="99.586" y1="347.992" x2="84.619" y2="349.832"/>
			
				<line style="fill:none;stroke:#C6FF00;stroke-width:1.252;stroke-linecap:round;stroke-linejoin:round;stroke-miterlimit:10;" x1="103.425" y1="356.809" x2="110.577" y2="345.422"/>
			
				<line style="fill:none;stroke:#C6FF00;stroke-width:1.252;stroke-linecap:round;stroke-linejoin:round;stroke-miterlimit:10;" x1="104.343" y1="360.746" x2="86.706" y2="361.329"/>
		</g>
	</g>
	<g>
		<g>
			<path style="fill:#C6FF00;" d="M424.777,230.218c-5.018,2.709-4.003-1.966,10.381-18.823c6.741-7.9,20.823-23.789,26.7-12.872
				c5.647,10.489-25.548,25.406-25.548,25.406L424.777,230.218z M434.933,242.688c0,0,34.349-3.977,32.414-15.731
				c-2.013-12.234-20.492-1.779-29.433,3.503c-19.079,11.272-21.557,15.364-15.932,14.431L434.933,242.688z M424.559,263.163
				c0,0,26.838,1.937,27.062-7.33c0.233-9.645-15.409-4.33-23.011-1.586c-16.22,5.853-18.708,8.622-14.272,8.725L424.559,263.163z
				 M414.91,284.151c0,0,26.838,1.937,27.062-7.33c0.233-9.645-15.409-4.33-23.011-1.587c-16.22,5.853-18.708,8.622-14.272,8.725
				L414.91,284.151z M413.999,225.167c0,0-13.47-31.846-24.207-26.687c-11.175,5.37,4.052,20.166,11.634,27.262
				c16.179,15.142,20.803,16.371,18.327,11.234L413.999,225.167z M406.132,241.464c0,0-19.532-28.533-29.029-21.342
				c-9.884,7.485,7.979,18.958,16.821,24.406c18.867,11.624,23.642,11.909,20.194,7.367L406.132,241.464z M399.788,261.08
				c0,0-17.178-23.677-25.042-17.377c-8.186,6.558,7.186,15.847,14.79,20.25c16.223,9.393,20.269,9.524,17.248,5.762L399.788,261.08
				z M393.128,276.097c0,0-14.568-25.367-23.056-19.937c-8.836,5.652,5.464,16.521,12.557,21.705
				c15.135,11.062,19.143,11.621,16.539,7.561L393.128,276.097z M430.046,202.648c0,0,15.118-37.919-0.318-41.521
				c-16.067-3.749-14.075,20.633-12.839,32.538c2.638,25.403,6.18,29.962,8.314,23.616L430.046,202.648z"/>
			<path style="opacity:0.4;fill:#FFFFFF;" d="M424.777,230.218c-5.018,2.709-4.003-1.966,10.381-18.823
				c6.741-7.9,20.823-23.789,26.7-12.872c5.647,10.489-25.548,25.406-25.548,25.406L424.777,230.218z M434.933,242.688
				c0,0,34.349-3.977,32.414-15.731c-2.013-12.234-20.492-1.779-29.433,3.503c-19.079,11.272-21.557,15.364-15.932,14.431
				L434.933,242.688z M424.559,263.163c0,0,26.838,1.937,27.062-7.33c0.233-9.645-15.409-4.33-23.011-1.586
				c-16.22,5.853-18.708,8.622-14.272,8.725L424.559,263.163z M414.91,284.151c0,0,26.838,1.937,27.062-7.33
				c0.233-9.645-15.409-4.33-23.011-1.587c-16.22,5.853-18.708,8.622-14.272,8.725L414.91,284.151z M413.999,225.167
				c0,0-13.47-31.846-24.207-26.687c-11.175,5.37,4.052,20.166,11.634,27.262c16.179,15.142,20.803,16.371,18.327,11.234
				L413.999,225.167z M406.132,241.464c0,0-19.532-28.533-29.029-21.342c-9.884,7.485,7.979,18.958,16.821,24.406
				c18.867,11.624,23.642,11.909,20.194,7.367L406.132,241.464z M399.788,261.08c0,0-17.178-23.677-25.042-17.377
				c-8.186,6.558,7.186,15.847,14.79,20.25c16.223,9.393,20.269,9.524,17.248,5.762L399.788,261.08z M393.128,276.097
				c0,0-14.568-25.367-23.056-19.937c-8.836,5.652,5.464,16.521,12.557,21.705c15.135,11.062,19.143,11.621,16.539,7.561
				L393.128,276.097z M430.046,202.648c0,0,15.118-37.919-0.318-41.521c-16.067-3.749-14.075,20.633-12.839,32.538
				c2.638,25.403,6.18,29.962,8.314,23.616L430.046,202.648z"/>
			
				<path style="fill:none;stroke:#C6FF00;stroke-width:1.252;stroke-linecap:round;stroke-linejoin:round;stroke-miterlimit:10;" d="
				M425.483,175.583c0,0-0.204,49.539-6.632,69.11c-7.385,22.485-19.13,45.709-31.33,62.299"/>
			
				<line style="fill:none;stroke:#C6FF00;stroke-width:1.252;stroke-linecap:round;stroke-linejoin:round;stroke-miterlimit:10;" x1="422.003" y1="231.066" x2="448.648" y2="205.685"/>
			
				<line style="fill:none;stroke:#C6FF00;stroke-width:1.252;stroke-linecap:round;stroke-linejoin:round;stroke-miterlimit:10;" x1="418.851" y1="244.693" x2="450.593" y2="231.086"/>
			
				<line style="fill:none;stroke:#C6FF00;stroke-width:1.252;stroke-linecap:round;stroke-linejoin:round;stroke-miterlimit:10;" x1="419.973" y1="239.715" x2="398.764" y2="213.442"/>
			
				<line style="fill:none;stroke:#C6FF00;stroke-width:1.252;stroke-linecap:round;stroke-linejoin:round;stroke-miterlimit:10;" x1="412.541" y1="262.084" x2="441.655" y2="257.395"/>
			
				<line style="fill:none;stroke:#C6FF00;stroke-width:1.252;stroke-linecap:round;stroke-linejoin:round;stroke-miterlimit:10;" x1="415.096" y1="254.725" x2="395.982" y2="238.646"/>
			
				<line style="fill:none;stroke:#C6FF00;stroke-width:1.252;stroke-linecap:round;stroke-linejoin:round;stroke-miterlimit:10;" x1="407.249" y1="271.766" x2="392.003" y2="260.147"/>
			
				<line style="fill:none;stroke:#C6FF00;stroke-width:1.252;stroke-linecap:round;stroke-linejoin:round;stroke-miterlimit:10;" x1="402.911" y1="283.193" x2="419.529" y2="279.189"/>
			
				<line style="fill:none;stroke:#C6FF00;stroke-width:1.252;stroke-linecap:round;stroke-linejoin:round;stroke-miterlimit:10;" x1="400.249" y1="287.59" x2="383.69" y2="272.457"/>
		</g>
	</g>
	<g>
		<g>
			<path style="fill:#C6FF00;" d="M273.274,214.622c-1.882,2.866-2.679,0.102,0.121-12.923c1.313-6.104,4.229-18.531,10.455-14.432
				c5.981,3.939-6.268,20.735-6.268,20.735L273.274,214.622z M282.207,218.322c0,0,17.041-11.907,12.663-17.575
				c-4.557-5.899-11.351,4.907-14.575,10.254c-6.879,11.41-7.023,14.282-4.312,12.183L282.207,218.322z M282.561,232.117
				c0,0,14.754-6.635,12.228-11.602c-2.629-5.171-9.39,2.107-12.629,5.728c-6.913,7.726-7.439,9.902-5.062,8.69L282.561,232.117z
				 M283.445,245.977c0,0,14.754-6.635,12.228-11.602c-2.629-5.17-9.39,2.107-12.629,5.728c-6.913,7.727-7.439,9.902-5.062,8.69
				L283.445,245.977z M266.129,215.025c0,0-16.217-13.007-20.425-7.213c-4.381,6.031,7.899,9.515,13.937,11.106
				c12.883,3.395,15.68,2.726,12.904,0.714L266.129,215.025z M266.617,225.894c0,0-18.479-9.524-21.452-3.009
				c-3.094,6.782,9.633,7.755,15.866,8.114c13.301,0.766,15.909-0.446,12.788-1.865L266.617,225.894z M268.859,238.085
				c0,0-15.847-7.627-18.21-2.048c-2.46,5.806,8.325,6.335,13.605,6.494c11.266,0.341,13.443-0.745,10.771-1.873L268.859,238.085z
				 M269.62,247.932c0,0-14.948-9.266-17.89-3.969c-3.062,5.512,7.606,7.183,12.839,7.902c11.166,1.534,13.447,0.686,10.909-0.719
				L269.62,247.932z M268.194,198.529c0,0-2.822-24.38-12.018-21.88c-9.572,2.602-1.559,14.935,2.493,20.882
				c8.646,12.689,11.821,14.091,11.139,10.124L268.194,198.529z"/>
			<path style="opacity:0.4;fill:#FFFFFF;" d="M273.274,214.622c-1.882,2.866-2.679,0.102,0.121-12.923
				c1.313-6.104,4.229-18.531,10.455-14.432c5.981,3.939-6.268,20.735-6.268,20.735L273.274,214.622z M282.207,218.322
				c0,0,17.041-11.907,12.663-17.575c-4.557-5.899-11.351,4.907-14.575,10.254c-6.879,11.41-7.023,14.282-4.312,12.183
				L282.207,218.322z M282.561,232.117c0,0,14.754-6.635,12.228-11.602c-2.629-5.171-9.39,2.107-12.629,5.728
				c-6.913,7.726-7.439,9.902-5.062,8.69L282.561,232.117z M283.445,245.977c0,0,14.754-6.635,12.228-11.602
				c-2.629-5.17-9.39,2.107-12.629,5.728c-6.913,7.727-7.439,9.902-5.062,8.69L283.445,245.977z M266.129,215.025
				c0,0-16.217-13.007-20.425-7.213c-4.381,6.031,7.899,9.515,13.937,11.106c12.883,3.395,15.68,2.726,12.904,0.714L266.129,215.025
				z M266.617,225.894c0,0-18.479-9.524-21.452-3.009c-3.094,6.782,9.633,7.755,15.866,8.114
				c13.301,0.766,15.909-0.446,12.788-1.865L266.617,225.894z M268.859,238.085c0,0-15.847-7.627-18.21-2.048
				c-2.46,5.806,8.325,6.335,13.605,6.494c11.266,0.341,13.443-0.745,10.771-1.873L268.859,238.085z M269.62,247.932
				c0,0-14.948-9.266-17.89-3.969c-3.062,5.512,7.606,7.183,12.839,7.902c11.166,1.534,13.447,0.686,10.909-0.719L269.62,247.932z
				 M268.194,198.529c0,0-2.822-24.38-12.018-21.88c-9.572,2.602-1.559,14.935,2.493,20.882
				c8.646,12.689,11.821,14.091,11.139,10.124L268.194,198.529z"/>
			
				<path style="fill:none;stroke:#C6FF00;stroke-width:1.252;stroke-linecap:round;stroke-linejoin:round;stroke-miterlimit:10;" d="
				M258.055,185.51c0,0,14.03,26.272,16.214,38.463c2.509,14.006,2.923,29.647,1.201,41.908"/>
			
				<line style="fill:none;stroke:#C6FF00;stroke-width:1.252;stroke-linecap:round;stroke-linejoin:round;stroke-miterlimit:10;" x1="272.048" y1="215.862" x2="278.904" y2="194.827"/>
			
				<line style="fill:none;stroke:#C6FF00;stroke-width:1.252;stroke-linecap:round;stroke-linejoin:round;stroke-miterlimit:10;" x1="274.269" y1="223.973" x2="287.183" y2="207.714"/>
			
				<line style="fill:none;stroke:#C6FF00;stroke-width:1.252;stroke-linecap:round;stroke-linejoin:round;stroke-miterlimit:10;" x1="273.442" y1="221.018" x2="254.721" y2="213.169"/>
			
				<line style="fill:none;stroke:#C6FF00;stroke-width:1.252;stroke-linecap:round;stroke-linejoin:round;stroke-miterlimit:10;" x1="275.893" y1="234.977" x2="289.961" y2="224.186"/>
			
				<line style="fill:none;stroke:#C6FF00;stroke-width:1.252;stroke-linecap:round;stroke-linejoin:round;stroke-miterlimit:10;" x1="275.146" y1="230.353" x2="260.442" y2="227.299"/>
			
				<line style="fill:none;stroke:#C6FF00;stroke-width:1.252;stroke-linecap:round;stroke-linejoin:round;stroke-miterlimit:10;" x1="275.857" y1="241.61" x2="264.473" y2="239.813"/>
			
				<line style="fill:none;stroke:#C6FF00;stroke-width:1.252;stroke-linecap:round;stroke-linejoin:round;stroke-miterlimit:10;" x1="276.822" y1="248.895" x2="284.473" y2="242.034"/>
			
				<line style="fill:none;stroke:#C6FF00;stroke-width:1.252;stroke-linecap:round;stroke-linejoin:round;stroke-miterlimit:10;" x1="276.668" y1="251.981" x2="263.587" y2="248.699"/>
		</g>
	</g>
	<g>
		<g>
			<path style="fill:#C6FF00;" d="M76.926,390.465c1.31,2.443-0.961,1.943-9.135-5.073c-3.831-3.288-11.534-10.155-6.22-12.996
				c5.106-2.73,12.313,12.454,12.313,12.454L76.926,390.465z M83.002,385.546c0,0-1.885-16.702-7.601-15.778
				c-5.949,0.961-0.894,9.958,1.662,14.312c5.452,9.29,7.438,10.5,6.992,7.764L83.002,385.546z M92.94,390.617
				c0,0,0.979-13.043-3.525-13.165c-4.688-0.127-2.126,7.484-0.804,11.183c2.822,7.893,4.165,9.106,4.221,6.949L92.94,390.617z
				 M103.128,395.337c0,0,0.979-13.043-3.525-13.165c-4.688-0.127-2.126,7.484-0.804,11.183c2.822,7.893,4.165,9.106,4.221,6.949
				L103.128,395.337z M74.456,395.697c0,0-15.499,6.503-13.006,11.729c2.595,5.439,9.808-1.941,13.268-5.617
				c7.383-7.843,7.987-10.089,5.486-8.892L74.456,395.697z M82.367,399.544c0,0-13.897,9.454-10.415,14.08
				c3.624,4.815,9.226-3.852,11.887-8.142c5.677-9.154,5.822-11.475,3.609-9.806L82.367,399.544z M91.893,402.655
				c0,0-11.533,8.316-8.482,12.148c3.176,3.988,7.713-3.471,9.864-7.161c4.589-7.873,4.658-9.839,2.825-8.376L91.893,402.655z
				 M99.183,405.913c0,0-12.351,7.046-9.723,11.179c2.735,4.303,8.038-2.633,10.568-6.073c5.398-7.341,5.676-9.289,3.698-8.029
				L99.183,405.913z M63.532,387.866c0,0-18.41-7.402-20.183,0.097c-1.845,7.805,10.009,6.871,15.798,6.286
				c12.351-1.247,14.572-2.962,11.491-4.008L63.532,387.866z"/>
			<path style="opacity:0.4;fill:#FFFFFF;" d="M76.926,390.465c1.31,2.443-0.961,1.943-9.135-5.073
				c-3.831-3.288-11.534-10.155-6.22-12.996c5.106-2.73,12.313,12.454,12.313,12.454L76.926,390.465z M83.002,385.546
				c0,0-1.885-16.702-7.601-15.778c-5.949,0.961-0.894,9.958,1.662,14.312c5.452,9.29,7.438,10.5,6.992,7.764L83.002,385.546z
				 M92.94,390.617c0,0,0.979-13.043-3.525-13.165c-4.688-0.127-2.126,7.484-0.804,11.183c2.822,7.893,4.165,9.106,4.221,6.949
				L92.94,390.617z M103.128,395.337c0,0,0.979-13.043-3.525-13.165c-4.688-0.127-2.126,7.484-0.804,11.183
				c2.822,7.893,4.165,9.106,4.221,6.949L103.128,395.337z M74.456,395.697c0,0-15.499,6.503-13.006,11.729
				c2.595,5.439,9.808-1.941,13.268-5.617c7.383-7.843,7.987-10.089,5.486-8.892L74.456,395.697z M82.367,399.544
				c0,0-13.897,9.454-10.415,14.08c3.624,4.815,9.226-3.852,11.887-8.142c5.677-9.154,5.822-11.475,3.609-9.806L82.367,399.544z
				 M91.893,402.655c0,0-11.533,8.316-8.482,12.148c3.176,3.988,7.713-3.471,9.864-7.161c4.589-7.873,4.658-9.839,2.825-8.376
				L91.893,402.655z M99.183,405.913c0,0-12.351,7.046-9.723,11.179c2.735,4.303,8.038-2.633,10.568-6.073
				c5.398-7.341,5.676-9.289,3.698-8.029L99.183,405.913z M63.532,387.866c0,0-18.41-7.402-20.183,0.097
				c-1.845,7.805,10.009,6.871,15.798,6.286c12.351-1.247,14.572-2.962,11.491-4.008L63.532,387.866z"/>
			
				<path style="fill:none;stroke:#C6FF00;stroke-width:1.252;stroke-linecap:round;stroke-linejoin:round;stroke-miterlimit:10;" d="
				M50.37,390.045c0,0,24.08,0.169,33.584,3.321c10.919,3.621,22.192,9.363,30.238,15.316"/>
			
				<line style="fill:none;stroke:#C6FF00;stroke-width:1.252;stroke-linecap:round;stroke-linejoin:round;stroke-miterlimit:10;" x1="77.334" y1="391.815" x2="65.035" y2="378.828"/>
			
				<line style="fill:none;stroke:#C6FF00;stroke-width:1.252;stroke-linecap:round;stroke-linejoin:round;stroke-miterlimit:10;" x1="83.954" y1="393.366" x2="77.384" y2="377.918"/>
			
				<line style="fill:none;stroke:#C6FF00;stroke-width:1.252;stroke-linecap:round;stroke-linejoin:round;stroke-miterlimit:10;" x1="81.536" y1="392.814" x2="68.735" y2="403.086"/>
			
				<line style="fill:none;stroke:#C6FF00;stroke-width:1.252;stroke-linecap:round;stroke-linejoin:round;stroke-miterlimit:10;" x1="92.399" y1="396.458" x2="90.16" y2="382.299"/>
			
				<line style="fill:none;stroke:#C6FF00;stroke-width:1.252;stroke-linecap:round;stroke-linejoin:round;stroke-miterlimit:10;" x1="88.825" y1="395.205" x2="80.982" y2="404.474"/>
			
				<line style="fill:none;stroke:#C6FF00;stroke-width:1.252;stroke-linecap:round;stroke-linejoin:round;stroke-miterlimit:10;" x1="97.097" y1="399.043" x2="91.428" y2="406.438"/>
			
				<line style="fill:none;stroke:#C6FF00;stroke-width:1.252;stroke-linecap:round;stroke-linejoin:round;stroke-miterlimit:10;" x1="102.646" y1="401.168" x2="100.723" y2="393.085"/>
			
				<line style="fill:none;stroke:#C6FF00;stroke-width:1.252;stroke-linecap:round;stroke-linejoin:round;stroke-miterlimit:10;" x1="104.779" y1="402.468" x2="97.4" y2="410.496"/>
		</g>
	</g>
</g>
<g id="Device_2">
	<g>
		<path style="fill:#808080;stroke:#263238;stroke-linecap:round;stroke-linejoin:round;stroke-miterlimit:10;" d="M395.722,433.691
			h-287.01c-4.721,0-8.549-3.827-8.549-8.549V244.273c0-4.721,3.827-8.549,8.549-8.549h287.01c4.721,0,8.549,3.827,8.549,8.549
			v180.869C404.271,429.863,400.443,433.691,395.722,433.691z"/>
		
			<rect x="100.163" y="257.874" style="fill:#808080;stroke:#263238;stroke-linecap:round;stroke-linejoin:round;stroke-miterlimit:10;" width="277.822" height="153.667"/>
		
			<rect x="156.584" y="257.874" style="fill:#263238;stroke:#263238;stroke-linecap:round;stroke-linejoin:round;stroke-miterlimit:10;" width="221.402" height="153.667"/>
		
			<circle style="fill:#808080;stroke:#263238;stroke-linecap:round;stroke-linejoin:round;stroke-miterlimit:10;" cx="128.582" cy="334.707" r="15.165"/>
		
			<circle style="fill:#263238;stroke:#263238;stroke-linecap:round;stroke-linejoin:round;stroke-miterlimit:10;" cx="128.582" cy="334.707" r="8.179"/>
		<g>
			
				<rect x="121.2" y="265.769" style="fill:#808080;stroke:#263238;stroke-linecap:round;stroke-linejoin:round;stroke-miterlimit:10;" width="14.154" height="9.099"/>
			
				<rect x="121.2" y="279.417" style="fill:#808080;stroke:#263238;stroke-linecap:round;stroke-linejoin:round;stroke-miterlimit:10;" width="14.154" height="9.099"/>
			
				<rect x="121.2" y="293.065" style="fill:#808080;stroke:#263238;stroke-linecap:round;stroke-linejoin:round;stroke-miterlimit:10;" width="14.154" height="9.099"/>
			
				<rect x="121.2" y="306.713" style="fill:#808080;stroke:#263238;stroke-linecap:round;stroke-linejoin:round;stroke-miterlimit:10;" width="14.154" height="9.099"/>
		</g>
		<g>
			
				<rect x="121.2" y="354.836" style="fill:#808080;stroke:#263238;stroke-linecap:round;stroke-linejoin:round;stroke-miterlimit:10;" width="14.154" height="9.099"/>
			
				<rect x="121.2" y="368.483" style="fill:#808080;stroke:#263238;stroke-linecap:round;stroke-linejoin:round;stroke-miterlimit:10;" width="14.154" height="9.099"/>
			
				<rect x="121.2" y="382.132" style="fill:#808080;stroke:#263238;stroke-linecap:round;stroke-linejoin:round;stroke-miterlimit:10;" width="14.154" height="9.099"/>
			
				<rect x="121.2" y="395.78" style="fill:#808080;stroke:#263238;stroke-linecap:round;stroke-linejoin:round;stroke-miterlimit:10;" width="14.154" height="9.099"/>
		</g>
	</g>
</g>
<g id="Device_1_1_">
	<g>
		<path style="fill:#263238;stroke:#263238;stroke-linecap:round;stroke-linejoin:round;stroke-miterlimit:10;" d="M215.948,426.826
			l-0.477-0.883c-0.088-0.163-0.027-0.367,0.136-0.455l4.357-2.353c0.163-0.088,0.367-0.027,0.455,0.136l0.477,0.883
			c0.088,0.163,0.027,0.367-0.136,0.455l-4.357,2.353C216.24,427.05,216.036,426.989,215.948,426.826z"/>
		<path style="fill:#263238;stroke:#263238;stroke-linecap:round;stroke-linejoin:round;stroke-miterlimit:10;" d="M419.152,321.759
			c0.284-0.141,0.569-0.286,0.854-0.44c5.497-2.968,8.921-7.287,7.647-9.647c-1.274-2.36-6.763-1.866-12.26,1.102
			c-0.285,0.154-0.563,0.312-0.836,0.473L419.152,321.759z"/>
		<path style="fill:#808080;stroke:#263238;stroke-linecap:round;stroke-linejoin:round;stroke-miterlimit:10;" d="M250.495,420.525
			c4.293-2.77,13.32-9.498,23.759-15.365c10.438-5.867,84.167-46.138,84.167-46.138l63.219-36.672c0,0,0.84-0.626-1.201-5.04
			l0.073-0.039c-0.246-0.457-0.482-0.878-0.707-1.271c-0.205-0.404-0.428-0.832-0.674-1.289l-0.072,0.039
			c-2.572-4.127-3.556-3.769-3.556-3.769l-65.34,32.743c0,0-74.114,39.557-84.746,45.066c-10.631,5.51-21.21,9.362-25.88,11.437
			c-1.719,0.764-2.678,1.446-2.678,1.446L218.11,423.33l0.546,1.012l0.225,0.417l0.546,1.012l28.39-3.798
			C247.817,421.971,249.12,421.413,250.495,420.525z"/>
		<polygon style="fill:#263238;stroke:#263238;stroke-linecap:round;stroke-linejoin:round;stroke-miterlimit:10;" points="
			233.034,406.093 218.11,423.329 218.656,424.341 218.881,424.758 219.427,425.77 242.453,422.689 		"/>
		<path style="fill:#FFFFFF;stroke:#263238;stroke-linecap:round;stroke-linejoin:round;stroke-miterlimit:10;" d="M259.583,405.313
			l-2.212-4.097c-0.409-0.758-0.126-1.703,0.631-2.112l47.278-25.527c0.757-0.409,1.703-0.126,2.112,0.631l2.212,4.097
			c0.409,0.758,0.126,1.703-0.631,2.112l-47.278,25.527C260.938,406.353,259.992,406.07,259.583,405.313z"/>
		<path style="fill:#263238;stroke:#263238;stroke-linecap:round;stroke-linejoin:round;stroke-miterlimit:10;" d="M260.599,404.198
			l-1.679-3.11c-0.31-0.575-0.096-1.293,0.479-1.603l31.22-16.857c0.575-0.31,1.293-0.096,1.603,0.479l1.679,3.11
			c0.31,0.575,0.096,1.293-0.479,1.603l-31.22,16.857C261.628,404.988,260.91,404.773,260.599,404.198z"/>
		
			<line style="fill:none;stroke:#FFFFFF;stroke-linecap:round;stroke-linejoin:round;stroke-miterlimit:10;" x1="269.82" y1="394.103" x2="272.282" y2="398.663"/>
		<path style="fill:#808080;stroke:#263238;stroke-linecap:round;stroke-linejoin:round;stroke-miterlimit:10;" d="M346.584,365.491
			c7.162-3.914,11.837-6.468,11.837-6.468l63.219-36.672c0,0,0.84-0.626-1.201-5.04l0.073-0.039
			c-0.246-0.457-0.482-0.878-0.707-1.271c-0.205-0.404-0.428-0.832-0.674-1.289l-0.072,0.039c-2.572-4.127-3.556-3.769-3.556-3.769
			l-65.34,32.743c0,0-4.7,2.509-11.902,6.349L346.584,365.491z"/>
		<g>
			<polygon style="fill:#FFFFFF;stroke:#263238;stroke-linecap:round;stroke-linejoin:round;stroke-miterlimit:10;" points="
				231.646,424.135 226.179,414.01 225.159,415.188 230.101,424.342 			"/>
			<polygon style="fill:#FFFFFF;stroke:#263238;stroke-linecap:round;stroke-linejoin:round;stroke-miterlimit:10;" points="
				234.001,404.976 232.641,406.547 241.431,422.826 243.49,422.55 			"/>
		</g>
	</g>
</g>
<g id="Character_3">
	<g>
		<g>
			<rect x="201.265" y="93.207" style="fill:#263238;" width="117.175" height="77.55"/>
			<rect x="240.965" y="96.449" style="opacity:0.1;fill:#FFFFFF;" width="77.475" height="14.911"/>
			<polygon style="opacity:0.2;fill:#FFFFFF;" points="240.965,111.36 240.965,96.449 201.265,96.449 201.265,170.758 
				318.44,170.758 318.44,111.36 			"/>
			<g>
				<g>
					<g>
						<rect x="267.177" y="137.187" style="fill:#263238;" width="13.669" height="12.265"/>
					</g>
					<g>
						<rect id="XMLID_16_" x="222.822" y="137.187" style="fill:#263238;" width="13.669" height="12.265"/>
						<rect x="222.822" y="137.187" style="opacity:0.75;fill:#FFFFFF;" width="13.669" height="12.265"/>
					</g>
					<g>
						<rect x="208.037" y="137.187" style="opacity:0.75;fill:#FFFFFF;" width="13.669" height="12.265"/>
					</g>
					<g>
						<rect x="252.392" y="137.187" style="fill:#263238;" width="13.669" height="12.265"/>
						<rect x="252.392" y="137.187" style="opacity:0.15;fill:#FFFFFF;" width="13.669" height="12.265"/>
					</g>
					<g>
						<rect id="XMLID_15_" x="237.607" y="137.187" style="fill:#263238;" width="13.669" height="12.265"/>
						<rect id="XMLID_12_" x="237.607" y="137.187" style="opacity:0.25;fill:#FFFFFF;" width="13.669" height="12.265"/>
					</g>
				</g>
				<g>
					<g>
						<g>
							<defs>
								<rect id="XMLID_10_" x="282.181" y="150.297" width="13.58" height="12.995"/>
							</defs>
							<use xlink:href="#XMLID_10_"  style="overflow:visible;fill:#C6FF00;"/>
							<clipPath id="XMLID_00000010274874954465609850000008730140247584081538_">
								<use xlink:href="#XMLID_10_"  style="overflow:visible;"/>
							</clipPath>
							
								<rect x="282.181" y="150.297" style="opacity:0.5;clip-path:url(#XMLID_00000010274874954465609850000008730140247584081538_);" width="13.58" height="12.995"/>
						</g>
					</g>
					<g>
						<rect id="XMLID_8_" x="267.346" y="150.297" style="fill:#C6FF00;" width="13.58" height="12.995"/>
						<rect x="267.346" y="150.297" style="opacity:0.2;" width="13.58" height="12.995"/>
					</g>
					<g>
						<rect x="252.523" y="150.297" style="fill:#C6FF00;" width="13.58" height="12.995"/>
					</g>
					<g>
						<rect x="237.7" y="150.297" style="fill:#C6FF00;" width="13.58" height="12.995"/>
						<rect x="237.7" y="150.297" style="opacity:0.3;fill:#FFFFFF;" width="13.58" height="12.995"/>
					</g>
					<g>
						<rect x="222.877" y="150.297" style="fill:#C6FF00;" width="13.58" height="12.995"/>
						<rect x="222.877" y="150.297" style="opacity:0.6;fill:#FFFFFF;" width="13.58" height="12.995"/>
					</g>
					<g>
						<rect x="208.055" y="150.297" style="fill:#FFFFFF;" width="13.58" height="12.995"/>
					</g>
					<g>
						<rect id="XMLID_9_" x="296.931" y="150.297" style="fill:#C6FF00;" width="13.58" height="12.995"/>
						<rect x="296.931" y="150.297" style="opacity:0.8;" width="13.58" height="12.995"/>
					</g>
				</g>
				<g>
					
						<rect x="212.354" y="118.657" style="fill:none;stroke:#263238;stroke-width:2;stroke-linecap:round;stroke-linejoin:round;stroke-miterlimit:10;" width="9.174" height="8.779"/>
					<g>
						<rect x="208.078" y="113.71" style="fill:#C6FF00;" width="9.174" height="8.779"/>
						<rect x="208.078" y="113.71" style="opacity:0.3;fill:#FFFFFF;" width="9.174" height="8.779"/>
					</g>
				</g>
			</g>
			
				<line style="fill:none;stroke:#FFFFFF;stroke-width:2;stroke-linecap:round;stroke-linejoin:round;stroke-miterlimit:10;" x1="209.521" y1="104.229" x2="233.185" y2="104.229"/>
			<g>
				<polygon style="fill:#FFFFFF;" points="297.196,100.015 297.196,100.802 298.82,102.17 297.196,103.537 297.196,104.325 
					299.755,102.17 				"/>
				<polygon style="fill:#FFFFFF;" points="299.998,100.015 299.998,100.802 301.621,102.17 299.998,103.537 299.998,104.325 
					302.556,102.17 				"/>
			</g>
			
				<line style="fill:none;stroke:#FFFFFF;stroke-width:0.5;stroke-linecap:round;stroke-linejoin:round;stroke-miterlimit:10;" x1="305.798" y1="98.718" x2="305.798" y2="106.174"/>
			<g>
				
					<line style="fill:none;stroke:#FFFFFF;stroke-width:0.5;stroke-linecap:round;stroke-linejoin:round;stroke-miterlimit:10;" x1="309.039" y1="100.987" x2="314.874" y2="100.987"/>
				
					<line style="fill:none;stroke:#FFFFFF;stroke-width:0.5;stroke-linecap:round;stroke-linejoin:round;stroke-miterlimit:10;" x1="309.039" y1="102.284" x2="314.874" y2="102.284"/>
				
					<line style="fill:none;stroke:#FFFFFF;stroke-width:0.5;stroke-linecap:round;stroke-linejoin:round;stroke-miterlimit:10;" x1="309.039" y1="103.58" x2="314.874" y2="103.58"/>
				
					<line style="fill:none;stroke:#FFFFFF;stroke-width:0.5;stroke-linecap:round;stroke-linejoin:round;stroke-miterlimit:10;" x1="309.039" y1="104.877" x2="314.874" y2="104.877"/>
			</g>
		</g>
		<g>
			<path style="fill:#D9D9D9;stroke:#263238;stroke-linecap:round;stroke-linejoin:round;stroke-miterlimit:10;" d="
				M353.144,100.078c0,0-4.098-4.47-5.588-4.47c-1.49,0-24.96,3.353-26.077,2.794c-1.118-0.559-1.304-4.47-2.98-5.215
				c-1.676-0.745-3.539-0.745-3.539-0.745s-0.372-1.49-1.676-1.49c-1.304,0-1.863,0.373-1.863,0.373s-0.373,0.745,0,1.49
				c0.372,0.745-0.186,2.794-0.186,2.794s-2.049-0.745-3.725-0.745c-1.676,0-1.676,1.676-1.118,2.049
				c0.559,0.373,3.167-0.745,3.912,0.559c0.745,1.304,1.49,3.167,3.353,3.725c1.863,0.559,8.196,0.931,8.196,0.931l22.165,2.422
				l3.353,4.47l7.823-3.539L353.144,100.078z"/>
			<path style="fill:#D9D9D9;stroke:#263238;stroke-linecap:round;stroke-linejoin:round;stroke-miterlimit:10;" d="
				M348.115,153.723l-2.98,3.912c0,0-31.009,8.255-31.754,8.255c-0.745,0-5.499-3.971-6.803-3.598
				c-1.304,0.372-3.539,2.421-5.774,2.794c-2.235,0.372-1.863,1.49-0.559,1.863c1.304,0.372,3.539-0.745,4.098-0.745
				c0.559,0,2.235,0.372,2.235,0.372s-3.725,4.47-4.284,4.657c-0.559,0.186-1.863,2.235-0.931,2.235c0.931,0,1.118-0.186,2.98-0.186
				c1.863,0,3.725-0.559,3.725-0.559s2.235-0.745,3.353-1.304c1.118-0.559,33.9-3.353,35.018-3.353c1.118,0,2.98-0.745,4.098-2.049
				c1.118-1.304,7.823-10.99,7.823-10.99L348.115,153.723z"/>
			<path style="fill:#FFFFFF;stroke:#263238;stroke-linecap:round;stroke-linejoin:round;stroke-miterlimit:10;" d="
				M382.202,226.552c0,0-3.539,3.725-6.706,6.147c-3.167,2.421-6.519,4.098-4.284,5.402c2.235,1.304,10.245-1.676,12.852-3.911
				c2.608-2.235,1.304-9.127,1.304-9.127L382.202,226.552z"/>
			<path style="fill:#FFFFFF;stroke:#263238;stroke-linecap:round;stroke-linejoin:round;stroke-miterlimit:10;" d="M398.22,177.751
				c0,0,2.98,0,2.98,2.235c0,2.235-2.608,4.284-2.422,6.333c0.186,2.049,0.559,4.657-1.118,6.519
				c-1.676,1.863-5.402,5.774-5.215,2.608c0.186-3.167,1.863-6.892,1.676-9.127c-0.186-2.235-1.676-4.284-1.676-4.284l2.608-4.843
				L398.22,177.751z"/>
			<path style="fill:#263238;stroke:#263238;stroke-linecap:round;stroke-linejoin:round;stroke-miterlimit:10;" d="M410.7,136.772
				c-2.608-4.657-8.568-7.823-8.568-7.823s-2.049,8.382-6.333,10.99c-4.284,2.608-8.754,3.911-8.754,3.911s-6.147,1.863-13.97,8.941
				c-7.823,7.078-18.999,21.979-17.323,23.656c1.676,1.676,5.961,1.304,13.039,1.863c9.982,0.788,13.597,0.559,13.597,0.559
				s-0.745,12.48-0.745,16.95c0,4.47-0.745,32.037-0.745,32.037s2.235,1.863,5.774-0.186c0,0,8.196-28.126,8.196-32.969
				c0-4.843,0-9.313,0-9.313s12.852-24.401,15.833-30.547C413.68,148.693,413.308,141.429,410.7,136.772z M384.995,172.349
				l-9.872-3.539l15.646-9.5L384.995,172.349z"/>
			<path style="fill:#C6FF00;stroke:#263238;stroke-linecap:round;stroke-linejoin:round;stroke-miterlimit:10;" d="
				M359.921,132.784l-14.392,23.059l14.926,1.435l10.62-13.204c0,0,9.759-1.148,12.343-0.861c2.583,0.287,2.172,1.792,2.87,2.296
				c1.314,0.949,2.296,1.435,8.898,0.574c6.602-0.861,9.185-9.472,8.324-14.352c-0.861-4.88-5.454-7.463-10.333-10.907
				c-4.88-3.445-16.361-8.898-20.667-10.047c-4.306-1.148-12.917-2.296-12.917-2.296l-3.157-8.611c0,0-8.611-2.296-12.056,1.435
				l-0.574,2.009l12.343,24.111L359.921,132.784z"/>
			<g>
				<g>
					<defs>
						<path id="XMLID_1_" d="M355.619,119.058c0,0,1.229-8.604-3.892-14.135c-5.121-5.531-16.594-1.229-19.257,3.483
							c-2.663,4.712,0.205,10.857,1.229,11.882s1.229,2.049,0,4.097c-1.229,2.049-1.639,2.253-0.41,2.868
							c1.229,0.615,2.049,0.819,2.049,0.819s3.687,4.507,4.712,6.146c1.024,1.639,3.073,1.844,4.302,1.024
							c1.229-0.819,6.965-5.941,6.965-5.941l8.604,3.483c0,0,0.615-3.278,0-6.76C359.307,122.541,358.283,119.058,355.619,119.058z"
							/>
					</defs>
					<use xlink:href="#XMLID_1_"  style="overflow:visible;fill:#D9D9D9;"/>
					<clipPath id="XMLID_00000152238916304064236860000004689754493626403736_">
						<use xlink:href="#XMLID_1_"  style="overflow:visible;"/>
					</clipPath>
					<path style="clip-path:url(#XMLID_00000152238916304064236860000004689754493626403736_);fill:#B2B2B2;" d="M356.289,119.148
						c-0.212-0.053-0.432-0.09-0.67-0.09c0,0,1.229-8.604-3.892-14.135c-4.795-5.178-15.156-1.738-18.643,2.589
						c0.708-0.732,2.096-1.478,4.508-0.336c3.892,1.844,2.868,3.483,3.278,6.146c0.41,2.663,4.712,0.82,4.917,2.254
						c0.205,1.434-0.41,3.482,1.024,3.073s3.278-2.253,4.507-0.205C352.175,119.873,354.527,120.498,356.289,119.148z"/>
					
						<use xlink:href="#XMLID_1_"  style="overflow:visible;fill:none;stroke:#263238;stroke-linecap:round;stroke-linejoin:round;stroke-miterlimit:10;"/>
				</g>
				<path style="fill:none;stroke:#263238;stroke-linecap:round;stroke-linejoin:round;stroke-miterlimit:10;" d="M338.821,128.687
					c0,0,2.868,0.205,3.483-2.663"/>
				<path style="fill:#D9D9D9;stroke:#263238;stroke-linecap:round;stroke-linejoin:round;stroke-miterlimit:10;" d="
					M348.831,119.245c0,0,1.462-5.513,3.101-3.054c1.639,2.458,2.253,5.326,0.41,6.555c-1.844,1.229-2.663,0.819-2.663,0.819"/>
				<path style="fill:#263238;" d="M338.083,120.362c0.195,0.785,0.064,1.492-0.292,1.581c-0.357,0.089-0.804-0.475-0.999-1.26
					c-0.195-0.785-0.064-1.493,0.292-1.581S337.888,119.577,338.083,120.362z"/>
				<path style="fill:none;stroke:#263238;stroke-linecap:round;stroke-linejoin:round;stroke-miterlimit:10;" d="M335.172,118.305
					c0,0,0-1.432,2.181-0.818"/>
			</g>
			<path style="fill:#FFFFFF;stroke:#263238;stroke-linecap:round;stroke-linejoin:round;stroke-miterlimit:10;" d="
				M355.619,119.058c0,0,1.966,2.626,1.966,6.358c0,3.732-0.287,7.463,0.861,8.324c1.148,0.861,1.148,0.861,1.148,0.861
				s3.445-1.722,2.296-8.611C360.743,119.101,356.811,116.145,355.619,119.058z"/>
			<path style="fill:none;stroke:#263238;stroke-linecap:round;stroke-linejoin:round;stroke-miterlimit:10;" d="M390.77,159.31
				c0,0-1.863-6.519-3.353-8.568"/>
			<path style="fill:none;stroke:#263238;stroke-linecap:round;stroke-linejoin:round;stroke-miterlimit:10;" d="M382.388,178.868
				c0,0,0.745-3.912,2.608-6.519"/>
			
				<line style="fill:none;stroke:#263238;stroke-linecap:round;stroke-linejoin:round;stroke-miterlimit:10;" x1="371.076" y1="144.074" x2="376.614" y2="137.145"/>
			
				<line style="fill:none;stroke:#263238;stroke-linecap:round;stroke-linejoin:round;stroke-miterlimit:10;" x1="371.957" y1="143.105" x2="383.505" y2="136.772"/>
		</g>
	</g>
</g>
<g id="Character_2">
	<g>
		<path style="fill:#FFFFFF;stroke:#263238;stroke-linecap:round;stroke-linejoin:round;stroke-miterlimit:10;" d="M329.419,336.472
			l7.053,12.155c0,0-3.301,3.752-6.153,4.952c-2.851,1.2-2.101,2.101-1.351,2.101s1.951,1.05,4.952-0.15
			c3.001-1.201,4.802-2.401,6.153-2.251c1.35,0.15,3.752,0,3.752-1.951s-0.15-2.251-3.151-7.353
			c-3.001-5.102-7.953-19.208-7.953-19.208L329.419,336.472z"/>
		<path style="fill:#C6FF00;stroke:#263238;stroke-linecap:round;stroke-linejoin:round;stroke-miterlimit:10;" d="M339.023,349.077
			c-1.35,0.3-2.551-0.45-2.551-0.45s-3.301,3.752-6.153,4.952c-2.851,1.2-2.101,2.101-1.351,2.101s1.951,1.05,4.952-0.15
			c3.001-1.201,4.802-2.401,6.153-2.251c1.35,0.15,3.752,0,3.752-1.951c0-1.531-0.099-2.055-1.591-4.674
			C341.381,347.521,339.932,348.875,339.023,349.077z"/>
		<path style="fill:#808080;stroke:#263238;stroke-linecap:round;stroke-linejoin:round;stroke-miterlimit:10;" d="M332.72,324.767
			l-3.301,11.705l3.336,5.75c1.309-0.146,3.177-0.822,5.683-2.777C335.7,333.255,332.72,324.767,332.72,324.767z"/>
		<path style="fill:#FFFFFF;stroke:#263238;stroke-linecap:round;stroke-linejoin:round;stroke-miterlimit:10;" d="M393.646,265.492
			c-1.951-2.251-9.154-2.701-9.154-2.701s-11.255-17.557-13.806-20.409c-2.551-2.851-8.554-7.653-12.155-12.305
			c-3.602-4.652-6.603-9.604-10.204-10.204c-3.602-0.6-11.255,1.351-12.605,1.351c-1.351,0-1.801-6.753-1.801-6.753l-7.053,3.602
			c0,0,1.05,4.352,0,5.252c-1.051,0.9-9.754,1.051-12.155,3.452s-9.454,11.855-12.005,14.406
			c-2.551,2.551-10.054,7.203-12.455,9.754c-2.401,2.551-11.855,11.255-14.106,12.455c-2.251,1.201-4.802-1.201-6.903-1.351
			c-2.101-0.15-5.702-0.75-5.552,0.15c0.15,0.9,2.851,1.501,3.602,1.951s2.401,1.801,2.401,1.801s-3.902-0.15-4.502,0.15
			c-0.6,0.3,0.6,1.501,1.651,1.501c1.05,0,1.801-0.45,3.752,0.45c1.951,0.9,6.003-0.3,7.203-1.201
			c1.201-0.9,25.061-14.706,26.711-16.207c1.651-1.501,11.855-9.004,11.855-9.004s2.851,7.353,3.752,10.204
			c0.9,2.851,0.9,12.455,0.15,16.657c-0.75,4.202-0.3,10.654-0.3,10.654s-8.404,18.458-9.454,24.61
			c-1.05,6.153,1.501,8.854,1.801,9.904c0.3,1.05,9.454,13.956,9.454,13.956l0.9,1.801c0,0-0.75,15.006-2.101,21.909
			c-0.608,3.107-1.651,6.453-2.551,8.854c-0.9,2.401-3.902,7.803-5.102,9.154c-1.201,1.351-2.401,2.401-0.9,2.401
			c1.501,0,7.203-1.801,9.304-3.451c2.101-1.651,4.502-4.502,5.402-5.402c0.9-0.9,0.75-1.951-0.15-3.301
			c-0.9-1.351-1.05-4.202-1.05-4.952s6.453-22.509,8.253-29.262c1.801-6.753,0.9-14.556,0.9-15.006
			c0-0.45,17.257-20.109,17.557-27.462c0.3-7.353-2.851-14.706-5.252-19.058c-2.401-4.352-6.153-9.754-6.153-10.204
			s0-0.15,0.75-3.602c0.75-3.451,4.652-18.308,4.652-18.308l6.153,3.752l18.608,17.407l12.005,11.255c0,0,0.9,2.251,1.651,3.001
			c0.75,0.75,4.502,2.551,4.952,2.551c0.45,0,1.651-0.15,0.9-0.75c-0.75-0.6-2.851-1.651-2.851-1.651s3.001-0.15,4.052,0.75
			c1.05,0.9,3.601,1.951,4.052,1.951C396.197,269.994,395.597,267.743,393.646,265.492z"/>
		<g>
			<path style="fill:#808080;stroke:#263238;stroke-linecap:round;stroke-linejoin:round;stroke-miterlimit:10;" d="
				M320.441,267.277c-0.054,0.437-0.111,0.853-0.176,1.217c-0.75,4.202-0.3,10.654-0.3,10.654s-8.404,18.458-9.454,24.61
				c-1.05,6.153,1.501,8.854,1.801,9.904c0.3,1.05,9.454,13.956,9.454,13.956l0.9,1.801c0,0-0.407,8.135-1.161,15.181
				c1.323,0.627,3.485,1.105,6.695,0.319c1.995-6.939,4.542-15.694,5.571-19.552c1.801-6.753,0.9-14.556,0.9-15.006
				c0-0.45,17.257-20.109,17.557-27.462c0.244-5.975-1.791-11.949-3.851-16.314C342.762,267.957,330.22,270.339,320.441,267.277z"/>
			<path style="fill:none;stroke:#263238;stroke-linecap:round;stroke-linejoin:round;stroke-miterlimit:10;" d="M322.666,329.419
				c0,0,0.75-18.608,1.051-21.609c0.3-3.001,12.755-26.261,12.755-26.261"/>
			
				<line style="fill:none;stroke:#263238;stroke-linecap:round;stroke-linejoin:round;stroke-miterlimit:10;" x1="333.47" y1="286.951" x2="328.518" y2="281.549"/>
		</g>
		<g>
			<path style="fill:#C6FF00;stroke:#263238;stroke-linecap:round;stroke-linejoin:round;stroke-miterlimit:10;" d="
				M370.686,242.382c-2.551-2.851-8.554-7.653-12.155-12.305c-3.602-4.652-6.603-9.604-10.204-10.204
				c-2.432-0.405-6.707,0.352-9.646,0.887c-0.963,3.314-3.436,9.818-8.212,10.818c-5.352,1.12-6.367-5.292-6.558-7.513
				c-3.072,0.493-7.575,1.087-9.198,2.711c-2.401,2.401-9.454,11.855-12.005,14.406c-2.551,2.551-10.054,7.203-12.455,9.754
				c-1.242,1.319-4.369,4.282-7.412,7.004c0.896,1.871,2.096,3.119,3.226,3.937c7.462-4.416,17.397-10.291,18.441-11.241
				c1.651-1.501,11.855-9.004,11.855-9.004s2.851,7.353,3.752,10.204c0.9,2.851,0.9,12.455,0.15,16.657
				c-0.248,1.387-0.363,3.019-0.409,4.584c12.319,4.114,25.737-0.965,30.049-2.869c-0.922-2.465-1.983-4.651-2.93-6.367
				c-2.401-4.352-6.153-9.754-6.153-10.204s0-0.15,0.75-3.602c0.75-3.451,4.652-18.308,4.652-18.308l6.153,3.752l18.608,17.407
				l1.441,1.351l4.358-3.234C374.208,247.144,371.725,243.544,370.686,242.382z"/>
			<path style="fill:none;stroke:#263238;stroke-linecap:round;stroke-linejoin:round;stroke-miterlimit:10;" d="M316.363,241.632
				c0,0-0.15-1.05-0.15-3.301c0-2.251,1.201-4.952,1.201-4.952"/>
		</g>
		<g>
			<g>
				<path style="fill:#263238;" d="M345.326,190.31c0,3.73-3.023,6.753-6.753,6.753c-3.73,0-6.753-3.023-6.753-6.753
					c0-3.729,3.023-6.753,6.753-6.753C342.302,183.558,345.326,186.581,345.326,190.31z"/>
				<g>
					<path style="fill:#263238;" d="M334.521,185.81c-0.097,0-0.194-0.031-0.277-0.094c-0.197-0.153-0.234-0.436-0.082-0.633
						c0.131-0.17,3.275-4.129,9.952-1.955c0.238,0.078,0.368,0.333,0.291,0.57c-0.078,0.238-0.332,0.368-0.57,0.291
						c-6.054-1.969-8.84,1.499-8.956,1.648C334.79,185.75,334.656,185.81,334.521,185.81z"/>
				</g>
			</g>
			<g>
				<g>
					<path style="fill:#FFFFFF;stroke:#263238;stroke-linecap:round;stroke-linejoin:round;stroke-miterlimit:10;" d="
						M338.285,202.297c0,0,0.65-8.021-4.336-11.707c-4.986-3.686-11.924-1.518-14.742,3.686c-2.818,5.203-0.867,10.189,0,13.658
						c0.867,3.469,1.734,6.07,3.469,8.238c1.734,2.168,4.986,3.902,7.588,3.252c2.601-0.65,4.986-4.986,6.287-9.756
						c0,0,2.168,0.217,3.686-2.385C341.754,204.682,340.887,200.346,338.285,202.297z"/>
					<path style="fill:none;stroke:#263238;stroke-linecap:round;stroke-linejoin:round;stroke-miterlimit:10;" d="M324.767,205.917
						c0,0,0.75,0.75,0,1.951s-1.651,2.251-0.9,2.701c0.75,0.45,1.801,0.6,1.801,0.6"/>
					<path style="fill:none;stroke:#263238;stroke-linecap:round;stroke-linejoin:round;stroke-miterlimit:10;" d="M324.767,212.97
						c0,0,3.301,0.75,4.952-1.05"/>
					<ellipse style="fill:#263238;" cx="329.194" cy="205.392" rx="0.675" ry="1.576"/>
					<path style="fill:#263238;" d="M323.34,205.733c0.043,0.869-0.223,1.589-0.596,1.608c-0.372,0.019-0.71-0.671-0.753-1.54
						c-0.044-0.869,0.223-1.589,0.596-1.607C322.96,204.175,323.297,204.864,323.34,205.733z"/>
					<path style="fill:none;stroke:#263238;stroke-linecap:round;stroke-linejoin:round;stroke-miterlimit:10;" d="M327.018,201.415
						c0,0,2.551-1.501,4.052,0.45"/>
					<path style="fill:none;stroke:#263238;stroke-linecap:round;stroke-linejoin:round;stroke-miterlimit:10;" d="M323.416,202.466
						c0,0-1.951-1.651-3.452,0"/>
				</g>
				<path style="fill:#263238;stroke:#263238;stroke-linecap:round;stroke-linejoin:round;stroke-miterlimit:10;" d="
					M338.307,201.787c0.046-1.8-0.114-8.061-4.358-11.197c-4.986-3.686-11.924-1.518-14.742,3.686
					c-0.921,1.701-1.327,3.377-1.434,4.986l0.24,0.202c0,0-0.15-5.402,4.802-6.453c4.952-1.05,9.154,0.9,9.754,3.602
					c0.6,2.701-0.3,4.352,0.9,5.402c1.201,1.05,2.851,2.401,3.602,1.501C337.402,203.12,337.878,202.432,338.307,201.787z"/>
			</g>
		</g>
		<path style="fill:#C6FF00;stroke:#263238;stroke-linecap:round;stroke-linejoin:round;stroke-miterlimit:10;" d="M326.718,362.883
			c0.9-0.9,0.75-1.951-0.15-3.301c-0.214-0.32-0.382-0.729-0.52-1.17l-2.932,3.421c0,0-0.6-1.35-2.101-3.151
			c-1.501-1.801-2.401,0.15-2.401,0.15l-0.088,0.032c-0.172,0.435-0.345,0.871-0.513,1.318c-0.9,2.401-3.902,7.803-5.102,9.154
			c-1.201,1.351-2.401,2.401-0.9,2.401c1.501,0,7.203-1.801,9.304-3.451C323.416,366.635,325.817,363.784,326.718,362.883z"/>
	</g>
</g>
<g id="Character_1">
	<g>
		<g>
			<path style="fill:#FFFFFF;stroke:#263238;stroke-linecap:round;stroke-linejoin:round;stroke-miterlimit:10;" d="
				M130.382,205.851l-6.962,26.451c0,0-7.557,0.296-9.039,0.741c-1.482,0.445-2.519,4.001-2.371,4.742
				c0.148,0.741,1.037,0.445,1.778,0.148c0,0-1.926,0.889-0.593,1.185c1.334,0.296,4.742-1.037,4.742-1.037s5.779,0,6.668-1.037
				c0.889-1.037,2.371-4.149,2.667-5.482c0.296-1.334,10.962-22.747,10.962-22.747S132.752,208.962,130.382,205.851z"/>
			<path style="fill:#FFFFFF;stroke:#263238;stroke-linecap:round;stroke-linejoin:round;stroke-miterlimit:10;" d="
				M113.789,237.932c0,0,2.964-1.778,5.482-2.371"/>
		</g>
		<polygon style="fill:#FFFFFF;stroke:#263238;stroke-linecap:round;stroke-linejoin:round;stroke-miterlimit:10;" points="
			173.247,208.598 180.952,224.749 186.138,224.749 181.1,204.745 		"/>
		<path style="fill:#FFFFFF;stroke:#263238;stroke-linecap:round;stroke-linejoin:round;stroke-miterlimit:10;" d="M178.878,293.797
			c0,0-1.185,9.039-0.593,9.039c0.593,0,7.557,2.223,9.039,2.667c1.482,0.444,8.446,1.63,8.89,0.889
			c0.444-0.741-9.928-8.298-10.372-8.742c-0.445-0.444-1.482-2.815-1.482-2.815L178.878,293.797z"/>
		<path style="fill:#FFFFFF;stroke:#263238;stroke-linecap:round;stroke-linejoin:round;stroke-miterlimit:10;" d="M179.568,267.271
			c0,0-5.035,5.035-4.09,5.979c0.944,0.944,9.754,13.215,11.957,11.957c2.202-1.259-2.832-13.845-2.832-13.845L179.568,267.271z"/>
		<g>
			<path style="fill:#C6FF00;stroke:#263238;stroke-linecap:round;stroke-linejoin:round;stroke-miterlimit:10;" d="M203.03,225.934
				c-10.52-4.89-27.56-4.001-27.56-4.001l-3.112-5.927c0,0-4.89,1.926-9.928,2.519c-5.038,0.593-17.188-1.333-17.188-1.333
				s-2.223,11.261-2.223,15.558s2.815,4.445,14.521,7.112c11.706,2.667,23.56,4.001,23.56,4.001s-1.778,15.706-1.482,25.93
				c0.296,10.224-0.741,24.004-0.741,24.004l5.482,1.037L191.811,269c0,0,24.702-27.063,27.221-28.693
				C221.552,238.677,213.55,230.824,203.03,225.934z M195.029,251.272c0,0,0.889-8.594,0.889-10.076c0-1.482-1.778-3.26-1.778-3.26
				c1.186,0.445,7.557,2.223,7.557,2.223L195.029,251.272z"/>
			<path style="fill:none;stroke:#263238;stroke-linecap:round;stroke-linejoin:round;stroke-miterlimit:10;" d="M194.139,237.936
				c0,0-9.612-9.495-24.985-10.109"/>
			
				<line style="fill:none;stroke:#263238;stroke-linecap:round;stroke-linejoin:round;stroke-miterlimit:10;" x1="195.029" y1="251.272" x2="191.811" y2="269"/>
			<path style="fill:none;stroke:#263238;stroke-linecap:round;stroke-linejoin:round;stroke-miterlimit:10;" d="M151.936,228.749
				c0,0,5.534-3.382,11.376-2.152"/>
		</g>
		<g>
			<path style="fill:#263238;stroke:#263238;stroke-linecap:round;stroke-linejoin:round;stroke-miterlimit:10;" d="
				M158.578,163.553c0,0-4.742,3.408-10.965,6.223c-6.223,2.815-12.002,5.482-12.002,6.52s-3.896,25.85-3.896,26.295
				s1.63,3.112,3.852,3.112c2.223,0,3.112-0.296,3.112-0.296l4.637-9.403c0,0,2.223,20.744,1.926,21.189s2.815,3.26,5.631,4.001
				c2.815,0.741,21.781-1.63,22.374-3.704c0.593-2.074-2.815-14.521-2.815-14.521l0.889-6.964l1.482,8.594
				c0,0-0.148,1.185,2.667,0.741c2.815-0.445,4.001-2.519,4.001-2.519s-0.296-16.744-0.296-20.893c0-4.149,1.926-6.668,0.445-7.705
				c-1.482-1.037-14.669-9.631-16.003-10.52C162.282,162.812,159.763,162.96,158.578,163.553z"/>
			<path style="fill:#C6FF00;stroke:#263238;stroke-linecap:round;stroke-linejoin:round;stroke-miterlimit:10;" d="
				M131.715,200.072c0,0,0.889,1.778,3.112,2.815c2.223,1.037,4.297-0.148,4.89,0.593c0.593,0.741,0.793,4.692-1.185,5.779
				c-2.036,1.119-4.48,1.122-6.964-0.445c-2.142-1.35-2.074-2.223-1.926-3.408C129.789,204.221,130.233,200.072,131.715,200.072z"/>
			<path style="fill:#C6FF00;stroke:#263238;stroke-linecap:round;stroke-linejoin:round;stroke-miterlimit:10;" d="
				M171.765,204.301c0,0,1.037,3.852,1.482,4.297c0.444,0.445,4.742,0.296,7.853-2.519c0,0,0.148-0.445,0-1.334
				c-0.148-0.889-1.185-4.001-1.63-4.001s-4.001,2.963-6.668,2.223C172.803,202.967,171.173,202.819,171.765,204.301z"/>
			
				<line style="fill:#FFFFFF;stroke:#263238;stroke-linecap:round;stroke-linejoin:round;stroke-miterlimit:10;" x1="171.321" y1="196.003" x2="174.253" y2="183.439"/>
			<path style="fill:none;stroke:#263238;stroke-linecap:round;stroke-linejoin:round;stroke-miterlimit:10;" d="M143.316,196.003
				c0,0,2.436-7.362,2.436-9.171c0-1.81-2.036-5.203-2.036-5.203"/>
		</g>
		<path style="fill:#FFFFFF;stroke:#263238;stroke-linecap:round;stroke-linejoin:round;stroke-miterlimit:10;" d="M160.356,155.403
			l-3.556,10.076c0,0,4.89,13.188,5.483,13.039c0.593-0.148,6.52-12.595,6.52-12.595s-1.482-8.446-2.964-12.002
			C164.357,150.365,160.356,155.403,160.356,155.403z"/>
		<g>
			<path style="fill:#FFFFFF;stroke:#263238;stroke-linecap:round;stroke-linejoin:round;stroke-miterlimit:10;" d="
				M174.284,138.808c0,0,4.445,3.112,4.89,4.445c0.445,1.334-1.185,2.964-1.185,2.964s0.148,5.038,0.148,6.223
				c0,1.185-1.185,2.519-1.185,2.519s2.223,3.26,1.63,4.001c-0.593,0.741-1.778,0.889-1.778,0.889s-0.296,2.964-0.889,3.704
				c-0.593,0.741-0.593,0.741-0.593,0.741s0.148,3.556-0.148,4.593c-0.296,1.037-2.074,1.778-5.482-0.148
				c-3.408-1.926-5.631-3.556-6.075-5.038c-0.445-1.482-0.445-5.334-0.445-5.334l-1.482-4.297l-1.63,2.963
				c0,0-2.964-4.001-3.853-10.965c-0.889-6.964,7.26-9.483,10.965-9.779C170.876,135.993,174.284,138.808,174.284,138.808z"/>
			<path style="fill:#263238;stroke:#263238;stroke-linecap:round;stroke-linejoin:round;stroke-miterlimit:10;" d="
				M179.174,143.253c-0.445-1.334-4.89-4.445-4.89-4.445s-3.408-2.815-7.112-2.519c-3.704,0.296-11.854,2.815-10.965,9.779
				c0.889,6.964,3.852,10.965,3.852,10.965l1.63-2.963l1.482,4.297c0,0,0,3.853,0.445,5.334c0.445,1.482,2.667,3.112,6.075,5.038
				c3.408,1.926,5.186,1.185,5.482,0.148c0.211-0.737,0.197-2.74,0.171-3.841c-0.008-0.003-0.015-0.009-0.023-0.012
				c-1.482-0.445-2.223,2.074-3.556,1.63c-1.334-0.445-5.186-2.964-6.075-5.482c-0.889-2.519-0.741-9.483-0.741-9.483
				s3.408-1.334,4.297-2.074c0.889-0.741-1.333-2.667-2.667-3.704c-1.334-1.037,1.037-2.074,4.593-2.371
				c3.556-0.296,6.816,2.667,6.816,2.667S179.618,144.587,179.174,143.253z"/>
			<path style="fill:#FFFFFF;stroke:#263238;stroke-linecap:round;stroke-linejoin:round;stroke-miterlimit:10;" d="
				M163.764,156.589c0,0-0.296-4.89-2.074-5.186c-1.778-0.296-2.223,3.704-1.63,5.63c0.593,1.926,2.815,1.778,3.112,1.334
				C163.468,157.922,163.764,156.589,163.764,156.589z"/>
			<path style="fill:#263238;stroke:#263238;stroke-linecap:round;stroke-linejoin:round;stroke-miterlimit:10;" d="
				M176.803,159.849c0,0-4.297,0.296-5.927,0.296s-2.074,0.741-0.889,2.074c1.185,1.334,3.853,1.778,4.445,1.63
				c0.593-0.148,1.482-0.296,1.482-0.296S177.989,161.775,176.803,159.849z"/>
			<ellipse style="fill:#263238;" cx="173.766" cy="155.403" rx="0.667" ry="1.185"/>
			<path style="fill:none;stroke:#263238;stroke-linecap:round;stroke-linejoin:round;stroke-miterlimit:10;" d="M175.47,152.885
				c0,0-0.445-2.074-3.408-1.334"/>
		</g>
	</g>
</g>
<g id="Floor">
	
		<line style="fill:none;stroke:#263238;stroke-linecap:round;stroke-linejoin:round;stroke-miterlimit:10;" x1="39.619" y1="433.691" x2="473.461" y2="433.691"/>
</g>
</svg>
