<?xml version="1.0" encoding="utf-8"?>
<!-- Generator: Adobe Illustrator 27.5.0, SVG Export Plug-In . SVG Version: 6.00 Build 0)  -->
<svg version="1.1" xmlns="http://www.w3.org/2000/svg" xmlns:xlink="http://www.w3.org/1999/xlink" x="0px" y="0px"
	 viewBox="0 0 3710 3710" style="enable-background:new 0 0 3710 3710;" xml:space="preserve">
<g id="Background">
	<g>
		<g>
			<rect style="fill:#FFFFFF;" width="3710" height="3710"/>
		</g>
	</g>
</g>
<g id="Illustration">
	<g>
		<linearGradient id="SVGID_1_" gradientUnits="userSpaceOnUse" x1="3396.1672" y1="3605.1362" x2="1349.1241" y2="1395.6293">
			<stop  offset="0" style="stop-color:#DAE3FE"/>
			<stop  offset="1" style="stop-color:#E9EFFD"/>
		</linearGradient>
		<path style="fill:url(#SVGID_1_);" d="M3110.898,2346.021c-281.279,657.456-1023.764,939.849-1605.512,891.7
			c-158.841-13.146-478.432-39.598-727.972-275.579C298.19,2508.955,371.995,1561.667,830.75,1003.956
			c59.078-71.821,468.008-553.019,1105.249-546.578c466.553,4.716,794.023,268.266,833.841,301.099
			c50.302,41.477,161.248,140.04,261.237,296.404C3266.018,1422.282,3286.669,1935.177,3110.898,2346.021z"/>
		<g>
			<path style="fill:#BDD0FB;" d="M3206.12,761.626c55.113,267.891,312.174,1839.96-1119.703,2346.166
				c0,0-435.654-991.386,1081.581-2358.755C3181.271,737.074,3202.519,744.125,3206.12,761.626z"/>
			<path style="opacity:0.86;fill:#FFFFFF;" d="M3091.454,1010.75c0,0-5.024,33.517-15.688,91.69
				c-5.428,29.078-12.049,64.382-20.398,104.723c-8.181,40.378-18.072,85.79-29.268,135.241
				c-11.46,49.39-24.038,102.868-38.634,159.106c-14.26,56.329-30.589,115.393-47.901,176.377
				c-17.855,60.826-36.662,123.593-57.525,186.823c-5.19,15.817-10.399,31.695-15.625,47.622
				c-5.483,15.839-10.982,31.727-16.49,47.647c-10.785,31.921-22.645,63.604-34.239,95.385
				c-5.699,15.928-11.795,31.706-17.942,47.452c-6.105,15.759-12.205,31.503-18.292,47.217
				c-12.501,31.299-25.429,62.292-38.119,93.096c-13.448,30.482-26.312,60.939-39.892,90.646c-6.89,14.811-13.74,29.53-20.54,44.145
				c-6.792,14.619-13.455,29.172-20.674,43.318c-27.88,57.053-56.319,111.501-84.858,162.282
				c-7.234,12.641-14.37,25.111-21.399,37.393c-7.002,12.3-13.875,24.427-21.237,36c-14.5,23.274-28.112,46.012-41.905,67.39
				c-14.151,21.153-27.713,41.426-40.611,60.708c-13.126,19.127-26.476,36.661-38.541,53.469
				c-6.099,8.358-12.002,16.45-17.701,24.259c-6.031,7.563-11.844,14.855-17.432,21.857c-11.176,14.012-21.441,26.88-30.713,38.503
				c-4.53,5.899-9.241,11.135-13.623,16.105c-4.376,4.978-8.477,9.64-12.293,13.979c-7.634,8.682-14.127,16.066-19.392,22.052
				c-10.533,11.971-16.151,18.355-16.151,18.355c-4.516,5.135-12.338,5.635-17.472,1.118c-5.133-4.516-5.634-12.339-1.118-17.47
				l0.052-0.061l0.423-0.47c0,0,5.573-6.257,16.025-17.987c5.227-5.867,11.674-13.1,19.254-21.605
				c3.79-4.254,7.864-8.821,12.21-13.698c4.353-4.868,9.033-9.996,13.542-15.795c9.228-11.414,19.445-24.05,30.568-37.81
				c5.563-6.88,11.353-14.04,17.36-21.466c5.682-7.685,11.571-15.645,17.653-23.87c12.037-16.543,25.354-33.784,38.468-52.629
				c12.897-19.006,26.457-38.988,40.607-59.842c13.804-21.087,27.445-43.545,41.975-66.521c7.375-11.423,14.273-23.41,21.3-35.566
				c7.055-12.142,14.218-24.469,21.48-36.967c28.658-50.212,57.267-104.115,85.356-160.648
				c7.269-14.008,13.989-28.438,20.839-42.933c6.86-14.49,13.769-29.084,20.719-43.768c13.705-29.462,26.705-59.689,40.291-89.936
				c12.833-30.58,25.907-61.35,38.562-92.436c6.167-15.61,12.345-31.25,18.529-46.908c6.228-15.638,12.403-31.319,18.187-47.148
				c11.761-31.588,23.786-63.081,34.744-94.826c5.597-15.828,11.182-31.627,16.751-47.379c5.314-15.844,10.613-31.637,15.891-47.371
				c21.215-62.898,40.383-125.369,58.594-185.921c17.669-60.713,34.349-119.532,48.948-175.64
				c14.935-56.016,27.837-109.299,39.6-158.51c11.5-49.272,21.67-94.531,30.101-134.769c8.598-40.205,15.436-75.386,21.043-104.361
				c11.029-58.01,16.237-91.26,16.237-91.26c0.448-2.86,3.132-4.817,5.994-4.37C3089.932,1005.215,3091.88,1007.9,3091.454,1010.75z
				"/>
		</g>
		<g>
			<path style="fill:#91B3FA;" d="M2795.04,474.422c78.813,296.42,467.01,2040.14-1103.836,2698.335
				c0,0-551.077-1082.166,1060.35-2709.996C2765.651,448.52,2789.891,455.057,2795.04,474.422z"/>
			
				<linearGradient id="SVGID_00000059301724529391198410000016046764782511788732_" gradientUnits="userSpaceOnUse" x1="1809.0956" y1="1901.4174" x2="2681.4844" y2="1901.4174">
				<stop  offset="0" style="stop-color:#DAE3FE"/>
				<stop  offset="1" style="stop-color:#E9EFFD"/>
			</linearGradient>
			<path style="fill:url(#SVGID_00000059301724529391198410000016046764782511788732_);" d="M2681.467,760.5
				c0,0-12.453,154.638-50.483,383.88c-19.004,114.585-44.276,247.804-77.14,389.279
				c-32.684,141.501-73.208,291.203-121.098,438.638c-48.037,147.364-103.71,292.376-164.859,424.407
				c-61.07,132.059-127.683,250.945-192.239,348.063c-32.282,48.559-63.953,91.699-93.176,129.043
				c-7.41,9.258-14.583,18.22-21.506,26.868c-6.954,8.626-14.011,16.656-20.6,24.526c-13.089,15.823-25.905,29.682-37.264,42.383
				c-2.849,3.169-5.621,6.252-8.315,9.249c-2.785,2.914-5.489,5.745-8.111,8.49c-5.245,5.49-10.161,10.635-14.736,15.422
				c-9.04,9.68-17.162,17.497-23.683,23.896c-13.042,12.804-19.998,19.632-19.998,19.632c-4.441,4.361-11.576,4.294-15.936-0.148
				c-4.36-4.442-4.294-11.577,0.147-15.937l0.042-0.041l0.266-0.259c0,0,6.882-6.687,19.785-19.224
				c6.454-6.266,14.493-13.917,23.45-23.412c4.533-4.693,9.403-9.74,14.6-15.12c2.599-2.691,5.279-5.466,8.039-8.326
				c2.672-2.94,5.422-5.967,8.247-9.077c11.267-12.473,23.981-26.065,36.983-41.624c6.546-7.735,13.554-15.622,20.466-24.104
				c6.885-8.51,14.017-17.326,21.385-26.435c29.071-36.753,60.625-79.257,92.851-127.183
				c64.442-95.852,131.19-213.491,192.597-344.466c61.485-130.948,117.681-275.035,166.32-421.631
				c48.494-146.666,89.696-295.748,123.043-436.747c33.528-140.977,59.451-273.806,79.02-388.083
				c19.552-114.292,32.692-210.051,40.903-277.175c8.197-67.135,11.483-105.582,11.483-105.582c0.224-2.63,2.536-4.577,5.163-4.352
				C2679.742,755.575,2681.691,757.873,2681.467,760.5z"/>
		</g>
		<g>
			<g>
				
					<linearGradient id="SVGID_00000029005219696606537280000017078219863440626606_" gradientUnits="userSpaceOnUse" x1="1067.7374" y1="2048.0527" x2="2633.5879" y2="2048.0527">
					<stop  offset="0" style="stop-color:#09005D"/>
					<stop  offset="1" style="stop-color:#1A0F91"/>
				</linearGradient>
				<path style="fill:url(#SVGID_00000029005219696606537280000017078219863440626606_);" d="M1206.4,883.451
					c-60.809,3.946-108.458,53.754-109.969,114.673c-9.235,372.542-39.188,1657.582-24.89,2112.961
					c1.515,48.243,40.189,86.965,88.43,88.544c238.603,7.808,924.995,27.598,1315.269,11.225
					c81.288-3.41,145.93-69.254,147.617-150.596c8.11-391.031,26.003-1490.854-16.527-1994.683
					c-5.095-60.366-52.476-108.438-112.756-114.469C2233.726,925.112,1543.572,861.571,1206.4,883.451z"/>
				
					<linearGradient id="SVGID_00000168117572019168269830000005615426917605952917_" gradientUnits="userSpaceOnUse" x1="2569.5186" y1="-1318.9087" x2="2417.5063" y2="-629.7892">
					<stop  offset="0" style="stop-color:#FE7062"/>
					<stop  offset="1" style="stop-color:#FF928E"/>
				</linearGradient>
				<path style="fill:url(#SVGID_00000168117572019168269830000005615426917605952917_);" d="M1290.419,1015.826
					c-52.792,2.88-94.78,45.234-97.036,98.056c-13.032,305.109-54.137,1320.138-41.091,1695.474
					c1.907,54.861,45.146,99.219,99.946,102.426c225.628,13.204,804.344,42.317,1135.285,15.816
					c59.592-4.771,106.354-52.965,109.57-112.66c16.771-311.276,64.924-1256.409,52.418-1627.54
					c-1.996-59.205-47.857-107.558-106.86-112.855C2198.558,1052.628,1571.642,1000.482,1290.419,1015.826z"/>
				
					<linearGradient id="SVGID_00000058582113039674186280000002665839930744506023_" gradientUnits="userSpaceOnUse" x1="2299.844" y1="-391.2909" x2="2157.9814" y2="34.2981">
					<stop  offset="0" style="stop-color:#4F52FF"/>
					<stop  offset="1" style="stop-color:#4042E2"/>
				</linearGradient>
				<path style="fill:url(#SVGID_00000058582113039674186280000002665839930744506023_);" d="M1686.112,948.547L1686.112,948.547
					c0,11.431,8.909,20.859,20.324,21.456c56.357,2.951,215.114,11.302,286.064,15.419c13.989,0.812,24.969-11.763,22.316-25.522
					l-0.453-2.348c-1.811-9.389-9.597-16.455-19.119-17.328c-47.959-4.395-192.673-16.58-288.555-13.157
					C1695.171,927.479,1686.112,937.022,1686.112,948.547z"/>
			</g>
			<g>
				<g>
					
						<linearGradient id="SVGID_00000120544915144954269110000012672361761250033076_" gradientUnits="userSpaceOnUse" x1="1398.5084" y1="731.4637" x2="2092.197" y2="2054.0688" gradientTransform="matrix(1 0.0065 -0.0065 1 -187.5067 -118.3524)">
						<stop  offset="0" style="stop-color:#09005D"/>
						<stop  offset="1" style="stop-color:#1A0F91"/>
					</linearGradient>
					<path style="fill:url(#SVGID_00000120544915144954269110000012672361761250033076_);" d="M2269.023,1950.237l-827.175-5.363
						c-36.821-0.239-66.752-30.561-66.513-67.382l0,0c0.238-36.822,30.561-66.752,67.381-66.514l827.174,5.364
						c36.822,0.239,66.753,30.56,66.514,67.382l0,0C2336.166,1920.544,2305.844,1950.475,2269.023,1950.237z"/>
					
						<linearGradient id="SVGID_00000020400235484947131100000002165314606466940033_" gradientUnits="userSpaceOnUse" x1="1715.4856" y1="1975.6251" x2="2451.8247" y2="117.8912">
						<stop  offset="0" style="stop-color:#4F52FF"/>
						<stop  offset="1" style="stop-color:#4042E2"/>
					</linearGradient>
					<path style="fill:url(#SVGID_00000020400235484947131100000002165314606466940033_);" d="M2191.712,1211.793l-654.058-4.241
						c-155.616-1.009-283.763,125.488-284.772,281.103l-1.68,259.066c-0.38,58.654,47.298,106.955,105.953,107.336l1006.644,6.526
						c58.655,0.38,106.956-47.299,107.336-105.953l1.68-259.065C2473.825,1340.95,2347.328,1212.802,2191.712,1211.793z"/>
					
						<linearGradient id="SVGID_00000065036020113240317990000001012128138597937061_" gradientUnits="userSpaceOnUse" x1="1890.3927" y1="1960.9891" x2="1687.7303" y2="3048.6089">
						<stop  offset="0" style="stop-color:#4F52FF"/>
						<stop  offset="1" style="stop-color:#4042E2"/>
					</linearGradient>
					<path style="fill:url(#SVGID_00000065036020113240317990000001012128138597937061_);" d="M2320.119,1897.007l-919.747-5.964
						c-82.551-0.535-150.531,66.569-151.067,149.121l-0.782,120.672c-2.175,335.481,268.561,915.242,604.043,917.417h0.001
						c335.481,2.176,613.714-574.025,615.889-909.507l0.783-120.673C2469.775,1965.523,2402.671,1897.543,2320.119,1897.007z"/>
					<g>
						
							<linearGradient id="SVGID_00000156563729049730282940000007568914673593551545_" gradientUnits="userSpaceOnUse" x1="1861.4371" y1="687.2444" x2="1854.6819" y2="1045.2809">
							<stop  offset="0" style="stop-color:#09005D"/>
							<stop  offset="1" style="stop-color:#1A0F91"/>
						</linearGradient>
						<path style="fill:url(#SVGID_00000156563729049730282940000007568914673593551545_);" d="M2303.279,1583.62
							c-0.293,45.27-34.91,83.041-80.008,86.992c-244.098,21.385-497.164,20.434-757.536-5.146
							c-45.18-4.439-79.551-42.671-79.257-88.068l0.308-47.591c0.293-45.128,34.733-82.786,79.668-86.956
							c253.328-23.513,506.632-26.276,759.901,3.708c44.322,5.248,77.532,43.21,77.243,87.841L2303.279,1583.62z"/>
						<g>
							<path style="fill:#91B3FA;" d="M1653.316,1555.6c-0.2,30.756-25.294,55.528-56.051,55.328
								c-30.756-0.2-55.527-25.294-55.328-56.05c0.199-30.756,25.294-55.528,56.05-55.329
								C1628.744,1499.749,1653.516,1524.844,1653.316,1555.6z"/>
							<path style="fill:#91B3FA;" d="M2148.127,1558.809c-0.2,30.756-25.294,55.527-56.051,55.328
								c-30.756-0.2-55.527-25.294-55.328-56.05c0.199-30.756,25.294-55.528,56.05-55.329
								C2123.554,1502.957,2148.326,1528.052,2148.127,1558.809z"/>
						</g>
						<path style="fill:#91B3FA;" d="M1598.802,1632.696c-0.107-1.846,1.271-3.383,3.059-3.49l0,0
							c1.846-0.107,3.383,1.272,3.49,3.118l0,0c0.107,1.785-1.271,3.324-3.117,3.432l0,0c-0.059-0.001-0.119-0.001-0.178-0.001l0,0
							C1600.33,1635.743,1598.851,1634.423,1598.802,1632.696z M1582.067,1634.433c-1.782-0.369-2.901-2.102-2.594-3.884l0,0
							c0.37-1.785,2.103-2.963,3.885-2.593l0,0c1.785,0.369,2.904,2.041,2.596,3.884l0,0c-0.31,1.544-1.686,2.666-3.231,2.656l0,0
							C1582.485,1634.494,1582.306,1634.435,1582.067,1634.433z M1617.983,1629.965c-0.527-1.73,0.381-3.569,2.168-4.092l0,0
							c1.731-0.584,3.569,0.381,4.093,2.11l0,0c0.584,1.73-0.38,3.569-2.11,4.151l0,0l0,0l0,0c-0.358,0.117-0.713,0.115-1.012,0.112
							l0,0C1619.694,1632.236,1618.45,1631.398,1617.983,1629.965z M1562.886,1628.062c-1.66-0.787-2.301-2.753-1.518-4.355l0,0
							c0.726-1.663,2.691-2.365,4.355-1.579l0,0c1.66,0.784,2.304,2.752,1.518,4.354l0,0c-0.543,1.246-1.738,1.892-2.988,1.884l0,0
							C1563.837,1628.364,1563.361,1628.303,1562.886,1628.062z M1635.943,1622.583c-1.001-1.555-0.511-3.574,1.041-4.575l0,0
							c1.494-0.943,3.516-0.454,4.518,1.041l0,0c0.943,1.552,0.511,3.574-1.041,4.576l0,0l0,0l0,0
							c-0.54,0.353-1.195,0.469-1.79,0.464l0,0C1637.601,1624.082,1636.532,1623.538,1635.943,1622.583z M1545.88,1617.118
							c-1.364-1.14-1.586-3.225-0.388-4.643l0,0c1.139-1.362,3.224-1.528,4.646-0.389l0,0c1.362,1.142,1.525,3.224,0.385,4.646l0,0
							c-0.658,0.769-1.614,1.178-2.567,1.172l0,0C1547.243,1617.9,1546.469,1617.66,1545.88,1617.118z M1651.433,1610.959
							c-1.302-1.258-1.347-3.342-0.089-4.702l0,0c1.258-1.299,3.339-1.347,4.641-0.088l0,0c1.303,1.258,1.347,3.341,0.089,4.644l0,0
							l0,0l0,0c-0.659,0.708-1.494,1.002-2.386,0.996l0,0C1652.854,1611.803,1652.083,1611.498,1651.433,1610.959z
							 M1532.109,1602.331c-1.062-1.495-0.692-3.518,0.742-4.578l0,0c1.495-1.063,3.577-0.753,4.639,0.742l0,0
							c1.063,1.494,0.692,3.518-0.802,4.577l0,0c-0.54,0.416-1.254,0.649-1.91,0.645l0,0
							C1533.766,1603.711,1532.757,1603.227,1532.109,1602.331z M1663.611,1595.803c-1.601-0.903-2.123-2.87-1.282-4.471l0,0
							c0.906-1.601,2.931-2.123,4.472-1.279l0,0c1.601,0.902,2.183,2.928,1.282,4.472l0,0l0,0l0,0
							c-0.603,1.126-1.737,1.714-2.928,1.706l0,0C1664.681,1596.228,1664.085,1596.105,1663.611,1595.803z M1522.463,1584.593
							L1522.463,1584.593L1522.463,1584.593c-0.643-1.669,0.201-3.628,1.873-4.271l0,0c1.669-0.646,3.57,0.2,4.272,1.87l0,0
							c0.645,1.672-0.201,3.631-1.87,4.274l0,0c-0.419,0.116-0.835,0.233-1.254,0.229l0,0
							C1524.234,1586.687,1522.989,1585.907,1522.463,1584.593z M1671.641,1578.121c-1.785-0.427-2.842-2.221-2.354-4.002l0,0
							c0.484-1.723,2.279-2.784,4.002-2.354l0,0c1.781,0.488,2.842,2.279,2.354,4.002l0,0c0,0,0,0-0.001,0.058l0,0
							c-0.367,1.427-1.742,2.43-3.229,2.42l0,0C1672.175,1578.243,1671.879,1578.183,1671.641,1578.121z M1517.532,1564.981
							c-0.227-1.786,1.094-3.446,2.88-3.672l0,0c1.789-0.224,3.446,1.094,3.672,2.88l0,0c0.227,1.789-1.095,3.445-2.881,3.672l0,0
							c-0.119-0.001-0.297-0.002-0.415-0.003l0,0C1519.181,1567.848,1517.759,1566.65,1517.532,1564.981z M1671.725,1555.747
							c0-0.062,0-0.062,0-0.119l0,0c0.001-0.061,0.001-0.12,0.001-0.238l0,0c0.012-1.787,1.451-3.266,3.296-3.254l0,0
							c1.785,0.011,3.263,1.509,3.251,3.296l0,0c0,0.058,0,0.119-0.001,0.177l0,0c0,0.061,0,0.119-0.001,0.18l0,0
							c-0.012,1.784-1.448,3.263-3.293,3.25l0,0C1673.192,1559.028,1671.714,1557.53,1671.725,1555.747z M1671.727,1555.389
							L1671.727,1555.389L1671.727,1555.389v0.058l0,0C1671.727,1555.389,1671.727,1555.447,1671.727,1555.389z M1520.495,1548.457
							c-1.843-0.25-3.082-1.865-2.891-3.651l0,0c0.25-1.841,1.923-3.079,3.706-2.833l0,0c1.785,0.192,3.082,1.865,2.832,3.651l0,0
							c-0.188,1.664-1.623,2.904-3.291,2.893l0,0C1520.733,1548.517,1520.614,1548.458,1520.495,1548.457z M1669.467,1536.983
							c-0.465-1.726,0.619-3.564,2.348-3.972l0,0c1.787-0.465,3.568,0.619,4.033,2.348l0,0c0.403,1.786-0.619,3.567-2.409,4.032l0,0
							c-0.297,0.056-0.535,0.055-0.831,0.052l0,0C1671.177,1539.436,1669.815,1538.474,1669.467,1536.983z M1524.546,1529.5
							c-1.663-0.668-2.482-2.576-1.817-4.298l0,0c0.665-1.66,2.576-2.482,4.298-1.817l0,0c1.661,0.665,2.482,2.576,1.815,4.297l0,0
							c-0.543,1.246-1.798,2.073-3.109,2.063l0,0C1525.379,1529.743,1524.961,1529.621,1524.546,1529.5z M1662.675,1519.743
							L1662.675,1519.743c-0.882-1.612-0.273-3.634,1.281-4.455l0,0c1.613-0.882,3.571-0.334,4.455,1.279l0,0l0,0l0,0
							c0.882,1.613,0.332,3.573-1.281,4.455l0,0c-0.537,0.293-1.072,0.408-1.606,0.405l0,0
							C1664.39,1521.418,1663.263,1520.816,1662.675,1519.743z M1533.286,1512.177c-1.48-1.14-1.821-3.165-0.742-4.646l0,0
							c1.081-1.419,3.167-1.764,4.586-0.684l0,0c1.481,1.082,1.825,3.106,0.744,4.587l0,0c-0.66,0.888-1.674,1.358-2.685,1.352l0,0
							C1534.535,1512.781,1533.821,1512.598,1533.286,1512.177z M1651.765,1504.675L1651.765,1504.675
							c-1.24-1.319-1.169-3.401,0.149-4.643l0,0c1.377-1.24,3.457-1.166,4.701,0.15l0,0c1.241,1.319,1.166,3.402-0.15,4.643l0,0
							c-0.661,0.591-1.494,0.882-2.269,0.877l0,0C1653.304,1505.696,1652.414,1505.394,1651.765,1504.675z M1545.999,1497.5
							c-1.122-1.376-0.928-3.455,0.448-4.638l0,0c1.434-1.122,3.455-0.93,4.638,0.446l0,0c1.121,1.437,0.93,3.519-0.446,4.641l0,0
							c-0.66,0.53-1.374,0.764-2.15,0.759l0,0C1547.598,1498.702,1546.65,1498.28,1545.999,1497.5z M1637.499,1492.799
							L1637.499,1492.799c-1.539-0.963-1.944-3.049-0.982-4.531l0,0c0.963-1.539,3.047-2.002,4.528-1.04l0,0l0,0l0,0
							c1.542,1.021,2.006,3.047,1.042,4.59l0,0c-0.66,0.946-1.736,1.476-2.808,1.469l0,0
							C1638.687,1493.283,1638.093,1493.161,1637.499,1492.799z M1561.959,1486.477c-0.762-1.673-0.035-3.633,1.578-4.395l0,0
							c1.67-0.763,3.63-0.035,4.392,1.635l0,0c0.765,1.612,0.037,3.571-1.635,4.333l0,0c-0.417,0.236-0.894,0.352-1.371,0.349l0,0
							C1563.673,1488.391,1562.489,1487.669,1561.959,1486.477z M1620.77,1484.833L1620.77,1484.833
							c-1.722-0.604-2.664-2.455-2.118-4.178l0,0c0.548-1.723,2.4-2.664,4.181-2.056l0,0c0,0,0,0-0.061,0l0,0
							c1.784,0.546,2.725,2.397,2.118,4.12l0,0c-0.428,1.426-1.741,2.31-3.109,2.302l0,0
							C1621.422,1485.017,1621.065,1484.955,1620.77,1484.833z M1580.156,1479.749c-0.346-1.787,0.856-3.505,2.642-3.79l0,0
							c1.786-0.345,3.506,0.796,3.851,2.582l0,0c0.287,1.789-0.857,3.508-2.643,3.853l0,0c-0.239,0.056-0.416,0.055-0.654,0.054l0,0
							C1581.864,1482.439,1580.441,1481.358,1580.156,1479.749z M1602.52,1481.324L1602.52,1481.324
							c-1.784-0.131-3.203-1.686-3.072-3.53l0,0c0.131-1.786,1.688-3.145,3.533-3.072l0,0l0,0l0,0
							c1.783,0.13,3.142,1.685,3.072,3.53l0,0c-0.13,1.725-1.627,3.084-3.295,3.074l0,0
							C1602.64,1481.325,1602.581,1481.325,1602.52,1481.324z"/>
						<path style="fill:#91B3FA;" d="M2093.341,1635.903c-0.107-1.846,1.272-3.382,3.059-3.49l0,0
							c1.846-0.107,3.383,1.271,3.49,3.117l0,0c0.108,1.785-1.271,3.325-3.117,3.432l0,0c-0.059,0-0.119-0.001-0.177-0.002l0,0
							C2094.87,1638.95,2093.391,1637.629,2093.341,1635.903z M2076.607,1637.64c-1.781-0.369-2.901-2.102-2.593-3.885l0,0
							c0.369-1.784,2.103-2.962,3.884-2.593l0,0c1.785,0.369,2.905,2.041,2.596,3.885l0,0c-0.31,1.543-1.685,2.665-3.231,2.655l0,0
							C2077.025,1637.701,2076.845,1637.642,2076.607,1637.64z M2112.523,1633.171c-0.527-1.73,0.381-3.569,2.168-4.092l0,0
							c1.729-0.585,3.568,0.38,4.092,2.109l0,0c0.585,1.731-0.38,3.569-2.11,4.151l0,0l0,0l0,0
							c-0.358,0.117-0.712,0.114-1.012,0.112l0,0C2114.234,1635.443,2112.99,1634.604,2112.523,1633.171z M2057.426,1631.268
							c-1.66-0.787-2.301-2.752-1.517-4.354l0,0c0.725-1.663,2.692-2.365,4.354-1.578l0,0c1.66,0.784,2.304,2.752,1.517,4.354l0,0
							c-0.542,1.246-1.738,1.892-2.988,1.884l0,0C2058.378,1631.57,2057.901,1631.51,2057.426,1631.268z M2130.482,1625.79
							c-1.001-1.555-0.511-3.574,1.041-4.576l0,0c1.494-0.943,3.516-0.454,4.517,1.041l0,0c0.943,1.552,0.512,3.575-1.041,4.576l0,0
							l0,0l0,0c-0.54,0.354-1.195,0.469-1.79,0.465l0,0C2132.14,1627.289,2131.072,1626.745,2130.482,1625.79z M2040.42,1620.325
							c-1.364-1.14-1.586-3.224-0.389-4.644l0,0c1.14-1.361,3.224-1.528,4.647-0.388l0,0c1.361,1.142,1.525,3.224,0.386,4.646l0,0
							c-0.659,0.769-1.615,1.178-2.568,1.172l0,0C2041.783,1621.106,2041.009,1620.866,2040.42,1620.325z M2145.973,1614.166
							c-1.302-1.258-1.347-3.342-0.089-4.702l0,0c1.258-1.3,3.339-1.347,4.641-0.089l0,0c1.302,1.258,1.347,3.342,0.089,4.644l0,0
							l0,0l0,0c-0.658,0.708-1.494,1.002-2.386,0.996l0,0C2147.395,1615.009,2146.624,1614.705,2145.973,1614.166z
							 M2026.649,1605.538c-1.063-1.495-0.691-3.518,0.742-4.578l0,0c1.494-1.063,3.576-0.753,4.639,0.742l0,0
							c1.063,1.495,0.692,3.518-0.803,4.577l0,0c-0.54,0.415-1.254,0.649-1.91,0.645l0,0
							C2028.305,1606.917,2027.297,1606.433,2026.649,1605.538z M2158.151,1599.01c-1.601-0.902-2.123-2.87-1.281-4.472l0,0
							c0.905-1.601,2.931-2.122,4.472-1.279l0,0c1.601,0.902,2.183,2.928,1.281,4.472l0,0l0,0l0,0
							c-0.602,1.127-1.737,1.715-2.928,1.707l0,0C2159.22,1599.435,2158.626,1599.312,2158.151,1599.01z M2017.003,1587.799
							L2017.003,1587.799L2017.003,1587.799c-0.643-1.669,0.201-3.628,1.873-4.271l0,0c1.668-0.646,3.57,0.2,4.271,1.87l0,0
							c0.646,1.672-0.2,3.631-1.87,4.274l0,0c-0.419,0.116-0.835,0.233-1.254,0.231l0,0
							C2018.774,1589.894,2017.529,1589.113,2017.003,1587.799z M2166.181,1581.327c-1.785-0.427-2.842-2.221-2.354-4.002l0,0
							c0.484-1.724,2.279-2.784,4.002-2.354l0,0c1.781,0.488,2.842,2.28,2.354,4.002l0,0c0,0,0,0-0.001,0.059l0,0
							c-0.366,1.427-1.741,2.43-3.229,2.419l0,0C2166.715,1581.45,2166.419,1581.39,2166.181,1581.327z M2012.071,1568.187
							c-0.227-1.785,1.094-3.445,2.881-3.672l0,0c1.788-0.223,3.445,1.095,3.671,2.881l0,0c0.227,1.789-1.094,3.445-2.88,3.672l0,0
							c-0.119-0.001-0.296-0.002-0.416-0.003l0,0C2013.72,1571.055,2012.299,1569.857,2012.071,1568.187z M2166.265,1558.953
							c0.001-0.061,0.001-0.061,0.001-0.119l0,0c0-0.061,0-0.119,0.002-0.238l0,0c0.011-1.787,1.451-3.266,3.296-3.254l0,0
							c1.784,0.012,3.262,1.509,3.25,3.296l0,0c0,0.058-0.001,0.12-0.001,0.177l0,0c0,0.061-0.001,0.119-0.001,0.18l0,0
							c-0.012,1.784-1.448,3.263-3.293,3.25l0,0C2167.732,1562.234,2166.253,1560.737,2166.265,1558.953z M2166.268,1558.596
							L2166.268,1558.596L2166.268,1558.596l-0.001,0.058l0,0C2166.268,1558.596,2166.267,1558.654,2166.268,1558.596z
							 M2015.035,1551.663c-1.844-0.25-3.083-1.865-2.892-3.651l0,0c0.25-1.841,1.923-3.079,3.706-2.833l0,0
							c1.786,0.192,3.083,1.866,2.833,3.651l0,0c-0.188,1.664-1.623,2.904-3.291,2.893l0,0
							C2015.272,1551.723,2015.154,1551.665,2015.035,1551.663z M2164.007,1540.19c-0.466-1.726,0.618-3.564,2.347-3.972l0,0
							c1.788-0.465,3.567,0.619,4.033,2.348l0,0c0.405,1.786-0.619,3.567-2.409,4.032l0,0c-0.297,0.056-0.535,0.055-0.832,0.053l0,0
							C2165.717,1542.642,2164.354,1541.68,2164.007,1540.19z M2019.087,1532.706c-1.664-0.668-2.483-2.576-1.818-4.297l0,0
							c0.664-1.661,2.576-2.483,4.298-1.818l0,0c1.661,0.665,2.483,2.577,1.815,4.298l0,0c-0.543,1.246-1.797,2.072-3.108,2.063l0,0
							C2019.919,1532.95,2019.501,1532.828,2019.087,1532.706z M2157.214,1522.949L2157.214,1522.949
							c-0.881-1.613-0.273-3.634,1.282-4.455l0,0c1.613-0.882,3.571-0.335,4.455,1.278l0,0l0,0l0,0
							c0.881,1.613,0.331,3.573-1.281,4.455l0,0c-0.537,0.293-1.072,0.408-1.607,0.405l0,0
							C2158.929,1524.625,2157.803,1524.022,2157.214,1522.949z M2027.826,1515.383c-1.481-1.14-1.822-3.165-0.743-4.645l0,0
							c1.081-1.42,3.167-1.764,4.587-0.686l0,0c1.481,1.082,1.825,3.106,0.743,4.587l0,0c-0.659,0.888-1.674,1.358-2.685,1.352l0,0
							C2029.075,1515.987,2028.361,1515.805,2027.826,1515.383z M2146.305,1507.881L2146.305,1507.881
							c-1.241-1.319-1.17-3.401,0.149-4.643l0,0c1.376-1.24,3.456-1.166,4.7,0.15l0,0c1.241,1.319,1.166,3.401-0.149,4.643l0,0
							c-0.661,0.591-1.494,0.883-2.269,0.877l0,0C2147.844,1508.903,2146.954,1508.6,2146.305,1507.881z M2040.538,1500.707
							c-1.121-1.376-0.927-3.455,0.449-4.638l0,0c1.434-1.12,3.455-0.93,4.638,0.446l0,0c1.122,1.437,0.931,3.519-0.445,4.641l0,0
							c-0.66,0.53-1.373,0.764-2.149,0.759l0,0C2042.138,1501.909,2041.19,1501.487,2040.538,1500.707z M2132.039,1496.005
							L2132.039,1496.005c-1.54-0.963-1.945-3.049-0.982-4.531l0,0c0.963-1.54,3.047-2.003,4.528-1.04l0,0l0,0l0,0
							c1.542,1.021,2.006,3.046,1.042,4.589l0,0c-0.66,0.946-1.736,1.476-2.808,1.469l0,0
							C2133.227,1496.49,2132.632,1496.367,2132.039,1496.005z M2056.499,1489.684c-0.762-1.673-0.034-3.632,1.578-4.395l0,0
							c1.67-0.763,3.629-0.035,4.392,1.635l0,0c0.765,1.612,0.038,3.572-1.635,4.334l0,0c-0.417,0.236-0.894,0.352-1.371,0.349l0,0
							C2058.213,1491.598,2057.029,1490.876,2056.499,1489.684z M2115.309,1488.04L2115.309,1488.04
							c-1.722-0.604-2.663-2.455-2.117-4.177l0,0c0.549-1.723,2.4-2.664,4.18-2.057l0,0c0,0,0,0-0.061-0.001l0,0
							c1.783,0.546,2.724,2.397,2.117,4.12l0,0c-0.427,1.426-1.741,2.31-3.109,2.301l0,0
							C2115.962,1488.225,2115.604,1488.161,2115.309,1488.04z M2074.695,1482.956c-0.346-1.786,0.857-3.505,2.642-3.789l0,0
							c1.787-0.346,3.506,0.796,3.851,2.582l0,0c0.288,1.789-0.857,3.508-2.643,3.854l0,0c-0.239,0.057-0.417,0.056-0.654,0.054l0,0
							C2076.404,1485.646,2074.981,1484.564,2074.695,1482.956z M2097.06,1484.531L2097.06,1484.531
							c-1.784-0.131-3.203-1.686-3.072-3.531l0,0c0.131-1.786,1.688-3.144,3.533-3.071l0,0l0,0l0,0
							c1.783,0.13,3.142,1.685,3.072,3.53l0,0c-0.13,1.725-1.627,3.084-3.295,3.073l0,0
							C2097.179,1484.531,2097.121,1484.531,2097.06,1484.531z"/>
					</g>
					
						<linearGradient id="SVGID_00000028313478924443429930000001129810627448679044_" gradientUnits="userSpaceOnUse" x1="1518.5359" y1="1057.7433" x2="1479.3503" y2="1410.4125" gradientTransform="matrix(1 0.0065 -0.0065 1 -187.5067 -118.3524)">
						<stop  offset="0" style="stop-color:#4F52FF"/>
						<stop  offset="1" style="stop-color:#4042E2"/>
					</linearGradient>
					<path style="fill:url(#SVGID_00000028313478924443429930000001129810627448679044_);" d="M1340.106,1076.495
						c-0.111,17.068-14.037,30.814-31.104,30.703c-17.068-0.111-30.814-14.036-30.704-31.104
						c0.111-17.067,14.037-30.813,31.104-30.703C1326.47,1045.502,1340.217,1059.428,1340.106,1076.495z"/>
					
						<linearGradient id="SVGID_00000009575023705335937180000005321714774450729631_" gradientUnits="userSpaceOnUse" x1="1504.4133" y1="1368.9419" x2="1618.5735" y2="1368.9419" gradientTransform="matrix(1 0.0065 -0.0065 1 -187.5067 -118.3524)">
						<stop  offset="0" style="stop-color:#09005D"/>
						<stop  offset="1" style="stop-color:#1A0F91"/>
					</linearGradient>
					<path style="fill:url(#SVGID_00000009575023705335937180000005321714774450729631_);" d="M1307.547,1331.653
						c0,0,73.74,9.923,114.723-86.162l-19.356-40.563c-6.588-13.807-23.186-19.569-36.913-12.818l-42.503,20.908
						c-9.335,4.592-15.274,14.064-15.342,24.467L1307.547,1331.653z"/>
					
						<linearGradient id="SVGID_00000030471702681887985150000014406959795014616238_" gradientUnits="userSpaceOnUse" x1="1556.196" y1="1068.5403" x2="1518.8428" y2="1404.7196" gradientTransform="matrix(1 0.0065 -0.0065 1 -187.5067 -118.3524)">
						<stop  offset="0" style="stop-color:#4F52FF"/>
						<stop  offset="1" style="stop-color:#4042E2"/>
					</linearGradient>
					<path style="fill:url(#SVGID_00000030471702681887985150000014406959795014616238_);" d="M1315.233,1090.622
						c-0.794-1.886-3.629-1.044-3.265,0.969l24.552,135.801c0.559,3.089,2.63,5.692,5.516,6.93c2.885,1.238,6.199,0.945,8.823-0.78
						l7.893-5.188c6.562-4.313,9.113-12.694,6.066-19.932L1315.233,1090.622z"/>
					
						<linearGradient id="SVGID_00000025431196016590448920000014142445373726376108_" gradientUnits="userSpaceOnUse" x1="2617.4927" y1="1179.8317" x2="2578.3069" y2="1532.5029" gradientTransform="matrix(1 0.0065 -0.0065 1 -187.5067 -118.3524)">
						<stop  offset="0" style="stop-color:#4F52FF"/>
						<stop  offset="1" style="stop-color:#4042E2"/>
					</linearGradient>
					<path style="fill:url(#SVGID_00000025431196016590448920000014142445373726376108_);" d="M2390.823,1083.308
						c-0.111,17.068,13.636,30.994,30.704,31.104c17.067,0.111,30.993-13.636,31.104-30.703
						c0.111-17.067-13.635-30.993-30.703-31.104C2404.86,1052.494,2390.934,1066.24,2390.823,1083.308z"/>
					
						<linearGradient id="SVGID_00000096779638786810008420000000741292029257769859_" gradientUnits="userSpaceOnUse" x1="2502.7783" y1="1368.9253" x2="2616.9392" y2="1368.9253" gradientTransform="matrix(1 0.0065 -0.0065 1 -187.5067 -118.3524)">
						<stop  offset="0" style="stop-color:#09005D"/>
						<stop  offset="1" style="stop-color:#1A0F91"/>
					</linearGradient>
					<path style="fill:url(#SVGID_00000096779638786810008420000000741292029257769859_);" d="M2420.071,1338.867
						c0,0-73.863,8.966-113.596-87.643l19.88-40.308c6.767-13.72,23.438-19.267,37.076-12.337l42.228,21.457
						c9.275,4.713,15.091,14.261,15.023,24.664L2420.071,1338.867z"/>
					
						<linearGradient id="SVGID_00000183967498577280242170000007796002607389808317_" gradientUnits="userSpaceOnUse" x1="2595.8359" y1="1178.1223" x2="2558.1011" y2="1517.7355" gradientTransform="matrix(1 0.0065 -0.0065 1 -187.5067 -118.3524)">
						<stop  offset="0" style="stop-color:#4F52FF"/>
						<stop  offset="1" style="stop-color:#4042E2"/>
					</linearGradient>
					<path style="fill:url(#SVGID_00000183967498577280242170000007796002607389808317_);" d="M2418.764,1098.767l-26.197,134.883
						c-0.624,3.213-2.819,5.898-5.843,7.149s-6.474,0.901-9.186-0.932l-7.327-4.954c-6.505-4.398-8.947-12.812-5.807-20.009
						l51.108-117.149C2416.33,1095.88,2419.153,1096.759,2418.764,1098.767z"/>
					<path style="fill:#91B3FA;" d="M1518.218,1365.246c-16.769-0.109-30.97-13.018-32.371-30.05
						c-1.481-18.017,11.924-33.822,29.938-35.304c238.036-19.573,455.467-18.849,664.702,2.215
						c17.987,1.808,31.098,17.857,29.288,35.841c-1.811,17.987-17.799,31.11-35.842,29.288
						c-205.227-20.654-418.752-21.344-652.781-2.103C1520.165,1365.215,1519.188,1365.252,1518.218,1365.246z"/>
					<path style="fill:#91B3FA;" d="M1848.835,1703.579c-132.263-0.858-265.537-8.274-398.955-22.25
						c-48.915-5.124-85.546-48.623-85.205-101.182l0.344-53.035c0.338-52.152,37.195-95.134,85.734-99.98
						c286.279-28.574,545.21-27.34,791.6,3.778c47.677,6.022,83.382,49.408,83.048,100.923l-0.356,54.851
						c-0.34,52.427-37.357,95.429-86.106,100.021C2110.55,1698.808,1980.193,1704.431,1848.835,1703.579z M1867.374,1412.825
						c-132.919-0.862-270.944,5.953-416.01,20.436c-45.395,4.53-79.868,44.894-80.185,93.89l-0.344,53.035
						c-0.32,49.377,33.936,90.225,79.689,95.02c265.517,27.807,530.585,29.614,787.838,5.37
						c45.585-4.296,80.202-44.677,80.522-93.932l0.356-54.852c0.314-48.4-33.072-89.144-77.66-94.774
						C2120.477,1421.722,1996.328,1413.661,1867.374,1412.825z"/>
					<g>
						<path style="fill:#7D97F4;" d="M2069.111,2264.351l-428.465-2.778c-41.017-0.266-74.17-33.851-73.904-74.868l0.791-121.994
							c0.266-41.017,33.852-74.17,74.868-73.904l428.464,2.778c41.017,0.266,74.17,33.852,73.904,74.868l-0.791,121.994
							C2143.713,2231.464,2110.128,2264.617,2069.111,2264.351z M1642.363,1996.758c-37.737-0.245-68.635,30.255-68.879,67.992
							l-0.791,121.993c-0.244,37.737,30.255,68.635,67.992,68.88l428.464,2.778c37.737,0.245,68.635-30.255,68.88-67.992
							l0.791-121.993c0.245-37.736-30.255-68.635-67.991-68.879L1642.363,1996.758z"/>
					</g>
					<g>
						<path style="fill:#7D97F4;" d="M1682.562,2065.457c-0.773-0.005-1.545-0.071-2.317-0.253
							c-0.772-0.124-1.486-0.366-2.199-0.668c-0.713-0.304-1.422-0.666-2.075-1.147c-0.652-0.419-1.244-0.9-1.775-1.499
							c-2.188-2.214-3.476-5.317-3.456-8.411c0.021-3.156,1.348-6.181,3.565-8.427c4.431-4.376,12.407-4.325,16.841,0.11
							c0.531,0.596,1.003,1.195,1.476,1.852c0.411,0.66,0.765,1.316,1.056,2.033c0.294,0.774,0.528,1.491,0.642,2.264
							c0.172,0.774,0.225,1.55,0.221,2.323c-0.005,0.773-0.069,1.546-0.251,2.317c-0.123,0.776-0.366,1.486-0.671,2.199
							c-0.301,0.771-0.663,1.426-1.083,2.077c-0.48,0.651-0.961,1.243-1.499,1.774c-0.541,0.592-1.198,1.064-1.855,1.476
							c-0.66,0.472-1.316,0.826-2.033,1.12c-0.714,0.291-1.49,0.524-2.265,0.639
							C1684.169,2065.406,1683.337,2065.462,1682.562,2065.457z"/>
						<path style="fill:#7D97F4;" d="M1951.8,2055.3c0.043-6.546,5.372-11.867,11.918-11.825l0,0
							c6.605,0.043,11.928,5.433,11.885,11.979l0,0c-0.042,6.547-5.435,11.867-12.04,11.825l0,0
							C1957.018,2067.237,1951.758,2061.847,1951.8,2055.3z M1895.563,2054.936c0.043-6.547,5.433-11.867,11.979-11.825l0,0
							c6.604,0.043,11.867,5.432,11.824,11.979l0,0c-0.042,6.547-5.374,11.867-11.979,11.824l0,0
							C1900.841,2066.872,1895.521,2061.482,1895.563,2054.936z M1839.387,2054.572c0.042-6.547,5.374-11.868,11.979-11.824l0,0
							c6.547,0.042,11.867,5.432,11.825,11.979l0,0c-0.043,6.547-5.432,11.867-11.979,11.825l0,0
							C1844.607,2066.508,1839.345,2061.118,1839.387,2054.572z M1783.15,2054.207c0.042-6.547,5.433-11.867,11.979-11.824l0,0
							c6.605,0.043,11.867,5.432,11.825,11.979l0,0c-0.043,6.547-5.374,11.868-11.979,11.825l0,0
							C1788.428,2066.143,1783.108,2060.753,1783.15,2054.207z M1726.974,2053.843c0.042-6.547,5.374-11.867,11.979-11.824l0,0
							c6.547,0.042,11.867,5.432,11.824,11.979l0,0c-0.042,6.546-5.432,11.867-11.979,11.824l0,0
							C1732.194,2065.779,1726.932,2060.389,1726.974,2053.843z"/>
						<path style="fill:#7D97F4;" d="M2019.801,2067.643c-3.155-0.02-6.181-1.289-8.368-3.568c-0.593-0.538-1.065-1.136-1.477-1.793
							c-0.411-0.657-0.825-1.316-1.117-2.03c-0.295-0.778-0.525-1.491-0.639-2.268c-0.175-0.774-0.228-1.548-0.223-2.32
							c0.02-3.155,1.29-6.181,3.565-8.369c0.539-0.592,1.138-1.065,1.794-1.476c0.66-0.473,1.316-0.826,2.091-1.117
							c0.717-0.292,1.433-0.526,2.207-0.64c3.873-0.751,7.97,0.528,10.75,3.342c2.188,2.217,3.418,5.258,3.397,8.414
							c-0.005,0.773-0.071,1.545-0.253,2.317c-0.124,0.775-0.366,1.486-0.671,2.26c-0.301,0.709-0.663,1.364-1.143,2.015
							c-0.42,0.651-0.9,1.244-1.438,1.775c-0.599,0.591-1.198,1.064-1.855,1.475c-0.657,0.472-1.316,0.825-2.03,1.12
							c-0.777,0.291-1.491,0.525-2.268,0.639C2021.348,2067.593,2020.574,2067.649,2019.801,2067.643z"/>
					</g>
				</g>
			</g>
		</g>
		<g>
			
				<linearGradient id="SVGID_00000001627262881831859420000014474019508779085741_" gradientUnits="userSpaceOnUse" x1="2608.0867" y1="1365.0479" x2="2737.8767" y2="1688.1989" gradientTransform="matrix(1 0 0 1 104.2937 0)">
				<stop  offset="0" style="stop-color:#09005D"/>
				<stop  offset="1" style="stop-color:#1A0F91"/>
			</linearGradient>
			<path style="fill:url(#SVGID_00000001627262881831859420000014474019508779085741_);" d="M3191.961,2119.086
				c-19.827-33.033-24.965-62.663-19.104-100.972c9.675-63.238,2.136-133.665-38.161-185.705
				c-38.227-49.368-107.036-53.777-149.024-97.824c-0.291-0.305-1.26-1.741-2.666-3.955c-10.61-16.712-16.43-35.721-17.085-55.506
				c-4.101-123.945-94.262-122.499-137.039-98.983c-67.727,37.231-52.858,106.708-52.858,106.708
				c18.896,20.205,86.387-22.859,86.387-22.859l28.052,45.035c-7.952,3.457-16.495,7.365-25.792,11.923
				c-63.564,31.166-70.369,274.657-34.572,313.603c35.797,38.945,42.094,76.121,5.984,139.846
				c-36.11,63.725-15.228,146.935,176.902,215.974c31.118,11.182,77.968,12.386,108.706-0.083
				c67.42-27.349,104.503-107.526,106.327-176.61C3228.947,2174.615,3209.142,2147.71,3191.961,2119.086z"/>
			<path style="fill:#FFFFFF;" d="M3142.158,2039.493c-0.023,0-0.05-0.002-0.076-0.003c-0.465-0.041-0.808-0.452-0.765-0.917
				c7.857-87.551-18.887-145.164-42.709-178.076c-26.012-35.936-59.984-57.975-80.544-63.245
				c-36.258-9.294-53.106-51.803-53.275-52.232c-0.168-0.435,0.05-0.924,0.482-1.092c0.439-0.17,0.924,0.046,1.095,0.482
				c0.162,0.421,16.71,42.13,52.12,51.206c16.071,4.12,51.322,22.212,81.487,63.891c23.994,33.147,50.929,91.145,43.026,179.218
				C3142.959,2039.163,3142.59,2039.493,3142.158,2039.493z"/>
			<path style="fill:#FFFFFF;" d="M3110.799,2348.739c-0.336,0-0.656-0.205-0.788-0.539c-0.168-0.434,0.049-0.924,0.481-1.092
				c0.762-0.295,75.939-30.467,74.636-113.852c-0.007-0.467,0.366-0.851,0.831-0.857c0.003,0,0.01,0,0.013,0
				c0.462,0,0.838,0.369,0.844,0.831c1.319,84.583-74.943,115.154-75.711,115.452
				C3111.003,2348.721,3110.901,2348.739,3110.799,2348.739z"/>
			
				<linearGradient id="SVGID_00000182509154659067075850000017408461240244269750_" gradientUnits="userSpaceOnUse" x1="478.4666" y1="1933.9368" x2="404.4273" y2="2207.8823" gradientTransform="matrix(-1 0 0 1 3168.7236 0)">
				<stop  offset="0" style="stop-color:#FEBBBA"/>
				<stop  offset="1" style="stop-color:#FF928E"/>
			</linearGradient>
			<path style="fill:url(#SVGID_00000182509154659067075850000017408461240244269750_);" d="M2644.684,2038.249
				c0,0,83.196,99.635,166.971,18.722l32.368,75.062c0,0-122.338,94.728-215.134-54.316L2644.684,2038.249z"/>
			
				<linearGradient id="SVGID_00000119832038295178032010000007688135899895134364_" gradientUnits="userSpaceOnUse" x1="581.239" y1="1899.1963" x2="-217.4973" y2="3008.5518" gradientTransform="matrix(-1 0 0 1 3373.3059 0)">
				<stop  offset="0" style="stop-color:#FE7062"/>
				<stop  offset="1" style="stop-color:#FF928E"/>
			</linearGradient>
			<path style="fill:url(#SVGID_00000119832038295178032010000007688135899895134364_);" d="M2850.164,1853.283
				c23.094-6.924,90.336-19.706,154.296,39.318c10.847,10.011,15.281,25.221,11.412,39.466
				c-17.179,63.246-62.505,250.101-22.762,330.95c0,0-70.036,77.205-146.442,14.979c0,0-34.281-149.411-79.183-215.003
				c-31-45.283,49.432-170.046,69.781-200.188C2840.348,1858.241,2844.89,1854.864,2850.164,1853.283z"/>
			
				<linearGradient id="SVGID_00000064333391762784729830000000614253338357675446_" gradientUnits="userSpaceOnUse" x1="-5344.1577" y1="2923.2197" x2="-5325.6738" y2="2791.9856" gradientTransform="matrix(0.9887 0.1503 -0.1503 0.9887 8579.8936 -161.5951)">
				<stop  offset="0" style="stop-color:#FEBBBA"/>
				<stop  offset="1" style="stop-color:#FF928E"/>
			</linearGradient>
			<path style="fill:url(#SVGID_00000064333391762784729830000000614253338357675446_);" d="M2885.938,1732.719
				c0,0,46.602,91.258,54.773,133.167c0,0-35.154,21.995-74.234-2.03c0,0-16.431-95.16-24.057-111.577L2885.938,1732.719z"/>
			
				<linearGradient id="SVGID_00000049215330659282712080000008050365192750461340_" gradientUnits="userSpaceOnUse" x1="4444.8218" y1="3405.0229" x2="4857.166" y2="2677.1467" gradientTransform="matrix(-1 -0.0095 -0.0095 1 7642.1255 56.9446)">
				<stop  offset="0" style="stop-color:#FEBBBA"/>
				<stop  offset="1" style="stop-color:#FF928E"/>
			</linearGradient>
			<path style="fill:url(#SVGID_00000049215330659282712080000008050365192750461340_);" d="M2757.473,2591.699
				c0.262,6.782-11.647,60.584-18.128,89.282c-2.609,11.547-0.792,23.631,5.087,33.906l224.458,377.774
				c2.716,4.569,4.692,9.519,5.893,14.697c4.113,17.728,12.645,61.175,8.19,100.701l-11.61,24.116l50.218-11.402l10.926-134.86
				l-14.217-8.669c-12.281-7.488-21.845-18.684-27.321-31.986c-20.296-49.3-70.697-174.796-83.689-235.957
				c-14.765-69.509-91.952-125.965-91.952-125.965l13.561-32.059L2757.473,2591.699z"/>
			
				<linearGradient id="SVGID_00000063612744580439870750000007941520121371704494_" gradientUnits="userSpaceOnUse" x1="4534.71" y1="3147.677" x2="4655.2393" y2="3147.677" gradientTransform="matrix(-1 -0.0095 -0.0095 1 7642.1255 56.9446)">
				<stop  offset="0" style="stop-color:#09005D"/>
				<stop  offset="1" style="stop-color:#1A0F91"/>
			</linearGradient>
			<path style="fill:url(#SVGID_00000063612744580439870750000007941520121371704494_);" d="M3077.391,3174.366
				c0,0-27.119-42.994-30.31-59.73c-3.191-16.736-12.073-46.29-28.792-37.393c0,0-7.878,81.299-5.163,113.066
				c2.715,31.766-35.911,30.744-35.911,30.744s-10.646,1.497-18.442,9.29c-5.384,5.383-1.533,14.721,6.062,15.21
				c12.641,0.815,32.719,1.028,53.801-3.046c7.368-1.423,12.83-7.693,13.276-15.185l5.565-93.568l34.208,43.194L3077.391,3174.366z"
				/>
			
				<linearGradient id="SVGID_00000140717852098984097920000012934602473912496052_" gradientUnits="userSpaceOnUse" x1="3022.0652" y1="2742.5701" x2="3254.0005" y2="2404.8003">
				<stop  offset="0" style="stop-color:#FEBBBA"/>
				<stop  offset="1" style="stop-color:#FF928E"/>
			</linearGradient>
			<path style="fill:url(#SVGID_00000140717852098984097920000012934602473912496052_);" d="M2891.56,2651.874
				c0,0,7.916,337.917,8.989,385.909c1.072,47.993-7.578,154.349-55.69,186.14l20.936,15.5c0,0,26.163-22.236,51.723-65.032
				c28.714-48.077,37.396-56.86,37.396-56.86l-9.528-19.513c-4.172-8.543-5.398-18.206-3.477-27.517
				c10.382-50.32,45.066-217.691,54.528-253.734c11.168-42.547,11.962-99.365-26.892-146.927
				C2930.69,2622.28,2891.56,2651.874,2891.56,2651.874z"/>
			
				<linearGradient id="SVGID_00000014629151963156983510000007106254699718957440_" gradientUnits="userSpaceOnUse" x1="4646.4561" y1="3169.4456" x2="4790.1387" y2="3169.4456" gradientTransform="matrix(-1 -0.0095 -0.0095 1 7642.1255 56.9446)">
				<stop  offset="0" style="stop-color:#09005D"/>
				<stop  offset="1" style="stop-color:#1A0F91"/>
			</linearGradient>
			<path style="fill:url(#SVGID_00000014629151963156983510000007106254699718957440_);" d="M2935.988,3254.652
				c1.492,0.014,2.761-1.055,2.972-2.533c1.602-11.265,8.266-56.43,13.72-68.126c6.249-13.393,26.656-69.765-0.011-74.551
				c0,0-66.296,96.859-79.022,109.917c-12.727,13.06-28.789,4.563-28.789,4.563s-12.399,3.663-21.75,15.613
				c-4.451,5.687-0.305,14.036,6.917,14.105l44.655,0.427c12.968,0.123,24.632-7.754,29.453-19.794
				c7.861-19.633,21.362-48.43,37.099-61.206l-8.177,78.299C2932.874,3253.111,2934.232,3254.636,2935.988,3254.652
				L2935.988,3254.652z"/>
			
				<linearGradient id="SVGID_00000028293619733546356220000000086777864856248475_" gradientUnits="userSpaceOnUse" x1="4845.4849" y1="2204.3979" x2="4501.2666" y2="2971.7192" gradientTransform="matrix(-1 -0.0095 -0.0095 1 7642.1255 56.9446)">
				<stop  offset="0" style="stop-color:#4F52FF"/>
				<stop  offset="1" style="stop-color:#4042E2"/>
			</linearGradient>
			<path style="fill:url(#SVGID_00000028293619733546356220000000086777864856248475_);" d="M2836.099,2241.562
				c0,0,10.062,32.074-5.397,84.901l-95.899,334.884c-1.507,5.262,1.333,10.77,6.485,12.618
				c28.685,10.295,122.982,39.394,251.707,30.52c6.48-0.447,11.915-5.036,13.324-11.378c8.482-38.178,37.421-168.437,43.379-195.201
				c22.705-101.982,44.691-198.969-66.832-265.471C2931.47,2254.449,2886.897,2254.431,2836.099,2241.562z"/>
			
				<linearGradient id="SVGID_00000139979840984593849180000001061157224335072441_" gradientUnits="userSpaceOnUse" x1="2745.6731" y1="2170.4834" x2="3056.4224" y2="1927.2888">
				<stop  offset="0" style="stop-color:#FEBBBA"/>
				<stop  offset="1" style="stop-color:#FF928E"/>
			</linearGradient>
			<path style="fill:url(#SVGID_00000139979840984593849180000001061157224335072441_);" d="M2951.779,1938.329
				c0,0,19.305,275.864-158.93,137.305c0,0-26.323-24.866-45.327-27.89c-10.237-1.628-21.785-2.716-30.262-3.373
				c-3.868-0.3-5.677,4.696-2.502,6.926c6.122,4.301,14.145,8.932,21.103,9.654c13.446,1.394-0.889,11.248,13.754,36.994
				c14.642,25.747,35.559,16.037,35.559,16.037s204.223,209.138,244.997-155.612
				C3031.609,1890.516,2966.317,1894.125,2951.779,1938.329z"/>
			<g>
				
					<linearGradient id="SVGID_00000096737592768159486730000001090058596893240204_" gradientUnits="userSpaceOnUse" x1="2682.2295" y1="1857.8354" x2="2628.1865" y2="2128.0518">
					<stop  offset="0" style="stop-color:#4F52FF"/>
					<stop  offset="1" style="stop-color:#4042E2"/>
				</linearGradient>
				<path style="fill:url(#SVGID_00000096737592768159486730000001090058596893240204_);" d="M2589.989,1969.676l60.635-7.99
					c7.229-1.198,14.692,3.038,19.159,10.875l39.886,88.164c7.509,13.173,2.168,30.649-9.983,32.663l-48.69,6.245
					c-4.659,0.772-9.447-2.168-12.076-7.416l-53.944-107.671C2581.86,1978.326,2584.466,1970.592,2589.989,1969.676z"/>
			</g>
			
				<linearGradient id="SVGID_00000122703075438110115530000002495581864302809278_" gradientUnits="userSpaceOnUse" x1="560.2778" y1="1962.9003" x2="521.258" y2="2107.2737" gradientTransform="matrix(-1 0 0 1 3168.7236 0)">
				<stop  offset="0" style="stop-color:#FEBBBA"/>
				<stop  offset="1" style="stop-color:#FF928E"/>
			</linearGradient>
			<path style="fill:url(#SVGID_00000122703075438110115530000002495581864302809278_);" d="M2631.357,2088.596
				c0,0-40.769-59.33-36.032-66.635c4.736-7.304,40.474-17.769,48.866-20.238
				C2652.582,1999.255,2668.377,2053.057,2631.357,2088.596z"/>
			
				<linearGradient id="SVGID_00000151519190418736017270000011970469604865276324_" gradientUnits="userSpaceOnUse" x1="-6223.9595" y1="3302.2129" x2="-6051.1323" y2="3500.918" gradientTransform="matrix(0.9609 -0.2771 0.2771 0.9609 7852.2778 -3190.0432)">
				<stop  offset="0" style="stop-color:#FEBBBA"/>
				<stop  offset="1" style="stop-color:#FF928E"/>
			</linearGradient>
			<path style="fill:url(#SVGID_00000151519190418736017270000011970469604865276324_);" d="M2781.471,1681.278
				c0,0-8.684,153.41,55.858,155.559c64.542,2.15,70.804-106.929,70.804-106.929s-19.053-68.912-49.779-76.946
				C2827.629,1644.927,2781.471,1681.278,2781.471,1681.278z"/>
			
				<linearGradient id="SVGID_00000073699534588514201550000004270082438080929682_" gradientUnits="userSpaceOnUse" x1="2609.4338" y1="1361.5549" x2="2739.5469" y2="1685.5109" gradientTransform="matrix(1 0 0 1 104.2937 0)">
				<stop  offset="0" style="stop-color:#09005D"/>
				<stop  offset="1" style="stop-color:#1A0F91"/>
			</linearGradient>
			<path style="fill:url(#SVGID_00000073699534588514201550000004270082438080929682_);" d="M2800.451,1633.928
				c0,0-29.489,30.153-24.426,48.921c5.064,18.768,68.316-0.858,83.91-9.723l52.251,55.613c0,0-1.602-82.387-37.649-107.758
				C2838.49,1595.609,2800.451,1633.928,2800.451,1633.928z"/>
			
				<linearGradient id="SVGID_00000101797586373074648640000003601944727044518532_" gradientUnits="userSpaceOnUse" x1="-6180.7788" y1="3264.6555" x2="-6007.9536" y2="3463.3582" gradientTransform="matrix(0.9609 -0.2771 0.2771 0.9609 7852.2778 -3190.0432)">
				<stop  offset="0" style="stop-color:#FEBBBA"/>
				<stop  offset="1" style="stop-color:#FF928E"/>
			</linearGradient>
			<path style="fill:url(#SVGID_00000101797586373074648640000003601944727044518532_);" d="M2888.581,1731.389
				c0,0,7.865-52.619,33.586-37.823c25.721,14.796-1.886,55.575-21.98,53.031L2888.581,1731.389z"/>
		</g>
		<g>
			
				<linearGradient id="SVGID_00000013902570263242319010000010810667029137140888_" gradientUnits="userSpaceOnUse" x1="880.116" y1="2440.8081" x2="1096.2886" y2="1934.1528">
				<stop  offset="0" style="stop-color:#4F52FF"/>
				<stop  offset="1" style="stop-color:#4042E2"/>
			</linearGradient>
			<path style="fill:url(#SVGID_00000013902570263242319010000010810667029137140888_);" d="M976.428,1895.313
				c0,0,69.329,65.756,92.246,182.633c22.917,116.877,77.345-165.224,77.345-165.224h55.001c0,0,20.747,290.682-134.532,313.791
				c-29.601,4.406-59.303-7.308-77.818-30.819c-28.353-36.006-72.594-100.062-83.28-161.124
				C914.557,1938.319,976.428,1895.313,976.428,1895.313z"/>
			
				<linearGradient id="SVGID_00000121986842335215319980000011877987263386650281_" gradientUnits="userSpaceOnUse" x1="1495.899" y1="3585.8176" x2="1502.6964" y2="3381.9014" gradientTransform="matrix(-1 0 0 1 2188.7139 0)">
				<stop  offset="0" style="stop-color:#7C27DD"/>
				<stop  offset="1" style="stop-color:#2B41D9"/>
			</linearGradient>
			<path style="fill:url(#SVGID_00000121986842335215319980000011877987263386650281_);" d="M624.164,3241.299
				c-0.014-0.86,0.044-1.731,0.265-2.609c13.006-51.567,66.19-77.999,66.19-77.999l25.582,2.005
				c14.708,45.45,24.192,67.639,21.83,80.055c-0.066,0.348-0.171,0.679-0.264,1.016
				C716.666,3245.653,673.231,3246.883,624.164,3241.299z"/>
			
				<linearGradient id="SVGID_00000032620587387915996050000007502056399682664348_" gradientUnits="userSpaceOnUse" x1="1738.1768" y1="3063.9395" x2="1318.0403" y2="3393.8318" gradientTransform="matrix(-1 0 0 1 2188.7139 0)">
				<stop  offset="0" style="stop-color:#09005D"/>
				<stop  offset="1" style="stop-color:#1A0F91"/>
			</linearGradient>
			<path style="fill:url(#SVGID_00000032620587387915996050000007502056399682664348_);" d="M737.768,3243.766
				c-1.14,4.146-4.2,7.374-8.118,8.198c-30.019,6.313-77.73,1.232-97.762-1.387c-4.419-0.577-7.65-4.665-7.724-9.279
				C673.231,3246.883,716.666,3245.653,737.768,3243.766z"/>
			
				<linearGradient id="SVGID_00000131333756610802298110000002973931564562924700_" gradientUnits="userSpaceOnUse" x1="3185.6912" y1="3068.9832" x2="3162.8862" y2="3268.0076" gradientTransform="matrix(1 0 0 1 -2484.7832 0)">
				<stop  offset="0" style="stop-color:#A22B25"/>
				<stop  offset="1" style="stop-color:#C0423C"/>
			</linearGradient>
			<path style="fill:url(#SVGID_00000131333756610802298110000002973931564562924700_);" d="M669.554,3120.881l11.201,53.919
				c0.82,3.951,3.856,6.91,7.534,7.255c4.5,0.422,10.909,0.67,17.352-0.276c5.779-0.849,9.803-6.721,8.778-13.022l-7.785-47.876
				H669.554z"/>
			
				<linearGradient id="SVGID_00000011723553252513794970000013236427516295863955_" gradientUnits="userSpaceOnUse" x1="3572.8516" y1="3161.845" x2="3166.5664" y2="3480.8611" gradientTransform="matrix(1 0 0 1 -2484.7832 0)">
				<stop  offset="0" style="stop-color:#09005D"/>
				<stop  offset="1" style="stop-color:#1A0F91"/>
			</linearGradient>
			<path style="fill:url(#SVGID_00000011723553252513794970000013236427516295863955_);" d="M955.13,3243.32
				c-27.322-0.765-41.453-3.983-48.76-6.969c-0.016,2.716-0.001,5.481,0.087,8.345c0.095,3.06,2.361,5.503,5.149,5.486
				l150.012-0.968c4.788-0.032,7.586-5.583,5.512-9.974C1047.46,3240.865,997.365,3244.501,955.13,3243.32z"/>
			
				<linearGradient id="SVGID_00000014608465444573556460000003869803692555035020_" gradientUnits="userSpaceOnUse" x1="3455.6865" y1="3711.9214" x2="3462.4841" y2="3508.0022" gradientTransform="matrix(1 0 0 1 -2484.7832 0)">
				<stop  offset="0" style="stop-color:#7C27DD"/>
				<stop  offset="1" style="stop-color:#2B41D9"/>
			</linearGradient>
			<path style="fill:url(#SVGID_00000014608465444573556460000003869803692555035020_);" d="M1067.129,3239.24
				c-0.182-0.382-0.336-0.772-0.594-1.131c-13.248-18.511-46.991-55.373-113.666-71.361l-31.986-1.009
				c0,0-14.243,24.755-14.512,70.612c7.306,2.985,21.438,6.204,48.76,6.969C997.365,3244.501,1047.46,3240.865,1067.129,3239.24z"/>
			
				<linearGradient id="SVGID_00000056396449755627940150000000987281756102572930_" gradientUnits="userSpaceOnUse" x1="3425.9226" y1="3094.4458" x2="3404.5903" y2="3280.6191" gradientTransform="matrix(1 0 0 1 -2484.7832 0)">
				<stop  offset="0" style="stop-color:#A22B25"/>
				<stop  offset="1" style="stop-color:#C0423C"/>
			</linearGradient>
			<path style="fill:url(#SVGID_00000056396449755627940150000000987281756102572930_);" d="M914.951,3117.265
				c0.356,2.383,4.74,38.62,6.437,52.67c0.403,3.339,2.822,5.922,5.871,6.286c5.446,0.651,14.259,1.243,21.971-0.338
				c4.16-0.853,7.171-4.849,7.171-9.495v-56.882L914.951,3117.265z"/>
			
				<linearGradient id="SVGID_00000132074461769702301750000001772666452034371467_" gradientUnits="userSpaceOnUse" x1="810.8618" y1="3048.8372" x2="780.4641" y2="2258.4954">
				<stop  offset="0" style="stop-color:#09005D"/>
				<stop  offset="1" style="stop-color:#1A0F91"/>
			</linearGradient>
			<path style="fill:url(#SVGID_00000132074461769702301750000001772666452034371467_);" d="M690.928,2412.838
				c0,0-51.184,454.968-22.748,739.322c0,0,34.122,0,51.183-5.688c0,0,53.187-444.84,70.395-572.133
				c0.648-4.798,7.498-5.016,8.441-0.266c21.229,107.092,104.611,527.053,114.525,566.713c0,0,28.436,11.375,51.185,0
				c0,0-45.497-608.518-79.619-716.573L690.928,2412.838z"/>
			
				<linearGradient id="SVGID_00000156582527948189920690000000276906631959982759_" gradientUnits="userSpaceOnUse" x1="655.0569" y1="2344.7825" x2="871.2296" y2="1838.1271">
				<stop  offset="0" style="stop-color:#4F52FF"/>
				<stop  offset="1" style="stop-color:#4042E2"/>
			</linearGradient>
			<path style="fill:url(#SVGID_00000156582527948189920690000000276906631959982759_);" d="M588.56,1883.939
				c0,0,216.11-34.123,386.722,11.374l-11.374,176.3c0,0-45.497,244.544-79.619,352.599c0,0-130.803,22.748-193.361-11.374
				c0,0-51.184-307.103-79.619-352.6C611.309,2060.238,582.873,1940.81,588.56,1883.939z"/>
			
				<linearGradient id="SVGID_00000066506671158782913530000009881581143807487906_" gradientUnits="userSpaceOnUse" x1="802.4316" y1="1513.1862" x2="711.2378" y2="2475.7822">
				<stop  offset="0" style="stop-color:#A22B25"/>
				<stop  offset="1" style="stop-color:#C0423C"/>
			</linearGradient>
			<path style="fill:url(#SVGID_00000066506671158782913530000009881581143807487906_);" d="M740.213,1698.336l-23.052,175.795
				c0,0,60.147,27.63,102.264-1.186l-9.068-102.748L740.213,1698.336z"/>
			
				<linearGradient id="SVGID_00000083785097629268888770000001074720742522673317_" gradientUnits="userSpaceOnUse" x1="533.643" y1="2292.9795" x2="749.8149" y2="1786.3259">
				<stop  offset="0" style="stop-color:#4F52FF"/>
				<stop  offset="1" style="stop-color:#4042E2"/>
			</linearGradient>
			<path style="fill:url(#SVGID_00000083785097629268888770000001074720742522673317_);" d="M588.56,1883.939
				c0,0-335.538,363.974,59.715,503.308v-28.436c0,0-147.866-125.116-34.123-295.728C614.152,2063.083,599.935,1901,588.56,1883.939
				z"/>
			
				<linearGradient id="SVGID_00000124157689375541347070000012608072581259456163_" gradientUnits="userSpaceOnUse" x1="1414.9973" y1="2329.146" x2="1233.0106" y2="2484.5928" gradientTransform="matrix(1 0 0 1 -672.9479 0)">
				<stop  offset="0" style="stop-color:#A22B25"/>
				<stop  offset="1" style="stop-color:#C0423C"/>
			</linearGradient>
			<path style="fill:url(#SVGID_00000124157689375541347070000012608072581259456163_);" d="M651.119,2361.655
				c0,0,51.183-34.123,73.932-22.749c22.749,11.374,22.749,28.436,22.749,28.436s-11.375,22.748-28.436,17.06
				c-17.061-5.686-56.87,5.688-73.932,0C645.432,2384.402,639.744,2361.655,651.119,2361.655z"/>
			<g>
				<path style="fill:#91B3FA;" d="M1204.41,1728.879l-72.202,24.325c-8.742,2.625-14.767,11.456-15.464,22.672l3.749,120.489
					c-1.173,18.853,14.387,35.469,29.083,31.057l57.885-19.723c5.633-1.692,9.377-7.607,9.438-14.919l1.275-150.018
					C1218.248,1734.094,1211.089,1726.873,1204.41,1728.879z"/>
			</g>
			
				<linearGradient id="SVGID_00000169518144742481799830000007173799646339868043_" gradientUnits="userSpaceOnUse" x1="931.1646" y1="1771.4258" x2="938.6823" y2="1893.5881" gradientTransform="matrix(-1 0 0 1 2145.604 0)">
				<stop  offset="0" style="stop-color:#A22B25"/>
				<stop  offset="1" style="stop-color:#C0423C"/>
			</linearGradient>
			<path style="fill:url(#SVGID_00000169518144742481799830000007173799646339868043_);" d="M1218.175,1883.939
				c0,0,22.598-72.398,11.11-84.595c-11.488-12.197-34.376-45.834-35.904-18.334
				C1191.854,1808.511,1178.037,1927.283,1218.175,1883.939z"/>
			<g>
				
					<linearGradient id="SVGID_00000018921472898412852540000015254014887563812030_" gradientUnits="userSpaceOnUse" x1="872.0519" y1="1657.7448" x2="497.146" y2="2108.6448">
					<stop  offset="0" style="stop-color:#A22B25"/>
					<stop  offset="1" style="stop-color:#C0423C"/>
				</linearGradient>
				<path style="fill:url(#SVGID_00000018921472898412852540000015254014887563812030_);" d="M886.511,1651.04
					c0.358,2.22-26.933,148.386-26.933,148.386l-83.127-17.357l5.284-142.378C781.735,1639.691,880.511,1613.871,886.511,1651.04z"
					/>
				
					<linearGradient id="SVGID_00000062172181127195952110000016823821982678206856_" gradientUnits="userSpaceOnUse" x1="-2651.3635" y1="-2293.1692" x2="-2447.5969" y2="-2293.1692" gradientTransform="matrix(0.9872 -0.1593 0.1593 0.9872 3716.3701 3573.0576)">
					<stop  offset="0" style="stop-color:#09005D"/>
					<stop  offset="1" style="stop-color:#1A0F91"/>
				</linearGradient>
				<path style="fill:url(#SVGID_00000062172181127195952110000016823821982678206856_);" d="M806.598,1662.867
					c-3.233,1.966-5.369,5.293-5.804,9.052l-8.526,73.652c-0.129,1.118-0.114,2.229,0.071,3.339
					c1.022,6.117,5.844,25.332,25.566,19.388c16.81-5.067,32.328-9.491,43.747-7.457c6.668,1.187,11.01,7.673,9.742,14.325
					c-2.612,13.704-8.441,41.251-17.056,64.997c-2.159,5.952-8.578,9.188-14.679,7.495c-16.099-4.467-47.276-14.131-71.089-27.716
					c-3.912-2.231-6.266-6.416-6.153-10.917c0.496-19.812,1.661-75.348-0.422-91.076c-1.935-14.611-19.604-23.251-28.009-26.567
					c-3.19-1.259-5.695-3.76-6.945-6.954c-3.75-9.578-7.881-29.427,16.91-38.589c6.164-2.277,9.268-9.238,7.117-15.448
					c-3.853-11.126-4.909-27.262,15.143-36.654c20.3-9.508,35.964,0.283,44.957,9.129c3.978,3.915,10.209,5.04,15.04,2.245
					c2.148-1.244,4.823-1.655,8.012-0.093c6.014,2.945,13.087,0.814,16.073-5.18c5.118-10.278,15.361-20.867,35.652-17.741
					c37.216,5.735,42.107,46.787,32.72,71.048c-9.387,24.262-49.382,15.75-69.572,3.935
					C834.258,1648.401,815.506,1657.452,806.598,1662.867z"/>
				
					<linearGradient id="SVGID_00000183952189059080265210000016054291291345785227_" gradientUnits="userSpaceOnUse" x1="-2767.0769" y1="-2171.2764" x2="-2633.1074" y2="-2308.7256" gradientTransform="matrix(0.9872 -0.1593 0.1593 0.9872 3716.3701 3573.0576)">
					<stop  offset="0" style="stop-color:#A22B25"/>
					<stop  offset="1" style="stop-color:#C0423C"/>
				</linearGradient>
				<path style="fill:url(#SVGID_00000183952189059080265210000016054291291345785227_);" d="M763.121,1742.693
					c0,0,10.534-40.478-5.314-50.678c-15.849-10.201-38.972-4.381-33.344,26.482
					C731.464,1756.886,763.121,1742.693,763.121,1742.693z"/>
			</g>
			<path style="fill:#FFFFFF;" d="M909.34,1647.606c-0.195,0-0.393-0.041-0.577-0.129c-0.683-0.318-0.98-1.131-0.66-1.814
				c11.802-25.273-16.133-45.777-16.417-45.982c-0.61-0.44-0.752-1.293-0.31-1.905c0.442-0.615,1.293-0.752,1.906-0.312
				c0.3,0.216,30.06,22.019,17.294,49.353C910.346,1647.314,909.854,1647.606,909.34,1647.606z"/>
		</g>
		<g>
			<g>
				<g>
					<path style="fill:#91B3FA;" d="M2026.258,692.117c5.253,132.416-98.314,242.893-232.538,246.794
						c-135.583,3.94-250.845-102.158-256.195-237.013c-5.35-134.855,101.317-245.394,236.998-246.883
						C1908.844,453.541,2021.005,559.701,2026.258,692.117z"/>
					<path style="opacity:0.41;fill:#FFFFFF;" d="M1996.798,692.707c4.614,116.305-86.415,213.238-204.255,216.531
						c-118.887,3.323-219.842-89.768-224.53-207.95s88.727-215.163,207.688-216.6
						C1893.615,483.263,1992.184,576.402,1996.798,692.707z"/>
				</g>
			</g>
			<g>
				<path style="fill:#FFFFFF;" d="M1851.559,607.651c0,38.039-30.837,79.105-68.876,79.105s-68.876-41.066-68.876-79.105
					s30.837-65.026,68.876-65.026S1851.559,569.612,1851.559,607.651z"/>
				<path style="fill:#FFFFFF;" d="M1697.207,833.211h168.138c17.699,0,33.369-11.439,38.763-28.297l9.048-28.278
					c6.624-20.705-4.146-43.122-24.563-50.587c-68.426-25.019-139.181-21.809-211.662,2.309
					c-20.305,6.756-31.573,28.475-25.97,49.129l6.967,25.682C1662.738,820.901,1678.833,833.211,1697.207,833.211z"/>
			</g>
		</g>
		<g>
			<g>
				<g>
					<path style="fill:#91B3FA;" d="M1345.675,751.201c5.253,132.416-98.314,242.893-232.538,246.793
						c-135.584,3.94-250.845-102.158-256.195-237.013c-5.35-134.855,101.317-245.394,236.998-246.883
						C1228.261,512.625,1340.422,618.785,1345.675,751.201z"/>
					<path style="opacity:0.4;fill:#FFFFFF;" d="M1316.215,751.791c4.614,116.305-86.415,213.238-204.255,216.531
						c-118.887,3.323-219.842-89.768-224.53-207.95c-4.688-118.182,88.727-215.163,207.688-216.6
						C1213.032,542.347,1311.601,635.485,1316.215,751.791z"/>
				</g>
			</g>
			<path style="fill:#FFFFFF;" d="M1209.65,673.655c-28.555-28.067-73.091-19.624-103.752,6.117
				c-4.394,3.69-10.764,3.732-15.22,0.119c-31.071-25.198-75.558-32.87-103.623-4.319c-30.469,31.001-30.041,80.829,0.959,111.299
				l103.723,101.953c4.712,4.631,12.288,4.565,16.92-0.146l101.952-103.724C1241.078,753.955,1240.65,704.125,1209.65,673.655z"/>
		</g>
		<g>
			<g>
				<g>
					<g>
						<path style="fill:#91B3FA;" d="M1041.673,1247.688c5.253,132.416-98.314,242.893-232.538,246.793
							c-135.583,3.94-250.845-102.158-256.195-237.013s101.317-245.394,236.998-246.883
							C924.258,1009.112,1036.42,1115.273,1041.673,1247.688z"/>
						<path style="opacity:0.39;fill:#FFFFFF;" d="M1012.213,1248.278c4.614,116.305-86.415,213.238-204.255,216.531
							c-118.887,3.323-219.842-89.768-224.53-207.95c-4.688-118.182,88.727-215.163,207.688-216.6
							C909.029,1038.835,1007.599,1131.973,1012.213,1248.278z"/>
					</g>
				</g>
			</g>
			<g>
				<path style="fill:#FFFFFF;" d="M714.324,1397.142l11.173-83.778l-34.877-0.424v-43.216l41.741,0.662l6.857-52.284l-36.519-0.744
					v-43.641l42.513,1.025l10.686-81.022l37.884,1.178l-10.616,80.759l38.552,0.929l10.968-80.479l37.386,1.163l-10.897,80.219
					l33.463,0.807v42.931l-39.339-0.801l-6.723,51.773l34.789,0.552v42.511l-41.098-0.5l-10.532,82.955l-38.074-0.189l10.602-83.228
					l-38.682-0.471l-10.673,83.506L714.324,1397.142z M809.036,1271.602l6.767-51.941l-38.591-0.786l-6.812,52.114L809.036,1271.602
					z"/>
			</g>
		</g>
	</g>
</g>
</svg>
