<?xml version="1.0" encoding="utf-8"?>
<!-- Generator: Adobe Illustrator 27.5.0, SVG Export Plug-In . SVG Version: 6.00 Build 0)  -->
<svg version="1.1" xmlns="http://www.w3.org/2000/svg" xmlns:xlink="http://www.w3.org/1999/xlink" x="0px" y="0px"
	 viewBox="0 0 500 500" style="enable-background:new 0 0 500 500;" xml:space="preserve">
<g id="Background_Simple">
	<g>
		<path style="fill:#92E3A9;" d="M437.64,398.435c-1.665,2.64-3.392,5.228-5.191,7.755c-23.965,33.63-62.986,56.065-100.593,65.706
			c-16.475,4.231-33.329,6.23-50.107,6.415c-110.046,1.169-148.05-91.41-182.857-115.931
			c-34.807-24.522-88.114-66.246-79.087-150.744c6.853-64.246,44.729-124.86,111.706-151.148c7.377-2.905,15.115-5.392,23.2-7.411
			c15.04-3.759,31.293-5.942,48.751-6.27c50.145-0.948,90.496,12.302,129.476,44.035c9.061,7.377,18.049,15.665,30.026,16.859
			c8.706,0.868,17.058-2.08,8.162-10.829c-10.455-10.283,2.422-29.637,29.267-15.258c44.837,24.015,62.243,73.76,69.742,124.077
			C479.342,267.453,472.112,343.775,437.64,398.435z"/>
		<path style="opacity:0.7;fill:#FFFFFF;" d="M437.64,398.435c-1.665,2.64-3.392,5.228-5.191,7.755
			c-23.965,33.63-62.986,56.065-100.593,65.706c-16.475,4.231-33.329,6.23-50.107,6.415
			c-110.046,1.169-148.05-91.41-182.857-115.931c-34.807-24.522-88.114-66.246-79.087-150.744
			c6.853-64.246,44.729-124.86,111.706-151.148c7.377-2.905,15.115-5.392,23.2-7.411c15.04-3.759,31.293-5.942,48.751-6.27
			c50.145-0.948,90.496,12.302,129.476,44.035c9.061,7.377,18.049,15.665,30.026,16.859c8.706,0.868,17.058-2.08,8.162-10.829
			c-10.455-10.283,2.422-29.637,29.267-15.258c44.837,24.015,62.243,73.76,69.742,124.077
			C479.342,267.453,472.112,343.775,437.64,398.435z"/>
	</g>
</g>
<g id="Graphics">
	<g>
		<g>
			<g>
				<line style="fill:none;stroke:#263238;stroke-miterlimit:10;" x1="49.971" y1="405.075" x2="61.728" y2="416.832"/>
				<line style="fill:none;stroke:#263238;stroke-miterlimit:10;" x1="61.728" y1="405.075" x2="49.971" y2="416.832"/>
			</g>
			<g>
				<line style="fill:none;stroke:#263238;stroke-miterlimit:10;" x1="281.719" y1="251.491" x2="293.476" y2="263.248"/>
				<line style="fill:none;stroke:#263238;stroke-miterlimit:10;" x1="293.476" y1="251.491" x2="281.719" y2="263.248"/>
			</g>
			
				<rect x="95.489" y="423.584" transform="matrix(0.7071 -0.7071 0.7071 0.7071 -273.5294 196.3618)" style="fill:none;stroke:#263238;stroke-miterlimit:10;" width="9.553" height="9.553"/>
			
				<rect x="92.644" y="86.932" transform="matrix(0.7071 -0.7071 0.7071 0.7071 -36.3139 95.7476)" style="fill:none;stroke:#263238;stroke-miterlimit:10;" width="9.553" height="9.553"/>
			
				<rect x="421.956" y="53.563" transform="matrix(0.7071 -0.7071 0.7071 0.7071 83.7354 318.8327)" style="fill:none;stroke:#263238;stroke-miterlimit:10;" width="9.553" height="9.553"/>
		</g>
		<g>
			<g>
				<line style="fill:none;stroke:#263238;stroke-miterlimit:10;" x1="397.593" y1="427.117" x2="409.35" y2="438.875"/>
				<line style="fill:none;stroke:#263238;stroke-miterlimit:10;" x1="409.35" y1="427.117" x2="397.593" y2="438.875"/>
			</g>
			<g>
				<line style="fill:none;stroke:#263238;stroke-miterlimit:10;" x1="237.152" y1="34.929" x2="248.909" y2="46.686"/>
				<line style="fill:none;stroke:#263238;stroke-miterlimit:10;" x1="248.909" y1="34.929" x2="237.152" y2="46.686"/>
			</g>
			<g>
				<line style="fill:none;stroke:#263238;stroke-miterlimit:10;" x1="446.96" y1="220.053" x2="458.717" y2="231.81"/>
				<line style="fill:none;stroke:#263238;stroke-miterlimit:10;" x1="458.717" y1="220.053" x2="446.96" y2="231.81"/>
			</g>
			<g>
				<line style="fill:none;stroke:#263238;stroke-miterlimit:10;" x1="110.308" y1="172.743" x2="122.065" y2="184.5"/>
				<line style="fill:none;stroke:#263238;stroke-miterlimit:10;" x1="122.065" y1="172.743" x2="110.308" y2="184.5"/>
			</g>
			
				<rect x="428.61" y="362.663" transform="matrix(0.7071 -0.7071 0.7071 0.7071 -132.883 414.0714)" style="fill:none;stroke:#263238;stroke-miterlimit:10;" width="9.553" height="9.553"/>
			
				<rect x="48.763" y="285.871" transform="matrix(0.7071 -0.7071 0.7071 0.7071 -189.8374 122.9866)" style="fill:none;stroke:#263238;stroke-miterlimit:10;" width="9.553" height="9.553"/>
			
				<rect x="323.707" y="195.264" transform="matrix(0.7071 -0.7071 0.7071 0.7071 -45.2396 290.8629)" style="fill:none;stroke:#263238;stroke-miterlimit:10;" width="9.553" height="9.553"/>
		</g>
	</g>
</g>
<g id="Gears">
	<g>
		<path style="fill:#FFFFFF;stroke:#263238;stroke-linecap:round;stroke-linejoin:round;stroke-miterlimit:10;" d="M119.239,247.91
			l-3.784,4.765l4.346,4.184c-1.158,2.238-1.829,4.64-2.022,7.064l-5.897,1.255l0.694,6.044l6.028-0.114
			c0.737,2.317,1.936,4.504,3.57,6.422l-3.285,5.06l4.765,3.784l4.184-4.346c2.238,1.157,4.64,1.829,7.063,2.022l1.255,5.897
			l6.045-0.694l-0.115-6.028c2.317-0.737,4.504-1.936,6.422-3.57l5.06,3.285l3.783-4.765l-4.346-4.184
			c1.157-2.238,1.829-4.64,2.022-7.064l5.897-1.255l-0.694-6.045l-6.028,0.114c-0.738-2.317-1.936-4.504-3.57-6.422l3.285-5.06
			l-4.765-3.783l-4.184,4.346c-2.238-1.158-4.64-1.829-7.064-2.022l-1.255-5.897l-6.045,0.694l0.114,6.028
			c-2.317,0.738-4.504,1.936-6.422,3.57L119.239,247.91z M142.986,257.134c4.579,3.636,5.343,10.294,1.707,14.873
			c-3.635,4.578-10.294,5.343-14.873,1.707c-4.578-3.635-5.343-10.294-1.707-14.873
			C131.749,254.263,138.408,253.499,142.986,257.134z"/>
		<path style="fill:#FFFFFF;stroke:#263238;stroke-linecap:round;stroke-linejoin:round;stroke-miterlimit:10;" d="M89.423,212.577
			l-3.784,4.765l4.346,4.184c-1.157,2.238-1.829,4.64-2.022,7.064l-5.897,1.255l0.694,6.045l6.028-0.114
			c0.738,2.317,1.936,4.504,3.57,6.422l-3.285,5.06l4.765,3.783l4.184-4.346c2.238,1.157,4.64,1.829,7.063,2.022l1.255,5.897
			l6.045-0.694l-0.114-6.028c2.317-0.737,4.504-1.936,6.422-3.57l5.06,3.285l3.784-4.765l-4.346-4.184
			c1.158-2.238,1.829-4.64,2.022-7.064l5.897-1.255l-0.694-6.045l-6.028,0.115c-0.738-2.317-1.936-4.504-3.57-6.422l3.285-5.06
			l-4.765-3.784l-4.184,4.346c-2.238-1.158-4.64-1.829-7.063-2.022l-1.255-5.897l-6.045,0.694l0.114,6.028
			c-2.317,0.737-4.504,1.935-6.422,3.57L89.423,212.577z M113.171,221.801c4.578,3.636,5.343,10.294,1.707,14.873
			c-3.635,4.579-10.294,5.343-14.873,1.708c-4.578-3.635-5.343-10.294-1.707-14.873C101.933,218.93,108.592,218.166,113.171,221.801
			z"/>
	</g>
	<g>
		<path style="fill:#FFFFFF;stroke:#263238;stroke-linecap:round;stroke-linejoin:round;stroke-miterlimit:10;" d="M418.528,305.788
			l-2.814-3.331l-3.553,2.463c-1.409-1.129-3.002-1.94-4.677-2.418l-0.049-4.32l-4.345-0.366l-0.771,4.251
			c-1.732,0.191-3.438,0.724-5.015,1.602l-3.091-3.022l-3.331,2.814l2.463,3.553c-1.129,1.409-1.94,3.002-2.418,4.677l-4.32,0.049
			l-0.366,4.345l4.251,0.77c0.191,1.732,0.724,3.438,1.602,5.016l-3.022,3.091l2.814,3.331l3.553-2.463
			c1.409,1.129,3.002,1.94,4.677,2.417l0.049,4.32l4.345,0.366l0.771-4.251c1.732-0.191,3.438-0.724,5.015-1.602l3.091,3.022
			l3.331-2.814l-2.463-3.553c1.129-1.409,1.94-3.001,2.418-4.677l4.32-0.049l0.366-4.345l-4.251-0.771
			c-0.191-1.732-0.724-3.438-1.602-5.016L418.528,305.788z M408.696,321.17c-3.201,2.704-7.987,2.301-10.69-0.9
			c-2.704-3.201-2.301-7.987,0.9-10.69c3.201-2.704,7.987-2.301,10.69,0.9C412.299,313.681,411.896,318.467,408.696,321.17z"/>
		<path style="fill:#FFFFFF;stroke:#263238;stroke-linecap:round;stroke-linejoin:round;stroke-miterlimit:10;" d="M447.561,289.827
			l-2.814-3.331l-3.553,2.463c-1.409-1.129-3.001-1.94-4.677-2.418l-0.049-4.32l-4.345-0.366l-0.77,4.251
			c-1.732,0.191-3.438,0.724-5.016,1.602l-3.091-3.022l-3.331,2.814l2.463,3.553c-1.129,1.409-1.94,3.002-2.418,4.677l-4.32,0.049
			l-0.366,4.345l4.251,0.771c0.191,1.732,0.724,3.438,1.602,5.016l-3.022,3.091l2.814,3.331l3.553-2.463
			c1.409,1.129,3.001,1.94,4.677,2.418l0.049,4.32l4.345,0.366l0.77-4.251c1.732-0.191,3.438-0.724,5.016-1.602l3.091,3.022
			l3.331-2.814l-2.463-3.553c1.129-1.409,1.94-3.002,2.418-4.677l4.32-0.049l0.366-4.345l-4.251-0.77
			c-0.191-1.732-0.724-3.438-1.602-5.016L447.561,289.827z M437.728,305.21c-3.2,2.704-7.987,2.301-10.69-0.9
			s-2.301-7.987,0.9-10.69c3.201-2.704,7.987-2.301,10.69,0.9C441.332,297.72,440.929,302.506,437.728,305.21z"/>
	</g>
</g>
<g id="Key">
	<g>
		<polygon style="fill:#92E3A9;stroke:#263238;stroke-linecap:round;stroke-linejoin:round;stroke-miterlimit:10;" points="
			331.545,156.638 334.103,158.735 337.006,155.194 334.449,153.097 335.9,151.327 338.458,153.423 340.274,151.208 
			337.716,149.111 353.767,129.535 350.422,126.793 326.571,155.884 329.915,158.626 		"/>
		<path style="fill:#92E3A9;stroke:#263238;stroke-linecap:round;stroke-linejoin:round;stroke-miterlimit:10;" d="M367.792,127.836
			c3.934-4.798,3.233-11.877-1.565-15.811c-4.798-3.934-11.877-3.233-15.811,1.565c-3.934,4.798-3.233,11.877,1.565,15.811
			C356.78,133.335,363.859,132.634,367.792,127.836z M355.478,117.739c1.642-2.003,4.597-2.296,6.6-0.653
			c2.003,1.642,2.296,4.597,0.653,6.601c-1.642,2.003-4.597,2.296-6.6,0.653C354.128,122.698,353.835,119.742,355.478,117.739z"/>
	</g>
</g>
<g id="Magnifying_Glass">
	<g>
		<path style="fill:#263238;stroke:#263238;stroke-miterlimit:10;" d="M380.677,218.278c0,0-26.246,25.15-26.622,28.625
			c-0.376,3.475,5.821,6.522,8.897,6.34c3.075-0.181,22.931-29.589,22.931-29.589S382.753,220.585,380.677,218.278z"/>
		<path style="opacity:0.58;fill:#FFFFFF;stroke:#263238;stroke-miterlimit:10;" d="M412.74,221.555
			c-10.608,7.098-24.353,5.162-30.701-4.325c-6.348-9.487-2.896-22.932,7.712-30.03c10.607-7.098,24.353-5.162,30.701,4.325
			C426.8,201.011,423.347,214.456,412.74,221.555z"/>
		<g>
			<path style="fill:#263238;stroke:#263238;stroke-miterlimit:10;" d="M379.634,218.839c-7.143-10.674-3.258-25.802,8.677-33.789
				c10.831-7.248,24.548-6.099,32.336,2.148c-7.275-10.275-22.449-12.294-34.211-4.424c-11.935,7.987-15.82,23.115-8.677,33.789
				c0.661,0.988,1.414,1.877,2.208,2.718C379.861,219.13,379.738,218.994,379.634,218.839z"/>
			<g>
				<path style="fill:#263238;stroke:#263238;stroke-miterlimit:10;" d="M420.451,191.525c-3.482-5.204-9.194-8.119-15.389-8.534
					c5.238,0.783,9.968,3.493,12.967,7.975c6.065,9.063,2.767,21.908-7.367,28.689s-23.265,4.932-29.33-4.132
					c-0.549-0.821-0.995-1.681-1.393-2.557c0.514,1.48,1.197,2.915,2.1,4.264c6.348,9.487,20.094,11.423,30.701,4.325
					C423.347,214.456,426.8,201.011,420.451,191.525z"/>
			</g>
			<path style="fill:#FFFFFF;stroke:#263238;stroke-miterlimit:10;" d="M422.856,189.916c-7.143-10.674-22.609-12.853-34.544-4.866
				c-11.935,7.987-15.82,23.115-8.677,33.789c7.143,10.674,22.609,12.853,34.544,4.866
				C426.114,215.718,429.999,200.59,422.856,189.916z M412.74,221.555c-10.608,7.098-24.353,5.162-30.701-4.325
				c-6.348-9.487-2.896-22.932,7.712-30.03c10.607-7.098,24.353-5.162,30.701,4.325C426.8,201.011,423.347,214.456,412.74,221.555z"
				/>
		</g>
	</g>
</g>
<g id="Box">
	<g>
		<polygon style="fill:#92E3A9;stroke:#263238;stroke-linecap:round;stroke-linejoin:round;stroke-miterlimit:10;" points="
			356.166,308.713 379.222,334.14 180.998,330.943 195.705,305.366 		"/>
		<polygon style="fill:#92E3A9;stroke:#263238;stroke-linecap:round;stroke-linejoin:round;stroke-miterlimit:10;" points="
			127.835,314.401 224.683,302.802 356.166,308.713 290.215,319.22 		"/>
		<polygon style="fill:#92E3A9;stroke:#263238;stroke-linecap:round;stroke-linejoin:round;stroke-miterlimit:10;" points="
			127.835,314.401 74.146,274.339 177.812,266.144 224.683,302.802 		"/>
		<polygon style="fill:#92E3A9;stroke:#263238;stroke-linecap:round;stroke-linejoin:round;stroke-miterlimit:10;" points="
			290.215,476.646 125.163,465.204 127.835,314.401 290.215,319.22 		"/>
		<polygon style="fill:#92E3A9;stroke:#263238;stroke-linecap:round;stroke-linejoin:round;stroke-miterlimit:10;" points="
			290.215,319.22 356.166,308.713 356.804,458.539 290.215,476.646 		"/>
		<polygon style="fill:#92E3A9;stroke:#263238;stroke-linecap:round;stroke-linejoin:round;stroke-miterlimit:10;" points="
			290.215,319.22 347.724,283.871 420.791,273.927 356.166,308.713 		"/>
		<polygon style="fill:#92E3A9;stroke:#263238;stroke-linecap:round;stroke-linejoin:round;stroke-miterlimit:10;" points="
			127.835,314.401 72.933,353.323 250.056,362.275 290.215,319.22 		"/>
	</g>
</g>
<g id="Rocket">
	<g>
		<g>
			<g>
				<path style="fill:#92E3A9;" d="M141.655,157.908c-1.785-3.923-5.808-5.932-8.986-4.486c-3.178,1.446-4.308,5.798-2.523,9.722
					c1.294,2.845,3.765,4.674,6.238,4.919l10.247,15.691l-5.355-17.928C142.705,163.802,142.945,160.746,141.655,157.908z"/>
				<path style="fill:#FFFFFF;" d="M136.568,157.863c1.255,2.758,1.608,5.296,0.789,5.669c-0.819,0.373-2.5-1.562-3.755-4.32
					c-1.255-2.758-1.608-5.296-0.789-5.669C133.632,153.17,135.313,155.104,136.568,157.863z"/>
				<path style="fill:#92E3A9;" d="M194.168,134.02c-1.785-3.923-5.808-5.932-8.986-4.486c-3.178,1.446-4.308,5.798-2.523,9.722
					c1.294,2.845,3.765,4.674,6.238,4.919l10.247,15.691l-5.355-17.928C195.219,139.913,195.459,136.857,194.168,134.02z"/>
				<path style="fill:#FFFFFF;" d="M189.164,133.936c1.255,2.758,1.608,5.296,0.789,5.669c-0.819,0.372-2.5-1.562-3.755-4.32
					c-1.255-2.758-1.608-5.296-0.789-5.669C186.229,129.244,187.91,131.178,189.164,133.936z"/>
				<path style="fill:#92E3A9;" d="M173.98,146.427c-3.179-6.988-10.344-10.565-16.005-7.989
					c-5.661,2.575-7.673,10.327-4.494,17.315c2.305,5.067,6.706,8.325,11.11,8.76l18.25,27.948l-9.537-31.93
					C175.851,156.924,176.279,151.481,173.98,146.427z"/>
				<path style="fill:#FFFFFF;" d="M165.371,145.684c2.021,4.443,2.139,8.737,0.263,9.591c-1.876,0.854-5.036-2.057-7.057-6.5
					c-2.021-4.443-2.139-8.737-0.263-9.591C160.19,138.33,163.35,141.241,165.371,145.684z"/>
				<g>
					<polygon style="fill:#FFFFFF;stroke:#263238;stroke-miterlimit:10;" points="155.768,114.951 176.691,112.31 182.664,125.439 
						162.351,134.679 					"/>
					<polygon style="fill:#263238;stroke:#263238;stroke-miterlimit:10;" points="163.973,113.915 155.768,114.951 162.351,134.679 
						168.37,131.941 					"/>
					<g>
						<path style="fill:#FFFFFF;stroke:#263238;stroke-miterlimit:10;" d="M167.52,101.081c-0.243-1.646-0.996-6.839,0.995-8.073
							c2.239-0.69,5.658,3.289,6.74,4.555c3.518,4.118,6.172,8.921,7.82,14.081c0.146,0.456,0.284,0.914,0.414,1.374
							c0.003,0.011,4.532,15.966,4.532,15.966l-2.602,1.184l-2.602,1.184c0,0-9.051-13.897-9.058-13.907
							c-0.261-0.401-0.516-0.806-0.764-1.215C170.189,111.595,168.312,106.439,167.52,101.081z"/>
						<path style="fill:#92E3A9;stroke:#263238;stroke-miterlimit:10;" d="M167.737,102.331c-0.075-0.416-0.155-0.831-0.217-1.25
							c-0.243-1.646-0.996-6.839,0.995-8.073c2.239-0.69,5.658,3.289,6.74,4.555c0.275,0.322,0.535,0.655,0.8,0.985L167.737,102.331
							z"/>
						<path style="fill:#92E3A9;stroke:#263238;stroke-miterlimit:10;" d="M186.818,124.745c0.685,2.414,1.203,4.239,1.203,4.239
							l-5.203,2.367c0,0-1.035-1.59-2.404-3.692L186.818,124.745z"/>
					</g>
					<polygon style="fill:#FFFFFF;stroke:#263238;stroke-miterlimit:10;" points="141.153,121.6 125.414,135.636 131.386,148.765 
						151.699,139.525 					"/>
					<polygon style="fill:#263238;stroke:#263238;stroke-miterlimit:10;" points="145.835,142.192 151.699,139.525 141.153,121.6 
						134.971,127.113 					"/>
					<g>
						<path style="fill:#FFFFFF;stroke:#263238;stroke-miterlimit:10;" d="M152.894,90.557c0.404,1.261,0.79,2.536,1.149,3.818
							c0.004,0.01,1.114,3.921,2.673,9.414c3.697,13.019,9.913,34.923,9.913,34.923l-14.453,6.575c0,0-12.035-18.476-19.456-29.872
							c-3.307-5.074-5.691-8.741-5.7-8.748c-0.725-1.115-1.432-2.244-2.118-3.377c-6.456-10.654-11.14-22.307-13.809-34.449
							c-0.553-2.521-1.022-5.062-1.399-7.621c-0.677-4.573-2.767-18.993,2.764-22.419c6.217-1.918,15.713,9.133,18.716,12.647
							c1.794,2.097,3.506,4.261,5.133,6.481C143.557,67.811,149.156,78.855,152.894,90.557z"/>
						<path style="fill:#92E3A9;stroke:#263238;stroke-miterlimit:10;" d="M125.901,45.721c-4.109-4.034-9.451-8.15-13.444-6.92
							c-3.551,2.201-3.959,8.933-3.618,14.681L125.901,45.721z"/>
						<path style="fill:#92E3A9;stroke:#263238;stroke-miterlimit:10;" d="M148.571,139.752c2.176,3.341,3.606,5.537,3.606,5.537
							l14.451-6.574c0,0-0.715-2.521-1.804-6.357L148.571,139.752z"/>
					</g>
					<g>
						<path style="fill:#FFFFFF;stroke:#263238;stroke-miterlimit:10;" d="M122.975,121.344c-1.081-1.265-4.5-5.244-6.74-4.554
							c-1.991,1.234-1.239,6.427-0.995,8.073c0.792,5.358,2.669,10.514,5.476,15.147c0.248,0.409,0.503,0.814,0.764,1.215
							c0.006,0.01,9.058,13.907,9.058,13.907l2.602-1.184l2.602-1.184c0,0-4.528-15.955-4.532-15.966
							c-0.131-0.46-0.269-0.919-0.414-1.374C129.148,130.265,126.494,125.462,122.975,121.344z"/>
						<path style="fill:#92E3A9;stroke:#263238;stroke-miterlimit:10;" d="M123.775,122.329c-0.264-0.33-0.524-0.663-0.8-0.985
							c-1.081-1.265-4.5-5.244-6.74-4.554c-1.991,1.234-1.239,6.426-0.995,8.073c0.062,0.419,0.142,0.834,0.217,1.25
							L123.775,122.329z"/>
						<path style="fill:#92E3A9;stroke:#263238;stroke-miterlimit:10;" d="M128.134,151.441c1.369,2.102,2.404,3.692,2.404,3.692
							l5.203-2.367c0,0-0.518-1.825-1.203-4.239L128.134,151.441z"/>
					</g>
					<g>
						<path style="fill:#263238;stroke:#263238;stroke-miterlimit:10;" d="M135.551,65.249c-2.303-5.062-8.273-7.299-13.335-4.996
							c-5.062,2.303-7.299,8.273-4.996,13.335c2.303,5.062,8.273,7.299,13.335,4.996C135.617,76.282,137.853,70.311,135.551,65.249z
							"/>
						<path style="fill:#FFFFFF;stroke:#263238;stroke-miterlimit:10;" d="M132.354,66.704c-1.5-3.296-5.388-4.753-8.684-3.254
							c-3.296,1.5-4.753,5.388-3.254,8.684c1.5,3.296,5.387,4.753,8.684,3.253C132.397,73.888,133.853,70,132.354,66.704z"/>
					</g>
					<g>
						<path style="fill:#263238;stroke:#263238;stroke-miterlimit:10;" d="M146.819,90.021c-2.303-5.062-8.273-7.299-13.335-4.996
							c-5.062,2.303-7.299,8.273-4.996,13.335c2.303,5.062,8.273,7.299,13.335,4.996C146.885,101.053,149.122,95.083,146.819,90.021
							z"/>
						<path style="fill:#FFFFFF;stroke:#263238;stroke-miterlimit:10;" d="M143.622,91.475c-1.499-3.296-5.387-4.753-8.684-3.254
							c-3.296,1.499-4.753,5.387-3.253,8.684c1.5,3.296,5.387,4.753,8.684,3.254C143.665,98.66,145.122,94.772,143.622,91.475z"/>
					</g>
				</g>
			</g>
			<g>
				<line style="fill:none;stroke:#263238;stroke-miterlimit:10;" x1="140.173" y1="142.589" x2="147.196" y2="158.028"/>
				<line style="fill:none;stroke:#263238;stroke-miterlimit:10;" x1="148.757" y1="161.459" x2="150.318" y2="164.889"/>
			</g>
			<g>
				<line style="fill:none;stroke:#263238;stroke-miterlimit:10;" x1="170.833" y1="129.884" x2="184.723" y2="160.419"/>
				<line style="fill:none;stroke:#263238;stroke-miterlimit:10;" x1="186.127" y1="163.506" x2="187.688" y2="166.937"/>
			</g>
			<line style="fill:none;stroke:#263238;stroke-miterlimit:10;" x1="173.783" y1="126.055" x2="176.617" y2="132.283"/>
			<line style="fill:none;stroke:#263238;stroke-miterlimit:10;" x1="136.778" y1="144.311" x2="138.616" y2="148.351"/>
		</g>
		<path style="fill:none;stroke:#263238;stroke-linecap:round;stroke-linejoin:round;stroke-miterlimit:10;stroke-dasharray:3;" d="
			M180.968,196.396c0,0,17.772,47.848,13.673,119.155"/>
		<path style="fill:none;stroke:#263238;stroke-linecap:round;stroke-linejoin:round;stroke-miterlimit:10;stroke-dasharray:3;" d="
			M149.382,181.27c0,0,33.295,40.597,33.087,96.379"/>
		<path style="fill:none;stroke:#263238;stroke-linecap:round;stroke-linejoin:round;stroke-miterlimit:10;stroke-dasharray:3;" d="
			M202.423,168.517c0,0,4.731,35.967-0.017,68.852"/>
	</g>
</g>
<g id="Paper_Plain">
	<g>
		<g>
			<g>
				<path style="fill:none;stroke:#263238;stroke-linecap:round;stroke-linejoin:round;" d="M284.265,311.515
					c0,0-0.007-0.522,0.039-1.495"/>
				<path style="fill:none;stroke:#263238;stroke-linecap:round;stroke-linejoin:round;stroke-dasharray:2.9948,2.9948;" d="
					M284.528,307.037c1.259-12.65,8.515-49.449,50.194-75.879c51.08-32.392,82.849-44.85,76.62-75.374
					c-6.229-30.523-65.407-1.246-44.228,37.375c21.179,38.621,69.767,1.246,77.865-39.867c7.759-39.393-48.534-58.198-69.149-71.21"
					/>
				<path style="fill:none;stroke:#263238;stroke-linecap:round;stroke-linejoin:round;" d="M374.572,81.265
					c-0.429-0.288-0.839-0.572-1.229-0.855"/>
			</g>
		</g>
		<g>
			<polygon style="fill:#92E3A9;stroke:#263238;stroke-linecap:round;stroke-linejoin:round;stroke-miterlimit:10;" points="
				370.825,86.932 318.05,57.227 367.485,72.939 			"/>
			<polygon style="fill:#92E3A9;stroke:#263238;stroke-linecap:round;stroke-linejoin:round;stroke-miterlimit:10;" points="
				315.168,55.999 348.053,92.371 367.485,72.939 			"/>
			<polygon style="fill:#92E3A9;stroke:#263238;stroke-linecap:round;stroke-linejoin:round;stroke-miterlimit:10;" points="
				315.168,55.999 390.404,58.988 374.46,68.455 			"/>
			<polygon style="fill:#92E3A9;stroke:#263238;stroke-linecap:round;stroke-linejoin:round;stroke-miterlimit:10;" points="
				374.46,68.455 370.825,86.932 367.485,72.939 315.168,55.999 			"/>
		</g>
	</g>
</g>
<g id="Puzzles">
	<path style="fill:#263238;stroke:#263238;stroke-linecap:round;stroke-linejoin:round;stroke-miterlimit:10;" d="M448.552,104.034
		c-0.223,3.766-0.665,4.873-2.659,5.537c-1.99,0.661-5.534-2.217-7.528-0.665c-1.991,1.549-1.549,5.534-0.884,6.863
		c0.279,0.557,0.828,4.403,1.338,8.882c-1.063,0-2.174-0.008-3.332-0.028c-13.062-0.219-10.848-1.768-12.839,1.111
		c-1.995,2.878,2.655,7.524-0.223,9.96c-2.878,2.436-8.412,0.888-8.858-1.771c-0.442-2.655,2.217-4.427,1.994-7.305
		c-0.223-2.878-6.198-2.655-11.736-1.994c-1.863,0.223-4.28,0.147-6.879-0.032c0.462-4.104,0.936-7.842,1.123-9.264
		c0.442-3.324,0.888-6.202-0.665-7.528c-1.549-1.33-7.082,2.432-9.077,1.549c-1.99-0.888-2.436-7.751,0.442-10.183
		c2.878-2.436,5.979,0.884,7.309,0.661c1.326-0.219,1.991,0,2.213-3.32c0.171-2.588-0.868-9.483-1.33-12.397h41.529
		c-0.514,3.284-1.453,9.857-1.453,13.726c0,5.314,3.543,5.092,5.757,3.543C445.009,99.826,448.771,100.272,448.552,104.034z"/>
	<path style="fill:#92E3A9;stroke:#263238;stroke-linecap:round;stroke-linejoin:round;stroke-miterlimit:10;" d="M211.962,71.902
		l-43.139,11.852c-0.919-2.04-3.138-6.958-4.124-9.09c-1.261-2.718-2.414-8.788,0.826-8.148c3.242,0.644,9.724-0.88,8.631-6.713
		c-1.093-5.833-5.326-5.438-8.54-2.253c-3.215,3.181-6.029,0.379-7.097-4.441c-0.658-2.98-1.929-8.526-3.645-14.087
		c8.668-1.26,18.105-2.516,18.892-3.899c1.379-2.423-3.903-5.829-3.433-8.765c0.469-2.941,6.19-6.3,8.874-3.973
		c2.684,2.327,1.093,5.833,1.571,8.51c0.483,2.679,1.327,2.957,4.308,2.653c1.734-0.178,9.558-3.072,16.042-5.676
		c3.188,11.736,5.624,17.793,2.413,17.982c-3.52,0.2-9.097-0.57-9.888,3.994c-0.792,4.559,1.614,7.73,5.308,7.23
		c3.693-0.505,5.977-5.221,8.53-3.368C208.892,54.725,210.421,63.485,211.962,71.902z"/>
</g>
<g id="Stars">
	<polygon style="fill:#92E3A9;stroke:#263238;stroke-linecap:round;stroke-linejoin:round;stroke-miterlimit:10;" points="
		75.167,168.944 65.352,177.133 66.533,189.861 55.711,183.057 43.971,188.113 47.099,175.719 38.661,166.116 51.416,165.26 
		57.942,154.268 62.697,166.134 	"/>
	<polygon style="fill:#92E3A9;stroke:#263238;stroke-linecap:round;stroke-linejoin:round;stroke-miterlimit:10;" points="
		86.651,128.177 84.533,135.788 89.601,141.848 81.708,142.185 77.511,148.878 74.751,141.475 67.089,139.552 73.276,134.64 
		72.738,126.758 79.321,131.125 	"/>
	<polygon style="fill:#92E3A9;stroke:#263238;stroke-linecap:round;stroke-linejoin:round;stroke-miterlimit:10;" points="
		341.481,253.461 339.362,261.072 344.431,267.132 336.538,267.469 332.341,274.163 329.581,266.76 321.918,264.836 
		328.106,259.924 327.567,252.042 334.151,256.409 	"/>
</g>
<g id="Hand">
	<g>
		<path style="fill:#FFFFFF;stroke:#263238;stroke-linecap:round;stroke-linejoin:round;stroke-miterlimit:10;" d="M288.451,232.043
			c0,0,12.953-10.39,15.619-10.996c2.666-0.607,5.054-4.62,4.024-7.468c-1.03-2.848-4.08-17.322-4.969-22.15
			c-0.889-4.828-1.742-15.764-4.017-22.354c-2.275-6.589-2.421-12.334-3.428-14.284c-1.007-1.951-5.779-1.29-7.766,3.431
			c-1.987,4.721-1.873,9.21-0.642,12.412s4.217,15.163,4.846,17.302c0.629,2.14,2.293,14.852,2.293,14.852s0.57,7.351-2.337,13.533
			c-2.908,6.182-7.52,13.126-7.469,15.101C284.655,233.397,288.451,232.043,288.451,232.043z"/>
		<path style="fill:#FFFFFF;stroke:#263238;stroke-linecap:round;stroke-linejoin:round;stroke-miterlimit:10;" d="M293.785,189.943
			c0,0-6.128-13.404-7.277-18.766c-1.149-5.362-0.957-10.149-5.553-7.085c-4.596,3.064-5.362,14.362-3.447,20.489
			c1.915,6.128,5.936,10.723,6.511,12.447c0.574,1.723,3.064,7.66,3.064,9.191s2.298,0.957,4.021-3.638
			C292.827,197.985,293.785,189.943,293.785,189.943z"/>
		<path style="fill:#FFFFFF;stroke:#263238;stroke-linecap:round;stroke-linejoin:round;stroke-miterlimit:10;" d="M282.87,206.794
			c0,0-5.553-11.106-7.851-16.66c-2.298-5.553-2.872-15.128-5.745-15.894c-2.872-0.766-6.128,5.936-6.128,13.596
			c0,7.66,2.489,10.34,4.021,13.213c1.532,2.872,5.17,10.532,5.17,10.532l-1.34,5.553L282.87,206.794z"/>
		<g>
			<g>
				<line style="fill:none;stroke:#263238;stroke-miterlimit:10;" x1="269.24" y1="53.428" x2="269.24" y2="73.251"/>
				<line style="fill:none;stroke:#263238;stroke-miterlimit:10;" x1="210.412" y1="118.651" x2="227.676" y2="118.651"/>
				<line style="fill:none;stroke:#263238;stroke-miterlimit:10;" x1="307.606" y1="118.651" x2="324.87" y2="118.651"/>
				<line style="fill:none;stroke:#263238;stroke-miterlimit:10;" x1="305.687" y1="75.809" x2="296.096" y2="86.679"/>
				<line style="fill:none;stroke:#263238;stroke-miterlimit:10;" x1="232.152" y1="75.809" x2="241.744" y2="86.679"/>
			</g>
			<path style="fill:#92E3A9;stroke:#263238;stroke-linecap:round;stroke-linejoin:round;stroke-miterlimit:10;" d="
				M251.164,163.847c-0.266,1.711-0.464,3.123,0.497,4.585l33.658,0.36c1.453-1.975,1.17-4.462,1.109-7.357
				c-0.113-5.337,1.502-10.558,4.207-15.098c2.273-3.814,5.543-7.177,7.442-11.169c1.893-3.979,2.697-8.521,2.744-12.924
				c0.193-18.1-13.94-32.926-31.567-33.115c-17.628-0.188-32.074,14.332-32.268,32.432c-0.059,5.492,1.221,11.042,3.793,15.868
				C245.056,145.452,252.711,153.9,251.164,163.847z"/>
			
				<ellipse transform="matrix(0.934 -0.3573 0.3573 0.934 -25.5954 104.2536)" style="opacity:0.36;fill:#FFFFFF;" cx="269.379" cy="121.404" rx="21.721" ry="21.721"/>
			<path style="opacity:0.36;fill:#FFFFFF;" d="M258.844,123.725c1.282,5.818,7.038,9.496,12.856,8.214
				c5.819-1.282,9.496-7.038,8.214-12.856c-1.282-5.818-7.038-9.496-12.856-8.214C261.24,112.151,257.562,117.907,258.844,123.725z"
				/>
			<path style="fill:#263238;stroke:#263238;stroke-linecap:round;stroke-linejoin:round;stroke-miterlimit:10;" d="
				M276.168,197.269l-15.844-0.524c-8.314-0.089-9.043-6.718-8.954-15.032l0.292-13.28l33.664,0.36l-0.292,13.281
				C284.944,190.387,284.482,197.358,276.168,197.269z"/>
		</g>
		<path style="fill:#FFFFFF;stroke:#263238;stroke-linecap:round;stroke-linejoin:round;stroke-miterlimit:10;" d="M220.253,274.198
			c0,0-4.787-25.468-4.404-31.787c0.383-6.319,16.66-26.809,18.766-31.596c2.106-4.787,5.362-12.83,4.596-18.574
			c-0.766-5.745-1.723-10.532,2.298-10.915c4.021-0.383,9.574,4.021,11.298,9.383c1.723,5.362,1.34,8.426-1.532,16.277
			c-2.872,7.851-3.447,14.553-3.447,14.553s9.383,0.192,11.489-0.574c2.106-0.766,22.689-14.281,24.292-16.48
			c1.603-2.199,1.228-12.343,1.788-19.471c0.56-7.127,1.8-15.827,6.429-22.223c4.629-6.396,9.335-4.55,10.249-1.916
			c0.914,2.634-3.836,23.996-3.473,30.497s1.707,20.234,1.762,24.642c0.055,4.408-0.858,5.226-4.14,8.287
			c-3.281,3.06-13.354,13.898-21.78,20.409c-8.425,6.511-15.702,19.532-16.085,20.681c-0.383,1.149,0.766,16.277,0.766,16.277
			l0.957,4.787h-37.915L220.253,274.198z"/>
		<path style="fill:none;stroke:#263238;stroke-linecap:round;stroke-linejoin:round;stroke-miterlimit:10;" d="M247.827,221.538
			c0,0-0.574,5.362,0.383,8.043"/>
		
			<rect x="215.435" y="280.519" style="fill:#FFFFFF;stroke:#263238;stroke-linecap:round;stroke-linejoin:round;stroke-miterlimit:10;" width="51.394" height="18.287"/>
		<polygon style="fill:#263238;stroke:#263238;stroke-linecap:round;stroke-linejoin:round;stroke-miterlimit:10;" points="
			272.811,318.704 272.811,290.924 209.452,290.924 209.452,316.823 		"/>
	</g>
</g>
</svg>
